<svg xmlns="http://www.w3.org/2000/svg" xmlns:xlink="http://www.w3.org/1999/xlink" viewBox="0 0 523.3 591.15"><defs><style>.cls-1{fill:none;}.cls-2{clip-path:url(#clip-path);}.cls-3{fill:#233369;}.cls-4{font-size:97.31px;font-family:Roboto-Black, Roboto;font-weight:800;}.cls-4,.cls-8{fill:#f15f61;}.cls-5{letter-spacing:-0.01em;}.cls-6{letter-spacing:-0.07em;}.cls-7{letter-spacing:-0.01em;}.cls-8{font-size:237.86px;font-family:Roboto-Bold, Roboto;font-weight:700;}</style><clipPath id="clip-path" transform="translate(-18.67 0)"><rect class="cls-1" width="541.96" height="591.15"/></clipPath></defs><title>10_1</title><g id="Layer_2" data-name="Layer 2"><g id="Layer_1-2" data-name="Layer 1"><g class="cls-2"><path class="cls-3" d="M478.89,535.73H81.74a7,7,0,0,1-7-6.93V184.74H485.9V528.8a7,7,0,0,1-7,6.93m7-461.84H429.83v-60A13.94,13.94,0,0,0,415.81,0H369.09a13.93,13.93,0,0,0-14,13.86v60H205.56v-60A13.94,13.94,0,0,0,191.54,0H144.82a13.94,13.94,0,0,0-14,13.86v60H74.73c-31,0-56.06,24.82-56.06,55.42V535.73c0,30.61,25.09,55.43,56.06,55.43H485.9c31,0,56.07-24.82,56.07-55.43V129.31c0-30.6-25.11-55.42-56.07-55.42" transform="translate(-18.67 0)"/></g><text class="cls-4" transform="translate(143.51 483.83)"><tspan class="cls-5">D</tspan><tspan class="cls-6" x="61.93" y="0">A</tspan><tspan class="cls-7" x="121.11" y="0">Y</tspan><tspan x="181.53" y="0">S</tspan></text><text class="cls-8" transform="translate(115.85 394.63)">42</text></g></g></svg>