<svg xmlns="http://www.w3.org/2000/svg" xmlns:xlink="http://www.w3.org/1999/xlink" viewBox="0 0 255.67 340.9"><defs><style>.cls-1{fill:none;}.cls-2{clip-path:url(#clip-path);}.cls-3{fill:#e25456;}</style><clipPath id="clip-path" transform="translate(0 0)"><rect class="cls-1" width="255.68" height="340.9"/></clipPath></defs><title>12_1</title><g id="Layer_2" data-name="Layer 2"><g id="Layer_1-2" data-name="Layer 1"><g class="cls-2"><path class="cls-3" d="M195.15,151.54a8.05,8.05,0,0,0-11.32-.06l-78.36,77.76L71.91,195.55a8,8,0,0,0-11.32,0l-5.66,5.66a8,8,0,0,0,0,11.32l44.88,45a8,8,0,0,0,11.32,0l89.75-89a8.05,8.05,0,0,0,.06-11.32Zm39.22,157.4a10.68,10.68,0,0,1-10.65,10.65H32A10.69,10.69,0,0,1,21.3,308.94V74.57A10.69,10.69,0,0,1,32,63.92h32V77.24a8,8,0,0,0,8,8H183.77a8,8,0,0,0,8-8V63.92h32a10.68,10.68,0,0,1,10.65,10.65ZM127.84,21.3a16,16,0,1,1-16,16,15.94,15.94,0,0,1,16-16m95.88,21.31h-59a34.71,34.71,0,0,0,.4-5.32,37.29,37.29,0,1,0-74.57,0,36,36,0,0,0,.4,5.32H32a32,32,0,0,0-32,32V308.94a32,32,0,0,0,32,32H223.72a32,32,0,0,0,31.95-32V74.57a32,32,0,0,0-31.95-32" transform="translate(0 0)"/></g></g></g></svg>