<svg xmlns="http://www.w3.org/2000/svg" xmlns:xlink="http://www.w3.org/1999/xlink" viewBox="0 0 382.73 263.79"><defs><style>.cls-1{fill:none;}.cls-2{clip-path:url(#clip-path);}.cls-3{fill:#e25456;}</style><clipPath id="clip-path" transform="translate(0)"><rect class="cls-1" width="382.73" height="263.78"/></clipPath></defs><title>12_2</title><g id="Layer_2" data-name="Layer 2"><g id="Layer_1-2" data-name="Layer 1"><g class="cls-2"><path class="cls-3" d="M232.52,49.16a7.08,7.08,0,0,1-5.1,2.21H76v177l41-42.91a7,7,0,0,1,10.2,0l3.4,3.56a7.82,7.82,0,0,1,0,10.68L71.43,261.58a7,7,0,0,1-10.2,0L2.11,199.71a7.82,7.82,0,0,1,0-10.68l3.4-3.56a7,7,0,0,1,10.21,0l41,42.91v-182c0-8.34,6.46-15.1,14.43-15.1H232.23c6.43,0,9.64,8.13,5.1,12.89Zm148.1,14.92L321.5,2.21a7,7,0,0,0-10.2,0L252.18,64.08a7.81,7.81,0,0,0,0,10.67l3.4,3.56a7,7,0,0,0,10.21,0l41-42.9v177H155.31a7,7,0,0,0-5.1,2.21l-4.81,5c-4.54,4.76-1.32,12.89,5.1,12.89H311.59c8,0,14.43-6.76,14.43-15.1v-182l41,42.9a7,7,0,0,0,10.2,0l3.4-3.56a7.79,7.79,0,0,0,0-10.67" transform="translate(0)"/></g></g></g></svg>