<svg xmlns="http://www.w3.org/2000/svg" xmlns:xlink="http://www.w3.org/1999/xlink" viewBox="0 0 319 319"><defs><style>.cls-1{fill:none;}.cls-2{clip-path:url(#clip-path);}.cls-3{fill:#e25456;}</style><clipPath id="clip-path" transform="translate(0 0)"><rect class="cls-1" width="319" height="319"/></clipPath></defs><title>13_1</title><g id="Layer_2" data-name="Layer 2"><g id="Layer_1-2" data-name="Layer 1"><g class="cls-2"><path class="cls-3" d="M161.21,215.75a4.24,4.24,0,0,1-3.42,0L28.18,159.51l69-29.95,52.39,22.74a24.87,24.87,0,0,0,19.82,0l52.39-22.73,69,29.94Zm129.61,26.08L161.21,298.07a4.24,4.24,0,0,1-3.42,0L28.18,241.83l69-30,52.4,22.74a25,25,0,0,0,9.91,2.06,24.73,24.73,0,0,0,9.91-2.06l52.4-22.74ZM28.18,77.18,157.79,21l0,0a4.32,4.32,0,0,1,3.4,0L290.82,77.18,161.21,133.42a4.24,4.24,0,0,1-3.42,0ZM319,159.51a15.41,15.41,0,0,0-9.2-14.21l-62.14-27,62.11-26.95a15.56,15.56,0,0,0,0-28.41L169.43,2.08a24.79,24.79,0,0,0-19.85,0L9.23,63a15.55,15.55,0,0,0,0,28.41l62.13,27-62.12,27a15.56,15.56,0,0,0,0,28.41l62.13,26.95-62.12,27a15.56,15.56,0,0,0,0,28.42l140.38,60.91a24.84,24.84,0,0,0,19.81,0L309.76,256a15.56,15.56,0,0,0,0-28.42l-62.13-27,62.11-26.95A15.41,15.41,0,0,0,319,159.51" transform="translate(0 0)"/></g></g></g></svg>