<svg xmlns="http://www.w3.org/2000/svg" xmlns:xlink="http://www.w3.org/1999/xlink" viewBox="0 0 398.52 318.81"><defs><style>.cls-1{fill:none;}.cls-2{clip-path:url(#clip-path);}.cls-3{fill:#e25456;}</style><clipPath id="clip-path" transform="translate(-37.9 -29.48)"><rect class="cls-1" width="474.32" height="352.5"/></clipPath></defs><title>13_@</title><g id="Layer_2" data-name="Layer 2"><g id="Layer_1-2" data-name="Layer 1"><g class="cls-2"><path class="cls-3" d="M396.56,328.37a19.93,19.93,0,1,1,19.93-19.93,20,20,0,0,1-19.93,19.93M247.12,268.59a49.82,49.82,0,1,1,49.81-49.82,49.88,49.88,0,0,1-49.81,49.82M177.38,89.26a19.93,19.93,0,1,1,19.93-19.93,20,20,0,0,1-19.93,19.93m247.39,191a40.46,40.46,0,0,0-5.91-4.85,40,40,0,0,0-44.59,0,36.69,36.69,0,0,0-5.66,4.67l-57.17-34.31A69.75,69.75,0,0,0,247.12,149a71.05,71.05,0,0,0-20.05,3.24L202.6,99.9A39.54,39.54,0,0,0,210.44,47a40.28,40.28,0,0,0-10.77-10.77,40,40,0,0,0-44.58,0A40.31,40.31,0,0,0,144.31,47a39.66,39.66,0,0,0,40.35,61.39L209,160.49a69.69,69.69,0,0,0,38.17,128c21.79,0,41-10.22,53.8-25.85l57.53,34.5a39.69,39.69,0,0,0,38.18,51.12,39.57,39.57,0,0,0,22.29-6.79,39.58,39.58,0,0,0,17.5-33.06,39.65,39.65,0,0,0-6.79-22.29,44.9,44.9,0,0,0-4.86-5.92M132.55,228.74h29.89V208.81H132.55Zm-54.8,10a19.93,19.93,0,1,1,19.93-19.93A20,20,0,0,1,77.75,238.7m22.29-53a40,40,0,0,0-44.58,0,40.46,40.46,0,0,0-10.78,10.77,39.85,39.85,0,1,0,66.14,0A40.46,40.46,0,0,0,100,185.71M396.56,89.26a19.93,19.93,0,1,1-19.92,19.92,20,20,0,0,1,19.92-19.92m0,59.77a39.67,39.67,0,0,0,22.3-6.78,40.31,40.31,0,0,0,10.77-10.78A40,40,0,0,0,424.77,81a40.46,40.46,0,0,0-5.91-4.85,40,40,0,0,0-44.59,0A40.13,40.13,0,0,0,363.5,86.89,39.88,39.88,0,0,0,396.56,149m-38.85,6.73-12-15.94-29.89,22.42,12,15.93Z" transform="translate(-37.9 -29.48)"/></g></g></g></svg>