<svg xmlns="http://www.w3.org/2000/svg" viewBox="0 0 286.26 286.26"><defs><style>.cls-1{fill:#e25456;}</style></defs><title>14_1</title><g id="Layer_2" data-name="Layer 2"><g id="Layer_1-2" data-name="Layer 1"><path class="cls-1" d="M281,130.45,155.81,5.25a17.94,17.94,0,0,0-25.36,0L5.25,130.45a18,18,0,0,0,0,25.37L130.45,281a17.94,17.94,0,0,0,25.36,0L281,155.82a18,18,0,0,0,0-25.37m-56.46,7-47.08,43.46a4.47,4.47,0,0,1-7.51-3.28V147.6H116.28v35.79a4.47,4.47,0,0,1-4.47,4.47H93.92a4.47,4.47,0,0,1-4.47-4.47V138.66a17.89,17.89,0,0,1,17.89-17.89H170v-30a4.47,4.47,0,0,1,7.51-3.29l47.08,43.46a4.47,4.47,0,0,1,0,6.57"/></g></g></svg>