<svg xmlns="http://www.w3.org/2000/svg" xmlns:xlink="http://www.w3.org/1999/xlink" viewBox="0 0 252.27 336.37"><defs><style>.cls-1{fill:none;}.cls-2{clip-path:url(#clip-path);}.cls-3{fill:#e25456;}</style><clipPath id="clip-path" transform="translate(-2.09 -1.57)"><rect class="cls-1" width="256.46" height="340.2"/></clipPath></defs><title>14_2</title><g id="Layer_2" data-name="Layer 2"><g id="Layer_1-2" data-name="Layer 1"><g class="cls-2"><path class="cls-3" d="M65.9,239.81c-5.71-5.71-2.73-4.1-16.51-7.79a47.32,47.32,0,0,1-16.7-8.75L2.88,296.35A10.51,10.51,0,0,0,13,310.82l34.62-1.32,23.8,25.15a10.51,10.51,0,0,0,17.37-3.26L123,247.55a47.12,47.12,0,0,1-57.1-7.74m187.68,56.54-29.81-73.08a47.23,47.23,0,0,1-16.7,8.75c-13.85,3.71-10.81,2.09-16.51,7.79a47.14,47.14,0,0,1-57.11,7.74l34.2,83.84A10.5,10.5,0,0,0,185,334.65l23.82-25.15,34.61,1.32a10.51,10.51,0,0,0,10.14-14.47m-78.71-71.41c10-10.22,11.19-9.34,25.49-13.23a26.7,26.7,0,0,0,18.7-19c4.92-18.66,3.64-16.4,17.05-30.06a27.23,27.23,0,0,0,6.84-26c-4.9-18.64-4.91-16,0-34.71a27.24,27.24,0,0,0-6.84-26C222.7,62.25,224,64.5,219.06,45.85a26.7,26.7,0,0,0-18.7-19c-18.32-5-16.11-3.69-29.53-17.35a26.14,26.14,0,0,0-25.55-7c-18.31,5-15.76,5-34.1,0a26.13,26.13,0,0,0-25.55,7C72.22,23.11,74.43,21.81,56.11,26.81a26.7,26.7,0,0,0-18.7,19c-4.91,18.65-3.64,16.4-17,30.05a27.22,27.22,0,0,0-6.84,26c4.9,18.64,4.91,16,0,34.71a27.24,27.24,0,0,0,6.84,26c13.41,13.66,12.13,11.4,17,30.06a26.7,26.7,0,0,0,18.7,19c14.71,4,15.8,3.37,25.48,13.23a26.11,26.11,0,0,0,32.68,3.82,26.08,26.08,0,0,1,27.94,0,26.08,26.08,0,0,0,32.66-3.82M66.25,117.17c0-34.83,27.75-63.08,62-63.08s62,28.25,62,63.08-27.75,63.08-62,63.08-62-28.24-62-63.08" transform="translate(-2.09 -1.57)"/></g></g></g></svg>