<svg xmlns="http://www.w3.org/2000/svg" xmlns:xlink="http://www.w3.org/1999/xlink" viewBox="0 0 307.35 245.88"><defs><style>.cls-1{fill:none;}.cls-2{clip-path:url(#clip-path);}.cls-3{fill:#e25456;}</style><clipPath id="clip-path" transform="translate(0 -0.01)"><rect class="cls-1" width="307.35" height="245.88"/></clipPath></defs><title>14_3</title><g id="Layer_2" data-name="Layer 2"><g id="Layer_1-2" data-name="Layer 1"><g class="cls-2"><path class="cls-3" d="M0,122.94v61.47a15.36,15.36,0,0,0,15.37,15.37H30.73v-92.2H15.37A15.35,15.35,0,0,0,0,122.94M222.83,46.11H169V15.37a15.37,15.37,0,0,0-30.73,0V46.11H84.52A38.41,38.41,0,0,0,46.1,84.53V215.15a30.77,30.77,0,0,0,30.74,30.74H230.51a30.77,30.77,0,0,0,30.74-30.74V84.53a38.41,38.41,0,0,0-38.42-38.42M122.94,199.78H92.21V184.41h30.73Zm-15.37-57.62a19.21,19.21,0,1,1,19.21-19.22,19.21,19.21,0,0,1-19.21,19.22M169,199.78H138.31V184.41H169Zm46.11,0H184.41V184.41h30.74Zm-15.37-57.62A19.21,19.21,0,1,1,219,122.94a19.2,19.2,0,0,1-19.21,19.22M292,107.58H276.62v92.2H292a15.36,15.36,0,0,0,15.37-15.37V122.94A15.35,15.35,0,0,0,292,107.58" transform="translate(0 -0.01)"/></g></g></g></svg>