<svg xmlns="http://www.w3.org/2000/svg" viewBox="0 0 297.82 397.09"><defs><style>.cls-1{fill:#e35556;}</style></defs><title>14_4</title><g id="Layer_2" data-name="Layer 2"><g id="Layer_1-2" data-name="Layer 1"><path class="cls-1" d="M260.59,49.64h-62a49.64,49.64,0,0,0-99.28,0h-62A37.23,37.23,0,0,0,0,86.86v273a37.23,37.23,0,0,0,37.23,37.23H260.59a37.24,37.24,0,0,0,37.23-37.23v-273A37.24,37.24,0,0,0,260.59,49.64ZM74.45,328.84a18.62,18.62,0,1,1,18.62-18.61A18.57,18.57,0,0,1,74.45,328.84Zm0-74.45a18.62,18.62,0,1,1,18.62-18.62A18.57,18.57,0,0,1,74.45,254.39Zm0-74.46a18.61,18.61,0,1,1,18.62-18.61A18.57,18.57,0,0,1,74.45,179.93ZM148.91,31A18.62,18.62,0,1,1,130.3,49.64,18.57,18.57,0,0,1,148.91,31Zm99.27,285.41a6.22,6.22,0,0,1-6.2,6.21H130.3a6.22,6.22,0,0,1-6.21-6.21V304a6.22,6.22,0,0,1,6.21-6.2H242a6.22,6.22,0,0,1,6.2,6.2Zm0-74.45a6.22,6.22,0,0,1-6.2,6.2H130.3a6.22,6.22,0,0,1-6.21-6.2V229.57a6.23,6.23,0,0,1,6.21-6.21H242a6.23,6.23,0,0,1,6.2,6.21Zm0-74.46a6.22,6.22,0,0,1-6.2,6.21H130.3a6.22,6.22,0,0,1-6.21-6.21V155.11a6.22,6.22,0,0,1,6.21-6.2H242a6.22,6.22,0,0,1,6.2,6.2Z"/></g></g></svg>