<svg xmlns="http://www.w3.org/2000/svg" xmlns:xlink="http://www.w3.org/1999/xlink" viewBox="0 0 331.45 317.33"><defs><style>.cls-1,.cls-5,.cls-6{fill:none;}.cls-2{fill:#e35556;}.cls-3{clip-path:url(#clip-path);}.cls-4{fill:#fff;}.cls-5,.cls-6{stroke:#e35556;}.cls-5{stroke-linecap:round;stroke-linejoin:round;stroke-width:6.58px;}.cls-6{stroke-width:2.63px;}</style><clipPath id="clip-path" transform="translate(0 0)"><rect class="cls-1" width="331.45" height="317.99"/></clipPath></defs><title>15_1</title><g id="Layer_2" data-name="Layer 2"><g id="Layer_1-2" data-name="Layer 1"><polygon class="cls-2" points="167.15 0 134.86 49.39 94.97 45.59 126.31 181.39 72.18 116.82 60.78 141.51 7.6 126.31 23.74 187.1 0 191.84 87.37 269.71 72.18 295.36 154.8 279 183.15 279 259.27 294.41 245.02 267.82 331.45 189.94 309.6 185.2 324.8 128.21 269.72 140.56 260.22 117.77 207.98 182.34 236.48 44.64 196.59 47.49 167.15 0"/><g class="cls-3"><path class="cls-4" d="M163.56,268.52H185c9.07,0,11.13-4.54,13.6-7.42s.83-22.67,6.6-41.63,28.43-38.33,28.43-77.49c0-54.81-42-73.36-70.06-73.36h.2c-28,0-70.07,18.55-70.07,73.36,0,39.16,22.67,58.53,28.44,77.49s4.12,38.75,6.6,41.63,4.53,7.42,13.6,7.42h21.23Z" transform="translate(0 0)"/><path class="cls-2" d="M163.56,274.27h19.12c3.68,0,7.38-.1,10.84-1.48a22.27,22.27,0,0,0,10-8.79c2.18-3.36,2.11-8.09,2.41-11.94.52-6.44.93-12.89,2-19.26,1.82-10.59,4.8-17.77,10.08-26.8s10.4-17.74,14.27-27.34a98,98,0,0,0,7-36.68c0-21.91-7.09-44-23.58-59a78.79,78.79,0,0,0-52.23-20.07V74.38h.2V62.87a78.73,78.73,0,0,0-46.29,15.22c-17.4,13-26.87,32.49-29,53.91a98.87,98.87,0,0,0,3.87,39.21c3.15,10.11,8,19.53,13.33,28.64,2.27,3.88,4.62,7.73,6.76,11.69a46.89,46.89,0,0,1,4.54,10.65,113.18,113.18,0,0,1,3.72,21.15c.49,5.32.6,10.72,1.49,16,.69,4,3.33,7.56,6.37,10.23,4.08,3.59,9.15,4.67,14.45,4.7,6.87.05,13.73,0,20.6,0,7.41,0,7.42-11.5,0-11.5H145.87c-2.59,0-5.56.32-8-.68a6.76,6.76,0,0,1-2.85-2.27c-.52-.59-1-1.23-1.47-1.85-.87-1.07.11.36.11.35-.13-2-.42-1.7-.6-3.62-.25-2.64-.41-5.28-.62-7.91a169.35,169.35,0,0,0-2.7-20.56c-1.89-9.24-5.51-17.34-10.22-25.44-4.62-7.92-9.47-15.75-13.07-24.21a87.92,87.92,0,0,1-7-32.36c-.43-19.68,5.21-39.3,19.94-52.9,12.06-11.13,28.66-16.88,44.35-16.94,7.41,0,7.42-11.51,0-11.51h-.2c-7.41,0-7.42,11.48,0,11.51a67.6,67.6,0,0,1,40.21,13.44c14.57,11,22.56,28.78,23.85,47.09a90,90,0,0,1-4.26,35c-3,9-7.56,17.3-12.35,25.44-4.08,6.94-8.43,13.87-11,21.55-4.06,12.08-4.57,24.92-5.73,37.49,0,.57-.1,1.14-.16,1.7-.12,1,0,0-.07.5s-.18.79-.24,1.19c-.09.69-.5.56,0,.39s-.27,0,.47-.72a9.57,9.57,0,0,0-.92,1.18c-.58.71-1.14,1.4-1.77,2.06a7,7,0,0,1-4.41,2,26.06,26.06,0,0,1-3.65.1h-19.9c-7.41,0-7.42,11.5,0,11.5" transform="translate(0 0)"/><path class="cls-4" d="M170.74,314.05H156a7.59,7.59,0,1,1,0-15.17h14.79a7.59,7.59,0,0,1,0,15.17" transform="translate(0 0)"/><path class="cls-5" d="M170.74,314.05H156a7.59,7.59,0,1,1,0-15.17h14.79a7.59,7.59,0,0,1,0,15.17Z" transform="translate(0 0)"/><path class="cls-4" d="M177.28,302.62H149.4a7.59,7.59,0,0,1,0-15.17h27.88a7.59,7.59,0,1,1,0,15.17" transform="translate(0 0)"/><path class="cls-5" d="M177.28,302.62H149.4a7.59,7.59,0,0,1,0-15.17h27.88a7.59,7.59,0,1,1,0,15.17Z" transform="translate(0 0)"/><path class="cls-4" d="M181.62,288H145.06a7.59,7.59,0,1,1,0-15.17h36.56a7.59,7.59,0,1,1,0,15.17" transform="translate(0 0)"/><path class="cls-5" d="M181.62,288H145.06a7.59,7.59,0,1,1,0-15.17h36.56a7.59,7.59,0,1,1,0,15.17Z" transform="translate(0 0)"/><path class="cls-2" d="M153.13,118.67a1.1,1.1,0,0,1-1-.54,1.38,1.38,0,0,1,0-1.26,2.66,2.66,0,0,0-2.29,1.21,7,7,0,0,0-1.39,2.92,4.87,4.87,0,0,0,.18,3,2.38,2.38,0,0,0,2.51,1.35,7.27,7.27,0,0,0,5.22-2.07,13.43,13.43,0,0,0,3.29-5.17,20.79,20.79,0,0,0,1.17-6.7,19,19,0,0,0-1.08-6.7,12.55,12.55,0,0,0-3.47-5.18,9.06,9.06,0,0,0-6-2.15,13.6,13.6,0,0,0-7.46,2.38,29.76,29.76,0,0,0-7,6.48,52.94,52.94,0,0,0-6,9.49A78.44,78.44,0,0,0,125.16,127a76.53,76.53,0,0,0-2.79,12,49.38,49.38,0,0,0-.45,11.47,33.23,33.23,0,0,0,1.3,7.38,20.14,20.14,0,0,0,2.93,6,15.63,15.63,0,0,0,11.24,6.47,14.32,14.32,0,0,0,5.89-1.3,28,28,0,0,0,5.58-3.33,34,34,0,0,0,4.81-4.45,31.65,31.65,0,0,0,3.6-4.86v-5.94c0-.48.11-.78.32-.9a1.47,1.47,0,0,1,.76-.18,1.77,1.77,0,0,1,1.4.72,3.87,3.87,0,0,1,.76,1.44c.06.78.19,2.13.41,4s.38,4.2.53,6.84.22,5.5.18,8.59a88.62,88.62,0,0,1-.58,9.31,53.44,53.44,0,0,1-1.84,9,27.38,27.38,0,0,1-3.65,7.74,18.08,18.08,0,0,1-5.8,5.39,16.39,16.39,0,0,1-8.41,2,13,13,0,0,1-4.63-.8,10.36,10.36,0,0,1-3.69-2.39,11,11,0,0,1-2.44-3.73,13.32,13.32,0,0,1-.85-4.86,11.59,11.59,0,0,1,2.88-8,22.45,22.45,0,0,1,7.06-5.27,43.52,43.52,0,0,1,8.91-3.14c3.15-.76,5.95-1.31,8.41-1.67l.27-15a44.74,44.74,0,0,1-4.23,4.54,39.73,39.73,0,0,1-5.26,4.18,29.32,29.32,0,0,1-5.94,3.06,17.59,17.59,0,0,1-6.25,1.17,24.29,24.29,0,0,1-8.63-1.39,17.52,17.52,0,0,1-6.21-3.87,16.78,16.78,0,0,1-3.87-5.89,23,23,0,0,1-1.53-7.47,64.19,64.19,0,0,1,.85-14.08,79.63,79.63,0,0,1,3.56-13.54,68.75,68.75,0,0,1,5.67-12.05,52.39,52.39,0,0,1,7.33-9.72,34.79,34.79,0,0,1,8.41-6.52,18.54,18.54,0,0,1,8.9-2.38A10.37,10.37,0,0,1,156.91,98a13.27,13.27,0,0,1,4,5.63,20.12,20.12,0,0,1,1.21,7.33,21,21,0,0,1-1.34,7.33,14.69,14.69,0,0,1-3.78,5.62,8.55,8.55,0,0,1-6,2.25c-1.68,0-2.76-.6-3.23-1.8a5.85,5.85,0,0,1-.18-3.82,8.29,8.29,0,0,1,2-3.6,3.44,3.44,0,0,1,3.46-1.12q1.44.27,1.44,1.44a1.68,1.68,0,0,1-.31,1,1.18,1.18,0,0,1-1,.45m-21.95,73.85a12.48,12.48,0,0,0,.68,4.14,10.4,10.4,0,0,0,1.93,3.47,9.71,9.71,0,0,0,3.06,2.38,8.93,8.93,0,0,0,4.05.9,8.61,8.61,0,0,0,4.81-1.44,16.92,16.92,0,0,0,4-3.73,24.57,24.57,0,0,0,3.1-5.23,48.11,48.11,0,0,0,2.2-5.93,45.31,45.31,0,0,0,1.35-5.85,32.27,32.27,0,0,0,.45-5,38.21,38.21,0,0,0-8.54,1.22,34.75,34.75,0,0,0-8.33,3.23,22.44,22.44,0,0,0-6.34,5.09,9.74,9.74,0,0,0-2.43,6.74" transform="translate(0 0)"/><path class="cls-6" d="M153.13,118.67a1.1,1.1,0,0,1-1-.54,1.38,1.38,0,0,1,0-1.26,2.66,2.66,0,0,0-2.29,1.21,7,7,0,0,0-1.39,2.92,4.87,4.87,0,0,0,.18,3,2.38,2.38,0,0,0,2.51,1.35,7.27,7.27,0,0,0,5.22-2.07,13.43,13.43,0,0,0,3.29-5.17,20.79,20.79,0,0,0,1.17-6.7,19,19,0,0,0-1.08-6.7,12.55,12.55,0,0,0-3.47-5.18,9.06,9.06,0,0,0-6-2.15,13.6,13.6,0,0,0-7.46,2.38,29.76,29.76,0,0,0-7,6.48,52.94,52.94,0,0,0-6,9.49A78.44,78.44,0,0,0,125.16,127a76.53,76.53,0,0,0-2.79,12,49.38,49.38,0,0,0-.45,11.47,33.23,33.23,0,0,0,1.3,7.38,20.14,20.14,0,0,0,2.93,6,15.63,15.63,0,0,0,11.24,6.47,14.32,14.32,0,0,0,5.89-1.3,28,28,0,0,0,5.58-3.33,34,34,0,0,0,4.81-4.45,31.65,31.65,0,0,0,3.6-4.86v-5.94c0-.48.11-.78.32-.9a1.47,1.47,0,0,1,.76-.18,1.77,1.77,0,0,1,1.4.72,3.87,3.87,0,0,1,.76,1.44c.06.78.19,2.13.41,4s.38,4.2.53,6.84.22,5.5.18,8.59a88.62,88.62,0,0,1-.58,9.31,53.44,53.44,0,0,1-1.84,9,27.38,27.38,0,0,1-3.65,7.74,18.08,18.08,0,0,1-5.8,5.39,16.39,16.39,0,0,1-8.41,2,13,13,0,0,1-4.63-.8,10.36,10.36,0,0,1-3.69-2.39,11,11,0,0,1-2.44-3.73,13.32,13.32,0,0,1-.85-4.86,11.59,11.59,0,0,1,2.88-8,22.45,22.45,0,0,1,7.06-5.27,43.52,43.52,0,0,1,8.91-3.14c3.15-.76,5.95-1.31,8.41-1.67l.27-15a44.74,44.74,0,0,1-4.23,4.54,39.73,39.73,0,0,1-5.26,4.18,29.32,29.32,0,0,1-5.94,3.06,17.59,17.59,0,0,1-6.25,1.17,24.29,24.29,0,0,1-8.63-1.39,17.52,17.52,0,0,1-6.21-3.87,16.78,16.78,0,0,1-3.87-5.89,23,23,0,0,1-1.53-7.47,64.19,64.19,0,0,1,.85-14.08,79.63,79.63,0,0,1,3.56-13.54,68.75,68.75,0,0,1,5.67-12.05,52.39,52.39,0,0,1,7.33-9.72,34.79,34.79,0,0,1,8.41-6.52,18.54,18.54,0,0,1,8.9-2.38A10.37,10.37,0,0,1,156.91,98a13.27,13.27,0,0,1,4,5.63,20.12,20.12,0,0,1,1.21,7.33,21,21,0,0,1-1.34,7.33,14.69,14.69,0,0,1-3.78,5.62,8.55,8.55,0,0,1-6,2.25c-1.68,0-2.76-.6-3.23-1.8a5.85,5.85,0,0,1-.18-3.82,8.29,8.29,0,0,1,2-3.6,3.44,3.44,0,0,1,3.46-1.12q1.44.27,1.44,1.44a1.68,1.68,0,0,1-.31,1A1.18,1.18,0,0,1,153.13,118.67Zm-21.95,73.85a12.48,12.48,0,0,0,.68,4.14,10.4,10.4,0,0,0,1.93,3.47,9.71,9.71,0,0,0,3.06,2.38,8.93,8.93,0,0,0,4.05.9,8.61,8.61,0,0,0,4.81-1.44,16.92,16.92,0,0,0,4-3.73,24.57,24.57,0,0,0,3.1-5.23,48.11,48.11,0,0,0,2.2-5.93,45.31,45.31,0,0,0,1.35-5.85,32.27,32.27,0,0,0,.45-5,38.21,38.21,0,0,0-8.54,1.22,34.75,34.75,0,0,0-8.33,3.23,22.44,22.44,0,0,0-6.34,5.09A9.74,9.74,0,0,0,131.18,192.52Z" transform="translate(0 0)"/><path class="cls-2" d="M216,151.32c-.79,1.62-1.82,3.53-3.11,5.72s-2.77,4.46-4.45,6.83-3.53,4.74-5.53,7.11a58.54,58.54,0,0,1-6.35,6.43,39.91,39.91,0,0,1-6.83,4.81,17.21,17.21,0,0,1-7,2.2,21.09,21.09,0,0,1-9-.94,20,20,0,0,1-6.75-3.95,21.9,21.9,0,0,1-4.68-6,39.85,39.85,0,0,1-3-7.19,43.26,43.26,0,0,1-1.58-7.47,57,57,0,0,1-.45-6.79,95.07,95.07,0,0,1,.68-10.48,108.3,108.3,0,0,1,2.16-12.37A93.17,93.17,0,0,1,164,116.64a49,49,0,0,1,5.9-11,30.1,30.1,0,0,1,8.23-7.87,19.54,19.54,0,0,1,10.75-3,19.33,19.33,0,0,1,5.89.9,17.84,17.84,0,0,1,5.17,2.61,16.84,16.84,0,0,1,6.48,9.53,10,10,0,0,1,2,.23,13.72,13.72,0,0,1,2.34.67,10.33,10.33,0,0,1,2.2,1.17,4.1,4.1,0,0,1,1.49,1.8.86.86,0,0,1-.14,1c-.27.27-.56.17-.85-.31a5.07,5.07,0,0,0-2.57-2.38,8.13,8.13,0,0,0-4.27-.77,47.54,47.54,0,0,1-.18,5.58,25.83,25.83,0,0,1-1.35,6.43,16.39,16.39,0,0,1-3,5.35,6.29,6.29,0,0,1-5,2.25,4.52,4.52,0,0,1-3.73-1.39,5.41,5.41,0,0,1-1.12-3.51,13.12,13.12,0,0,1,1-4.68,21.29,21.29,0,0,1,6.7-9,12.73,12.73,0,0,1,4.9-2.43,13.44,13.44,0,0,0-2-4.68,12.2,12.2,0,0,0-3.34-3.23A13.55,13.55,0,0,0,195.08,98a20.47,20.47,0,0,0-4.9-.58,15.05,15.05,0,0,0-9.13,2.92,26.62,26.62,0,0,0-6.93,7.65,50,50,0,0,0-4.9,10.66,99.65,99.65,0,0,0-3.2,11.92,113.58,113.58,0,0,0-1.75,11.47c-.36,3.65-.54,6.78-.54,9.35a60.51,60.51,0,0,0,.4,6.75,48.16,48.16,0,0,0,1.35,7.11A37.9,37.9,0,0,0,168,172a22,22,0,0,0,3.87,5.63,16.15,16.15,0,0,0,5.4,3.68,15.58,15.58,0,0,0,7.15,1,13.39,13.39,0,0,0,6-2.2A40.68,40.68,0,0,0,197,175a74.18,74.18,0,0,0,6.43-7.06q3.15-3.91,5.8-7.78t4.59-7.38a37.38,37.38,0,0,0,2.75-5.94c.11-.35.22-.4.31-.13A4.27,4.27,0,0,1,217,148a8.34,8.34,0,0,1-.23,1.84,3.07,3.07,0,0,1-.76,1.53m-19.35-23.75a4.68,4.68,0,0,0,3.42-1.08,10.18,10.18,0,0,0,2.79-3.64,22.54,22.54,0,0,0,1.8-5.8,34.32,34.32,0,0,0,.45-7.65,5.44,5.44,0,0,0-3.24,1.31,16.35,16.35,0,0,0-3.19,3.28,25.83,25.83,0,0,0-2.61,4.32,18.64,18.64,0,0,0-1.53,4.32,6.7,6.7,0,0,0,.05,3.41,2.06,2.06,0,0,0,2.06,1.53" transform="translate(0 0)"/><path class="cls-6" d="M216,151.32c-.79,1.62-1.82,3.53-3.11,5.72s-2.77,4.46-4.45,6.83-3.53,4.74-5.53,7.11a58.54,58.54,0,0,1-6.35,6.43,39.91,39.91,0,0,1-6.83,4.81,17.21,17.21,0,0,1-7,2.2,21.09,21.09,0,0,1-9-.94,20,20,0,0,1-6.75-3.95,21.9,21.9,0,0,1-4.68-6,39.85,39.85,0,0,1-3-7.19,43.26,43.26,0,0,1-1.58-7.47,57,57,0,0,1-.45-6.79,95.07,95.07,0,0,1,.68-10.48,108.3,108.3,0,0,1,2.16-12.37A93.17,93.17,0,0,1,164,116.64a49,49,0,0,1,5.9-11,30.1,30.1,0,0,1,8.23-7.87,19.54,19.54,0,0,1,10.75-3,19.33,19.33,0,0,1,5.89.9,17.84,17.84,0,0,1,5.17,2.61,16.84,16.84,0,0,1,6.48,9.53,10,10,0,0,1,2,.23,13.72,13.72,0,0,1,2.34.67,10.33,10.33,0,0,1,2.2,1.17,4.1,4.1,0,0,1,1.49,1.8.86.86,0,0,1-.14,1c-.27.27-.56.17-.85-.31a5.07,5.07,0,0,0-2.57-2.38,8.13,8.13,0,0,0-4.27-.77,47.54,47.54,0,0,1-.18,5.58,25.83,25.83,0,0,1-1.35,6.43,16.39,16.39,0,0,1-3,5.35,6.29,6.29,0,0,1-5,2.25,4.52,4.52,0,0,1-3.73-1.39,5.41,5.41,0,0,1-1.12-3.51,13.12,13.12,0,0,1,1-4.68,21.29,21.29,0,0,1,6.7-9,12.73,12.73,0,0,1,4.9-2.43,13.44,13.44,0,0,0-2-4.68,12.2,12.2,0,0,0-3.34-3.23A13.55,13.55,0,0,0,195.08,98a20.47,20.47,0,0,0-4.9-.58,15.05,15.05,0,0,0-9.13,2.92,26.62,26.62,0,0,0-6.93,7.65,50,50,0,0,0-4.9,10.66,99.65,99.65,0,0,0-3.2,11.92,113.58,113.58,0,0,0-1.75,11.47c-.36,3.65-.54,6.78-.54,9.35a60.51,60.51,0,0,0,.4,6.75,48.16,48.16,0,0,0,1.35,7.11A37.9,37.9,0,0,0,168,172a22,22,0,0,0,3.87,5.63,16.15,16.15,0,0,0,5.4,3.68,15.58,15.58,0,0,0,7.15,1,13.39,13.39,0,0,0,6-2.2A40.68,40.68,0,0,0,197,175a74.18,74.18,0,0,0,6.43-7.06q3.15-3.91,5.8-7.78t4.59-7.38a37.38,37.38,0,0,0,2.75-5.94c.11-.35.22-.4.31-.13A4.27,4.27,0,0,1,217,148a8.34,8.34,0,0,1-.23,1.84A3.07,3.07,0,0,1,216,151.32Zm-19.35-23.75a4.68,4.68,0,0,0,3.42-1.08,10.18,10.18,0,0,0,2.79-3.64,22.54,22.54,0,0,0,1.8-5.8,34.32,34.32,0,0,0,.45-7.65,5.44,5.44,0,0,0-3.24,1.31,16.35,16.35,0,0,0-3.19,3.28,25.83,25.83,0,0,0-2.61,4.32,18.64,18.64,0,0,0-1.53,4.32,6.7,6.7,0,0,0,.05,3.41A2.06,2.06,0,0,0,196.65,127.57Z" transform="translate(0 0)"/><path class="cls-2" d="M143.57,206.11a14.91,14.91,0,0,1,10.53,8.38c2.41,5.5,2.1,12.75,2.43,18.64.6,10.57.89,21.17,1,31.77,0,3,4.64,3,4.6,0-.14-11.83-.45-23.69-1.24-35.49-.44-6.59-.42-14.33-4.37-19.92a19.66,19.66,0,0,0-11.74-7.82c-2.9-.56-4.14,3.88-1.23,4.44" transform="translate(0 0)"/><path class="cls-2" d="M182.73,181.06c-11.87,3.28-14.12,17.57-14.85,27.91-1,14.92-1.29,29.9-1.53,44.85-.06,4-.12,7.94-.15,11.9,0,3,4.58,3,4.6,0q.12-14,.49-28.09c.19-7.35.42-14.71.8-22.06.32-6.27.29-13.07,2.25-19.1,1.46-4.51,5.1-9.72,9.61-11,2.85-.78,1.64-5.23-1.22-4.44" transform="translate(0 0)"/></g></g></g></svg>