<svg xmlns="http://www.w3.org/2000/svg" xmlns:xlink="http://www.w3.org/1999/xlink" viewBox="0 0 270.61 309.27"><defs><style>.cls-1{fill:none;}.cls-2{clip-path:url(#clip-path);}.cls-3{fill:#e25456;}</style><clipPath id="clip-path" transform="translate(-11.18 0)"><rect class="cls-1" width="292.97" height="309.27"/></clipPath></defs><title>15_2</title><g id="Layer_2" data-name="Layer 2"><g id="Layer_1-2" data-name="Layer 1"><g class="cls-2"><path class="cls-3" d="M275.26,243.73,204.47,129.87V38.66h4.83a14.46,14.46,0,0,0,14.5-14.5V14.5A14.47,14.47,0,0,0,209.3,0H83.66a14.47,14.47,0,0,0-14.5,14.5v9.66a14.47,14.47,0,0,0,14.5,14.5h4.83v91.21L17.7,243.73C0,272.19,20.42,309.27,54,309.27H239c33.65,0,54-37.15,36.3-65.54M94.47,193.29l29.12-46.87a19.18,19.18,0,0,0,3.5-11.12V38.66h38.66V135.3a19.39,19.39,0,0,0,3.51,11.12l29.11,46.87Z" transform="translate(-11.18 0)"/></g></g></g></svg>