<svg xmlns="http://www.w3.org/2000/svg" viewBox="0 0 133.58 115.42"><defs><style>.cls-1{fill:none;}.cls-2{fill:#99c255;}.cls-3{fill:#fff;}</style></defs><title>21_1</title><g id="Layer_2" data-name="Layer 2"><g id="Layer_1-2" data-name="Layer 1"><path class="cls-1" d="M14.84,28.85v3.61c0,2.62,2.53,7,8.19,11a38.05,38.05,0,0,0,9.67,4.83,79,79,0,0,1-3-19.44Z"/><path class="cls-1" d="M100.86,48.29a38.18,38.18,0,0,0,9.69-4.83c4.09-2.86,8.19-7.37,8.19-11V28.85H103.83A79,79,0,0,1,100.86,48.29Z"/><path class="cls-2" d="M48.34,25.18c-1,.14-1.47.53-1.47,1.18a1.07,1.07,0,0,0,.35.82,3.78,3.78,0,0,0,1.12.66Z"/><path class="cls-2" d="M51.44,33.24a1,1,0,0,0-.39-.8,4.85,4.85,0,0,0-1.16-.68v2.82C50.92,34.41,51.44,34,51.44,33.24Z"/><path class="cls-2" d="M81.11,54.77a1.42,1.42,0,0,0-1.11.45,2.06,2.06,0,0,0-.46,1.27h3.12a1.84,1.84,0,0,0-.43-1.27A1.45,1.45,0,0,0,81.11,54.77Z"/><path class="cls-2" d="M133.58,19.83a5.46,5.46,0,0,0-5.56-5.4H103.9v-9A5.48,5.48,0,0,0,98.33,0H35.25a5.47,5.47,0,0,0-5.56,5.41v9H5.56A5.47,5.47,0,0,0,0,19.84V32.46c0,8,5.22,16.32,14.36,22.7a55.22,55.22,0,0,0,25.51,9.4c7.28,11.75,15.79,16.59,15.79,16.59V97.38H44.53c-8.19,0-14.84,4.67-14.84,12.63v2.7a2.75,2.75,0,0,0,2.78,2.71h68.65a2.75,2.75,0,0,0,2.78-2.71V110c0-8-6.66-12.63-14.84-12.63H77.92V81.15s8.51-4.84,15.8-16.59a55.1,55.1,0,0,0,25.51-9.4c9.11-6.37,14.34-14.64,14.35-22.68ZM23,43.46c-5.66-4-8.19-8.38-8.19-11V28.85H29.73a79,79,0,0,0,3,19.44A38.05,38.05,0,0,1,23,43.46Zm20.45-7.11v-3a13.51,13.51,0,0,0,2.38.86,12.28,12.28,0,0,0,2.48.44V31.14l-.76-.29a8.45,8.45,0,0,1-3.18-1.92,3.67,3.67,0,0,1-.94-2.57,3.36,3.36,0,0,1,1.29-2.71,6.5,6.5,0,0,1,3.59-1.29V20.63h1.55v1.69a12.8,12.8,0,0,1,4.7,1L53.52,26a12.22,12.22,0,0,0-3.63-.89v3.35A17.85,17.85,0,0,1,53,30a4.27,4.27,0,0,1,1.37,1.38,3.41,3.41,0,0,1,.44,1.74,3.58,3.58,0,0,1-1.3,2.9,6.47,6.47,0,0,1-3.66,1.31v2.33H48.34V37.33A12.7,12.7,0,0,1,43.48,36.35ZM55.79,56.79a4.6,4.6,0,0,1-3.06.91h-1v3.79H49.5V50.83h3.4a4.55,4.55,0,0,1,3,.83,3,3,0,0,1,1,2.5A3.29,3.29,0,0,1,55.79,56.79Zm8.11-1.45a2.48,2.48,0,0,0-.66-.08,2.39,2.39,0,0,0-1.66.55A2,2,0,0,0,61,57.34v4.15H58.76V53.34h1.69l.32,1.37h.11a3.14,3.14,0,0,1,1-1.11,2.61,2.61,0,0,1,1.4-.42,3.82,3.82,0,0,1,.75.07Zm4,6.15H65.65V53.34h2.22ZM67.67,52a1.27,1.27,0,0,1-.91.29c-.8,0-1.21-.37-1.21-1.1s.41-1.09,1.21-1.09S68,50.51,68,51.23A1.08,1.08,0,0,1,67.67,52ZM66.46,37a7.2,7.2,0,0,1-4.9,1.5,9.6,9.6,0,0,1-4.47-.9v-3a9.11,9.11,0,0,0,2.09.78,9.25,9.25,0,0,0,2.26.3c2.14,0,3.21-.88,3.21-2.63s-1.11-2.51-3.33-2.51a8.08,8.08,0,0,0-1.32.12,9.75,9.75,0,0,0-1.18.25l-1.4-.75L58,21.67h9v3H61.12l-.31,3.26.4-.08a8.14,8.14,0,0,1,1.71-.16A5.33,5.33,0,0,1,66.75,29a4.85,4.85,0,0,1,1.43,3.7A5.4,5.4,0,0,1,66.46,37ZM76,61.49H69.56V60.18L73.34,55H69.79v-1.7h6.08v1.44l-3.68,5H76ZM84.75,58H79.49a2.11,2.11,0,0,0,.56,1.48,2,2,0,0,0,1.47.53,6.33,6.33,0,0,0,1.4-.15,6.69,6.69,0,0,0,1.37-.49v1.72A5.3,5.3,0,0,1,83,61.5a8.2,8.2,0,0,1-1.62.14,4.2,4.2,0,0,1-3.08-1.09,4.1,4.1,0,0,1-1.1-3.08,4.56,4.56,0,0,1,1-3.17,3.67,3.67,0,0,1,2.83-1.12,3.56,3.56,0,0,1,2.69,1,3.7,3.7,0,0,1,1,2.72ZM89,38.26H85.76V30.41c0-.37,0-.8,0-1.28s.06-1.77.15-3.86h-.1l-4.28,13H78.33l-4-13h-.11c.15,2.64.22,4.41.22,5.29v7.72H71.31V21.67h4.78L80,34.36h.07l4.16-12.69H89Zm29.7-5.8c0,3.63-4.1,8.14-8.19,11a38.18,38.18,0,0,1-9.69,4.83,79,79,0,0,0,3-19.44h14.91Z"/><path class="cls-2" d="M52.79,52.68h-1v3.17h.74a2.49,2.49,0,0,0,1.56-.41,1.45,1.45,0,0,0,.52-1.21,1.48,1.48,0,0,0-.43-1.17A2.06,2.06,0,0,0,52.79,52.68Z"/><path class="cls-3" d="M49.89,39.61V37.28A6.47,6.47,0,0,0,53.55,36a3.58,3.58,0,0,0,1.3-2.9,3.41,3.41,0,0,0-.44-1.74A4.27,4.27,0,0,0,53,30a17.85,17.85,0,0,0-3.15-1.47V25.13a12.22,12.22,0,0,1,3.63.89l1.07-2.66a12.8,12.8,0,0,0-4.7-1V20.63H48.34v1.73a6.5,6.5,0,0,0-3.59,1.29,3.36,3.36,0,0,0-1.29,2.71,3.67,3.67,0,0,0,.94,2.57,8.45,8.45,0,0,0,3.18,1.92l.76.29v3.52a12.28,12.28,0,0,1-2.48-.44,13.51,13.51,0,0,1-2.38-.86v3a12.7,12.7,0,0,0,4.86,1v2.28Zm0-7.85a4.85,4.85,0,0,1,1.16.68,1,1,0,0,1,.39.8c0,.72-.52,1.17-1.55,1.34Zm-2.67-4.58a1.07,1.07,0,0,1-.35-.82c0-.65.49-1,1.47-1.18v2.66A3.78,3.78,0,0,1,47.22,27.18Z"/><path class="cls-3" d="M62.92,27.66a8.14,8.14,0,0,0-1.71.16l-.4.08.31-3.26H67v-3H58l-.62,8.45,1.4.75A9.75,9.75,0,0,1,60,30.62a8.08,8.08,0,0,1,1.32-.12c2.22,0,3.33.83,3.33,2.51s-1.07,2.63-3.21,2.63a9.25,9.25,0,0,1-2.26-.3,9.11,9.11,0,0,1-2.09-.78v3a9.6,9.6,0,0,0,4.47.9,7.2,7.2,0,0,0,4.9-1.5,5.4,5.4,0,0,0,1.72-4.28A4.85,4.85,0,0,0,66.75,29,5.33,5.33,0,0,0,62.92,27.66Z"/><path class="cls-3" d="M80.09,34.36H80L76.09,21.67H71.31V38.26h3.14V30.54c0-.88-.07-2.65-.22-5.29h.11l4,13h3.22l4.28-13h.1c-.09,2.09-.14,3.37-.15,3.86s0,.91,0,1.28v7.85H89V21.67H84.25Z"/><path class="cls-3" d="M52.9,50.83H49.5V61.49h2.26V57.7h1a4.6,4.6,0,0,0,3.06-.91,3.29,3.29,0,0,0,1.07-2.63,3,3,0,0,0-1-2.5A4.55,4.55,0,0,0,52.9,50.83Zm1.16,4.61a2.49,2.49,0,0,1-1.56.41h-.74V52.68h1a2.06,2.06,0,0,1,1.36.38,1.48,1.48,0,0,1,.43,1.17A1.45,1.45,0,0,1,54.06,55.44Z"/><path class="cls-3" d="M61.91,53.6a3.14,3.14,0,0,0-1,1.11h-.11l-.32-1.37H58.76v8.15H61V57.34a2,2,0,0,1,.59-1.53,2.39,2.39,0,0,1,1.66-.55,2.48,2.48,0,0,1,.66.08l.16-2.09a3.82,3.82,0,0,0-.75-.07A2.61,2.61,0,0,0,61.91,53.6Z"/><path class="cls-3" d="M66.76,50.14c-.8,0-1.21.37-1.21,1.09s.41,1.1,1.21,1.1a1.27,1.27,0,0,0,.91-.29,1.08,1.08,0,0,0,.3-.81C68,50.51,67.57,50.14,66.76,50.14Z"/><rect class="cls-3" x="65.65" y="53.34" width="2.22" height="8.15"/><polygon class="cls-3" points="75.87 54.78 75.87 53.34 69.79 53.34 69.79 55.04 73.34 55.04 69.56 60.18 69.56 61.49 76 61.49 76 59.79 72.19 59.79 75.87 54.78"/><path class="cls-3" d="M81.09,53.18a3.67,3.67,0,0,0-2.83,1.12,4.56,4.56,0,0,0-1,3.17,4.1,4.1,0,0,0,1.1,3.08,4.2,4.2,0,0,0,3.08,1.09A8.2,8.2,0,0,0,83,61.5a5.3,5.3,0,0,0,1.25-.44V59.34a6.69,6.69,0,0,1-1.37.49,6.33,6.33,0,0,1-1.4.15,2,2,0,0,1-1.47-.53A2.11,2.11,0,0,1,79.49,58h5.26V56.89a3.7,3.7,0,0,0-1-2.72A3.56,3.56,0,0,0,81.09,53.18Zm-1.55,3.31A2.06,2.06,0,0,1,80,55.22a1.42,1.42,0,0,1,1.11-.45,1.45,1.45,0,0,1,1.12.45,1.84,1.84,0,0,1,.43,1.27Z"/></g></g></svg>