<svg xmlns="http://www.w3.org/2000/svg" viewBox="0 0 133.58 115.42"><defs><style>.cls-1{fill:none;}.cls-2{fill:#99c255;}.cls-3{fill:#fff;}</style></defs><title>21_1fr</title><g id="Layer_2" data-name="Layer 2"><g id="Layer_1-2" data-name="Layer 1"><path class="cls-1" d="M100.86,48.29a38.18,38.18,0,0,0,9.69-4.83c4.09-2.86,8.19-7.37,8.19-11V28.85H103.83A79,79,0,0,1,100.86,48.29Z"/><path class="cls-1" d="M14.84,28.85v3.61c0,2.62,2.53,7,8.19,11a38.05,38.05,0,0,0,9.67,4.83,79,79,0,0,1-3-19.44Z"/><path class="cls-2" d="M79.34,31.57V28.42A1.4,1.4,0,0,0,78,27.58c-1,0-1.54.84-1.54,2.51a3.17,3.17,0,0,0,.39,1.72,1.27,1.27,0,0,0,1.14.6A1.42,1.42,0,0,0,79.34,31.57Z"/><path class="cls-2" d="M86.56,27.57a1.32,1.32,0,0,0-1,.43,2.18,2.18,0,0,0-.5,1.23h3v-.17a1.6,1.6,0,0,0-.38-1.1A1.39,1.39,0,0,0,86.56,27.57Z"/><path class="cls-2" d="M48.3,25h-2V28.4h2A2,2,0,0,0,49.59,28a1.5,1.5,0,0,0,.46-1.18A1.65,1.65,0,0,0,48.3,25Z"/><path class="cls-2" d="M128,14.43H103.9v-9A5.48,5.48,0,0,0,98.33,0H35.25a5.47,5.47,0,0,0-5.56,5.41v9H5.56A5.47,5.47,0,0,0,0,19.84V32.46c0,8,5.22,16.32,14.36,22.7a55.22,55.22,0,0,0,25.51,9.4c7.28,11.75,15.79,16.59,15.79,16.59V97.38H44.53c-8.19,0-14.84,4.67-14.84,12.63v2.7a2.75,2.75,0,0,0,2.78,2.71h68.65a2.75,2.75,0,0,0,2.78-2.71V110c0-8-6.66-12.63-14.84-12.63H77.92V81.15s8.51-4.84,15.8-16.59a55.1,55.1,0,0,0,25.51-9.4c9.11-6.37,14.34-14.64,14.35-22.68V19.83A5.46,5.46,0,0,0,128,14.43Zm-105,29c-5.66-4-8.19-8.38-8.19-11V28.85H29.73a79,79,0,0,0,3,19.44A38.05,38.05,0,0,1,23,43.46ZM46.28,30.19V34H44.07V23.24h4.18a4.91,4.91,0,0,1,2.13.44,3.33,3.33,0,0,1,1.41,1.26,3.49,3.49,0,0,1,.5,1.85,3.08,3.08,0,0,1-1.08,2.49,4.49,4.49,0,0,1-3,.91ZM57.23,51.26A3.11,3.11,0,0,1,56,52.54,3.93,3.93,0,0,1,54,53a4.1,4.1,0,0,1-1.81-.4,3.22,3.22,0,0,1-1.31-1.1,3.08,3.08,0,0,1-.51-1.63h2.11a1.6,1.6,0,0,0,.46,1,1.48,1.48,0,0,0,1.05.37,1.3,1.3,0,0,0,1.12-.52,2.42,2.42,0,0,0,.39-1.47,2,2,0,0,0-.45-1.4,1.64,1.64,0,0,0-1.28-.49,1.89,1.89,0,0,0-1.23.4l-.2.19-1.7-.42.62-5.45h6v1.77H53.05l-.27,2.31a3.41,3.41,0,0,1,1.62-.4,3.07,3.07,0,0,1,2.4,1,3.79,3.79,0,0,1,.87,2.66A3.93,3.93,0,0,1,57.23,51.26ZM58.15,28a5.75,5.75,0,0,0-.77-.06,1.56,1.56,0,0,0-1.58.81V34H53.67V26h2l.06.95a2,2,0,0,1,1.78-1.1,2.07,2.07,0,0,1,.66.1Zm3.27,6H59.28V26h2.14Zm-.2-9.25a1.2,1.2,0,0,1-.87.31,1.18,1.18,0,0,1-.86-.31,1,1,0,0,1-.33-.8,1.07,1.07,0,0,1,.32-.79,1.38,1.38,0,0,1,1.74,0,1.12,1.12,0,0,1,0,1.59ZM62.62,26H64.9l1.32,2.38L67.56,26h2.28l-2.27,3.91L69.93,34H67.65l-1.43-2.51L64.81,34h-2.3l2.37-4.07ZM74.31,52.84H72.09V49.91l.22-5.07-2.89,8H67.9l-2.89-8,.22,5.06v2.93H63V42.11h2.89l2.75,7.78,2.75-7.78h2.9ZM75.14,33a4.93,4.93,0,0,1-.85-3.08,4.76,4.76,0,0,1,.84-3,2.71,2.71,0,0,1,2.29-1.11,2.45,2.45,0,0,1,1.92.87V22.65h2.14V34H79.56l-.11-.85a2.51,2.51,0,0,1-2,1A2.71,2.71,0,0,1,75.14,33Zm3.69,12.85a3.45,3.45,0,0,0,1.2.69,13.86,13.86,0,0,1,1.45.67,4,4,0,0,1,1,.71,2.73,2.73,0,0,1,.6.9,3.22,3.22,0,0,1,.2,1.17,2.76,2.76,0,0,1-.78,2,3.41,3.41,0,0,1-2.15.92v1.47H79.14V53a3.58,3.58,0,0,1-2.35-1.08A3.45,3.45,0,0,1,76,49.47H78.1a2,2,0,0,0,.41,1.35,1.54,1.54,0,0,0,1.2.47,1.49,1.49,0,0,0,1-.35,1.18,1.18,0,0,0,.37-.92,1.33,1.33,0,0,0-.33-1,3.11,3.11,0,0,0-1.14-.66,15,15,0,0,1-1.39-.61,4.09,4.09,0,0,1-1-.68,2.81,2.81,0,0,1-.65-.91A3.17,3.17,0,0,1,76.37,45a2.77,2.77,0,0,1,.8-2A3.35,3.35,0,0,1,79.28,42V40.4h1.18V42a3.12,3.12,0,0,1,2.05,1.09,3.58,3.58,0,0,1,.73,2.34H81.11a2,2,0,0,0-.36-1.32,1.23,1.23,0,0,0-1-.44,1.26,1.26,0,0,0-.94.34,1.32,1.32,0,0,0-.33,1A1.25,1.25,0,0,0,78.83,45.86ZM90.09,30.68H85a2,2,0,0,0,.63,1.25,1.84,1.84,0,0,0,1.31.48,2.29,2.29,0,0,0,1.93-.9l1,1.18a3.22,3.22,0,0,1-1.3,1.05,4.18,4.18,0,0,1-1.82.38A3.92,3.92,0,0,1,84,33.05a3.83,3.83,0,0,1-1.11-2.87V30a4.82,4.82,0,0,1,.47-2.15,3.45,3.45,0,0,1,1.31-1.46,3.73,3.73,0,0,1,1.95-.51,3.32,3.32,0,0,1,2.58,1,4.24,4.24,0,0,1,.94,2.93Zm28.65,1.78c0,3.63-4.1,8.14-8.19,11a38.18,38.18,0,0,1-9.69,4.83,79,79,0,0,0,3-19.44h14.91Z"/><path class="cls-3" d="M52.29,26.79a3.49,3.49,0,0,0-.5-1.85,3.33,3.33,0,0,0-1.41-1.26,4.91,4.91,0,0,0-2.13-.44H44.07V34h2.21V30.19h1.94a4.49,4.49,0,0,0,3-.91A3.08,3.08,0,0,0,52.29,26.79ZM49.59,28a2,2,0,0,1-1.34.41h-2V25h2a1.65,1.65,0,0,1,1.75,1.78A1.5,1.5,0,0,1,49.59,28Z"/><path class="cls-3" d="M55.74,27,55.68,26h-2v8H55.8V28.75a1.56,1.56,0,0,1,1.58-.81,5.75,5.75,0,0,1,.77.06l0-2.05a2.07,2.07,0,0,0-.66-.1A2,2,0,0,0,55.74,27Z"/><path class="cls-3" d="M60.35,22.83a1.21,1.21,0,0,0-.87.31,1.07,1.07,0,0,0-.32.79,1,1,0,0,0,.33.8,1.18,1.18,0,0,0,.86.31,1.2,1.2,0,0,0,.87-.31,1.12,1.12,0,0,0,0-1.59A1.21,1.21,0,0,0,60.35,22.83Z"/><rect class="cls-3" x="59.28" y="26" width="2.14" height="7.98"/><polygon class="cls-3" points="64.81 33.98 66.22 31.47 67.65 33.98 69.93 33.98 67.56 29.91 69.84 26 67.56 26 66.22 28.38 64.9 26 62.62 26 64.88 29.91 62.51 33.98 64.81 33.98"/><path class="cls-3" d="M79.45,33.13l.11.85h1.92V22.65H79.34v4.07a2.45,2.45,0,0,0-1.92-.87A2.71,2.71,0,0,0,75.13,27a4.76,4.76,0,0,0-.84,3A4.93,4.93,0,0,0,75.14,33a2.71,2.71,0,0,0,2.26,1.11A2.51,2.51,0,0,0,79.45,33.13Zm-2.64-1.32a3.17,3.17,0,0,1-.39-1.72c0-1.67.52-2.51,1.54-2.51a1.4,1.4,0,0,1,1.38.84v3.15a1.42,1.42,0,0,1-1.39.84A1.27,1.27,0,0,1,76.81,31.81Z"/><path class="cls-3" d="M86.57,25.85a3.73,3.73,0,0,0-1.95.51,3.45,3.45,0,0,0-1.31,1.46A4.82,4.82,0,0,0,82.84,30v.21A3.83,3.83,0,0,0,84,33.05a3.92,3.92,0,0,0,2.85,1.07,4.18,4.18,0,0,0,1.82-.38,3.22,3.22,0,0,0,1.3-1.05l-1-1.18a2.29,2.29,0,0,1-1.93.9,1.84,1.84,0,0,1-1.31-.48A2,2,0,0,1,85,30.68h5.09v-.87a4.24,4.24,0,0,0-.94-2.93A3.32,3.32,0,0,0,86.57,25.85ZM88,29.23H85a2.18,2.18,0,0,1,.5-1.23,1.32,1.32,0,0,1,1-.43,1.39,1.39,0,0,1,1,.39,1.6,1.6,0,0,1,.38,1.1Z"/><path class="cls-3" d="M54.4,45.79a3.41,3.41,0,0,0-1.62.4l.27-2.31h4.27V42.11h-6l-.62,5.45,1.7.42.2-.19a1.89,1.89,0,0,1,1.23-.4,1.64,1.64,0,0,1,1.28.49,2,2,0,0,1,.45,1.4,2.42,2.42,0,0,1-.39,1.47,1.3,1.3,0,0,1-1.12.52A1.48,1.48,0,0,1,53,50.9a1.6,1.6,0,0,1-.46-1H50.41a3.08,3.08,0,0,0,.51,1.63,3.22,3.22,0,0,0,1.31,1.1A4.1,4.1,0,0,0,54,53,3.93,3.93,0,0,0,56,52.54a3.11,3.11,0,0,0,1.26-1.28,3.93,3.93,0,0,0,.44-1.86,3.79,3.79,0,0,0-.87-2.66A3.07,3.07,0,0,0,54.4,45.79Z"/><polygon class="cls-3" points="68.67 49.89 65.91 42.1 63.02 42.1 63.02 52.84 65.23 52.84 65.23 49.91 65.01 44.85 67.9 52.84 69.42 52.84 72.31 44.84 72.09 49.91 72.09 52.84 74.31 52.84 74.31 42.1 71.41 42.1 68.67 49.89"/><path class="cls-3" d="M79.77,43.67a1.23,1.23,0,0,1,1,.44,2,2,0,0,1,.36,1.32h2.13a3.58,3.58,0,0,0-.73-2.34A3.12,3.12,0,0,0,80.46,42V40.4H79.28V42a3.35,3.35,0,0,0-2.11.93,2.77,2.77,0,0,0-.8,2,3.17,3.17,0,0,0,.23,1.25,2.81,2.81,0,0,0,.65.91,4.09,4.09,0,0,0,1,.68,15,15,0,0,0,1.39.61,3.11,3.11,0,0,1,1.14.66,1.33,1.33,0,0,1,.33,1,1.18,1.18,0,0,1-.37.92,1.49,1.49,0,0,1-1,.35,1.54,1.54,0,0,1-1.2-.47,2,2,0,0,1-.41-1.35H76a3.45,3.45,0,0,0,.82,2.42A3.58,3.58,0,0,0,79.14,53v1.46h1.17V53A3.41,3.41,0,0,0,82.46,52a2.76,2.76,0,0,0,.78-2,3.22,3.22,0,0,0-.2-1.17,2.73,2.73,0,0,0-.6-.9,4,4,0,0,0-1-.71A13.86,13.86,0,0,0,80,46.55a3.45,3.45,0,0,1-1.2-.69,1.25,1.25,0,0,1-.33-.9,1.32,1.32,0,0,1,.33-1A1.26,1.26,0,0,1,79.77,43.67Z"/></g></g></svg>