<svg xmlns="http://www.w3.org/2000/svg" viewBox="0 0 170.75 147.53"><defs><style>.cls-1{fill:none;}.cls-2{fill:#4aa69d;}.cls-3{fill:#fff;}</style></defs><title>21_3_fr</title><g id="Layer_2" data-name="Layer 2"><g id="Layer_1-2" data-name="Layer 1"><path class="cls-1" d="M19,36.88v4.61c0,3.34,3.23,9,10.47,14.06A48,48,0,0,0,41.8,61.72,100.68,100.68,0,0,1,38,36.88Z"/><path class="cls-1" d="M128.93,61.72a48.5,48.5,0,0,0,12.39-6.17c5.21-3.66,10.46-9.42,10.46-14.06V36.88H132.72A101.17,101.17,0,0,1,128.93,61.72Z"/><path class="cls-2" d="M73.08,54.64a1.75,1.75,0,0,0-1.61.84,5.38,5.38,0,0,0-.55,2.62v3.78a5.93,5.93,0,0,0,.52,2.83,1.77,1.77,0,0,0,1.66.92,1.74,1.74,0,0,0,1.63-.89A5.81,5.81,0,0,0,75.25,62V58.34a5.67,5.67,0,0,0-.53-2.81A1.78,1.78,0,0,0,73.08,54.64Z"/><path class="cls-2" d="M163.64,18.44H132.81V6.92A7,7,0,0,0,125.69,0H45.06a7,7,0,0,0-7.12,6.92V18.44H7.11A7,7,0,0,0,0,25.35V41.51c0,10.28,6.67,20.85,18.35,29A70.72,70.72,0,0,0,51,82.53c9.31,15,20.19,21.2,20.19,21.2v20.75H56.92c-10.47,0-19,6-19,16.14v3.45a3.52,3.52,0,0,0,3.56,3.46h87.76a3.52,3.52,0,0,0,3.55-3.46v-3.45c0-10.18-8.51-16.14-19-16.14H99.61V103.73s10.88-6.19,20.18-21.2a70.47,70.47,0,0,0,32.61-12c11.65-8.15,18.35-18.73,18.35-29V25.36A7,7,0,0,0,163.64,18.44ZM29.44,55.55C22.2,50.48,19,44.83,19,41.49V36.88H38a100.68,100.68,0,0,0,3.8,24.84A48,48,0,0,1,29.44,55.55Zm76.11-20.8a6,6,0,0,1,.58-2.7,4.29,4.29,0,0,1,1.65-1.84,4.67,4.67,0,0,1,2.45-.64,4.12,4.12,0,0,1,3.23,1.3,5.24,5.24,0,0,1,1.19,3.67v1.1h-6.39a2.48,2.48,0,0,0,.79,1.57,2.33,2.33,0,0,0,1.65.6,2.89,2.89,0,0,0,2.42-1.13l1.31,1.48a4,4,0,0,1-1.63,1.33,5.29,5.29,0,0,1-2.28.47,4.94,4.94,0,0,1-3.59-1.35,4.81,4.81,0,0,1-1.38-3.6Zm-36.66-5h2.52l.08,1.2a2.48,2.48,0,0,1,2.23-1.38,2.73,2.73,0,0,1,.83.12l0,2.58a7.41,7.41,0,0,0-1-.08,2,2,0,0,0-2,1v6.56H68.89Zm-6,38.15H59.75V56l-3.67,1.14v-2.5l6.43-2.31h.33Zm3-34A5.69,5.69,0,0,1,62,35H59.6v4.75H56.82V26.29h5.26a6.11,6.11,0,0,1,2.68.55,4.13,4.13,0,0,1,1.77,1.58,4.37,4.37,0,0,1,.62,2.33A3.87,3.87,0,0,1,65.8,33.88Zm12.53,27.6A7.87,7.87,0,0,1,77,66.41a5.34,5.34,0,0,1-7.79,0,7.68,7.68,0,0,1-1.37-4.8V58.78a7.78,7.78,0,0,1,1.35-4.94,5.34,5.34,0,0,1,7.77,0,7.63,7.63,0,0,1,1.37,4.79Zm.3-21.7H75.94v-10h2.69Zm-.25-11.62a1.53,1.53,0,0,1-1.09.39,1.52,1.52,0,0,1-1.09-.39,1.33,1.33,0,0,1-.41-1,1.31,1.31,0,0,1,.4-1,1.52,1.52,0,0,1,1.1-.39,1.5,1.5,0,0,1,1.09.39,1.41,1.41,0,0,1,0,2Zm4.51,11.62H80l3-5.11-2.85-4.92H83l1.64,3,1.69-3H89.2l-2.85,4.92,3,5.11H86.45l-1.79-3.15ZM102.52,67.9H99.31V63.66l.32-7.33L95.44,67.9h-2.2L89.06,56.34l.32,7.32V67.9h-3.2V52.37h4.18l4,11.27,4-11.27h4.2Zm1.31-28.12h-2.42l-.13-1.07A3.11,3.11,0,0,1,98.71,40a3.39,3.39,0,0,1-2.84-1.39,6.26,6.26,0,0,1-1.07-3.88,6,6,0,0,1,1-3.73,3.4,3.4,0,0,1,2.88-1.39,3.08,3.08,0,0,1,2.42,1.09V25.55h2.68Zm5.22,18a5,5,0,0,0,1.74,1,22,22,0,0,1,2.1,1,6,6,0,0,1,1.38,1,4,4,0,0,1,.87,1.3,4.5,4.5,0,0,1,.3,1.71,4,4,0,0,1-1.14,2.94,4.93,4.93,0,0,1-3.11,1.33v2.12H109.5V68.08a5.1,5.1,0,0,1-3.39-1.55,5,5,0,0,1-1.2-3.5H108a2.83,2.83,0,0,0,.6,1.94,2.19,2.19,0,0,0,1.74.68,2.12,2.12,0,0,0,1.48-.49,1.75,1.75,0,0,0,.54-1.34,2,2,0,0,0-.48-1.4,4.47,4.47,0,0,0-1.65-1,18.86,18.86,0,0,1-2-.87,6.37,6.37,0,0,1-1.45-1,4,4,0,0,1-.94-1.32,4.45,4.45,0,0,1-.33-1.8,4,4,0,0,1,1.15-3,4.87,4.87,0,0,1,3.06-1.35V49.91h1.7v2.31a4.48,4.48,0,0,1,3,1.58,5.18,5.18,0,0,1,1.07,3.38h-3.09a2.94,2.94,0,0,0-.52-1.91,2,2,0,0,0-2.77-.14,1.89,1.89,0,0,0-.48,1.37A1.78,1.78,0,0,0,109.05,57.8Zm42.73-16.31c0,4.64-5.25,10.4-10.46,14.06a48.5,48.5,0,0,1-12.39,6.17,101.17,101.17,0,0,0,3.79-24.84h19.06Z"/><path class="cls-2" d="M112,33.6a2,2,0,0,0-.48-1.38,1.91,1.91,0,0,0-2.61.05,2.76,2.76,0,0,0-.63,1.54H112Z"/><path class="cls-2" d="M62.15,28.54H59.6v4.23h2.48a2.49,2.49,0,0,0,1.69-.51,1.91,1.91,0,0,0,.57-1.49,2.22,2.22,0,0,0-.58-1.6A2.15,2.15,0,0,0,62.15,28.54Z"/><path class="cls-2" d="M99.41,31.75c-1.29,0-1.93,1-1.93,3.14A3.93,3.93,0,0,0,98,37.05a1.58,1.58,0,0,0,1.42.76,1.8,1.8,0,0,0,1.76-1.05v-4A1.79,1.79,0,0,0,99.41,31.75Z"/><path class="cls-3" d="M64.76,26.84a6.11,6.11,0,0,0-2.68-.55H56.82V39.78H59.6V35H62a5.69,5.69,0,0,0,3.76-1.15,3.87,3.87,0,0,0,1.35-3.13,4.37,4.37,0,0,0-.62-2.33A4.13,4.13,0,0,0,64.76,26.84Zm-1,5.42a2.49,2.49,0,0,1-1.69.51H59.6V28.54h2.55a2.15,2.15,0,0,1,1.61.63,2.22,2.22,0,0,1,.58,1.6A1.91,1.91,0,0,1,63.77,32.26Z"/><path class="cls-3" d="M71.56,33.22a2,2,0,0,1,2-1,7.41,7.41,0,0,1,1,.08l0-2.58a2.73,2.73,0,0,0-.83-.12A2.48,2.48,0,0,0,71.49,31l-.08-1.2H68.89v10h2.67Z"/><path class="cls-3" d="M77.29,25.78a1.52,1.52,0,0,0-1.1.39,1.31,1.31,0,0,0-.4,1,1.33,1.33,0,0,0,.41,1,1.52,1.52,0,0,0,1.09.39,1.53,1.53,0,0,0,1.09-.39,1.41,1.41,0,0,0,0-2A1.5,1.5,0,0,0,77.29,25.78Z"/><rect class="cls-3" x="75.94" y="29.75" width="2.69" height="10.02"/><polygon class="cls-3" points="89.32 39.78 86.35 34.66 89.2 29.75 86.34 29.75 84.66 32.75 83 29.75 80.13 29.75 82.98 34.66 80 39.78 82.89 39.78 84.66 36.63 86.45 39.78 89.32 39.78"/><path class="cls-3" d="M101.15,30.66a3.08,3.08,0,0,0-2.42-1.09A3.4,3.4,0,0,0,95.85,31a6,6,0,0,0-1,3.73,6.26,6.26,0,0,0,1.07,3.88A3.39,3.39,0,0,0,98.71,40a3.11,3.11,0,0,0,2.57-1.25l.13,1.07h2.42V25.55h-2.68Zm0,6.1a1.8,1.8,0,0,1-1.76,1.05A1.58,1.58,0,0,1,98,37.05a3.93,3.93,0,0,1-.49-2.16c0-2.1.64-3.14,1.93-3.14a1.79,1.79,0,0,1,1.74,1Z"/><path class="cls-3" d="M110.52,40a5.29,5.29,0,0,0,2.28-.47,4,4,0,0,0,1.63-1.33l-1.31-1.48a2.89,2.89,0,0,1-2.42,1.13,2.33,2.33,0,0,1-1.65-.6,2.48,2.48,0,0,1-.79-1.57h6.39v-1.1a5.24,5.24,0,0,0-1.19-3.67,4.12,4.12,0,0,0-3.23-1.3,4.67,4.67,0,0,0-2.45.64,4.29,4.29,0,0,0-1.65,1.84,6,6,0,0,0-.58,2.7V35a4.81,4.81,0,0,0,1.38,3.6A4.94,4.94,0,0,0,110.52,40Zm-1.6-7.69a1.91,1.91,0,0,1,2.61-.05A2,2,0,0,1,112,33.6v.21h-3.72A2.76,2.76,0,0,1,108.92,32.27Z"/><polygon class="cls-3" points="56.08 54.66 56.08 57.16 59.75 56.02 59.75 67.9 62.84 67.9 62.84 52.35 62.51 52.35 56.08 54.66"/><path class="cls-3" d="M73.08,52.16a4.69,4.69,0,0,0-3.89,1.68,7.78,7.78,0,0,0-1.35,4.94v2.86a7.68,7.68,0,0,0,1.37,4.8,5.34,5.34,0,0,0,7.79,0,7.87,7.87,0,0,0,1.33-4.93V58.62A7.63,7.63,0,0,0,77,53.83,4.71,4.71,0,0,0,73.08,52.16ZM75.25,62a5.81,5.81,0,0,1-.52,2.71,1.74,1.74,0,0,1-1.63.89,1.77,1.77,0,0,1-1.66-.92,5.93,5.93,0,0,1-.52-2.83V58.1a5.38,5.38,0,0,1,.55-2.62,1.75,1.75,0,0,1,1.61-.84,1.78,1.78,0,0,1,1.64.89,5.67,5.67,0,0,1,.53,2.81Z"/><polygon class="cls-3" points="94.35 63.64 90.36 52.37 86.18 52.37 86.18 67.9 89.38 67.9 89.38 63.66 89.06 56.34 93.24 67.9 95.44 67.9 99.63 56.33 99.31 63.66 99.31 67.9 102.52 67.9 102.52 52.37 98.32 52.37 94.35 63.64"/><path class="cls-3" d="M110.41,54.63a1.78,1.78,0,0,1,1.42.64,2.94,2.94,0,0,1,.52,1.91h3.09a5.18,5.18,0,0,0-1.07-3.38,4.48,4.48,0,0,0-3-1.58V49.91h-1.7v2.28a4.87,4.87,0,0,0-3.06,1.35,4,4,0,0,0-1.15,3,4.45,4.45,0,0,0,.33,1.8,4,4,0,0,0,.94,1.32,6.37,6.37,0,0,0,1.45,1,18.86,18.86,0,0,0,2,.87,4.47,4.47,0,0,1,1.65,1,2,2,0,0,1,.48,1.4,1.75,1.75,0,0,1-.54,1.34,2.12,2.12,0,0,1-1.48.49,2.19,2.19,0,0,1-1.74-.68A2.83,2.83,0,0,1,108,63h-3.08a5,5,0,0,0,1.2,3.5,5.1,5.1,0,0,0,3.39,1.55v2.11h1.69V68.07a4.93,4.93,0,0,0,3.11-1.33,4,4,0,0,0,1.14-2.94,4.5,4.5,0,0,0-.3-1.71,4,4,0,0,0-.87-1.3,6,6,0,0,0-1.38-1,22,22,0,0,0-2.1-1,5,5,0,0,1-1.74-1,1.78,1.78,0,0,1-.47-1.3,1.89,1.89,0,0,1,.48-1.37A1.8,1.8,0,0,1,110.41,54.63Z"/></g></g></svg>