<svg xmlns="http://www.w3.org/2000/svg" viewBox="0 0 170.75 147.53"><defs><style>.cls-1{fill:none;}.cls-2{fill:#4aa69d;}.cls-3{fill:#fff;}</style></defs><title>21_3</title><g id="Layer_2" data-name="Layer 2"><g id="Layer_1-2" data-name="Layer 1"><path class="cls-1" d="M19,36.88v4.61c0,3.34,3.23,9,10.47,14.06A48,48,0,0,0,41.8,61.72,100.68,100.68,0,0,1,38,36.88Z"/><path class="cls-1" d="M128.93,61.72a48.5,48.5,0,0,0,12.39-6.17c5.21-3.66,10.46-9.42,10.46-14.06V36.88H132.72A101.17,101.17,0,0,1,128.93,61.72Z"/><path class="cls-2" d="M62.22,35.15V38c1-.17,1.54-.62,1.54-1.34a1,1,0,0,0-.38-.8A4.85,4.85,0,0,0,62.22,35.15Z"/><path class="cls-2" d="M70,58.41H68.82v3.52h.83a2.71,2.71,0,0,0,1.73-.46A1.58,1.58,0,0,0,72,60.14a1.66,1.66,0,0,0-.48-1.31A2.27,2.27,0,0,0,70,58.41Z"/><path class="cls-2" d="M59.2,29.75a1.07,1.07,0,0,0,.35.82,3.78,3.78,0,0,0,1.12.66V28.57C59.69,28.71,59.2,29.1,59.2,29.75Z"/><path class="cls-2" d="M163.64,18.44H132.81V6.92A7,7,0,0,0,125.69,0H45.06a7,7,0,0,0-7.12,6.92V18.44H7.11A7,7,0,0,0,0,25.35V41.51c0,10.28,6.67,20.85,18.35,29A70.72,70.72,0,0,0,51,82.53c9.31,15,20.19,21.2,20.19,21.2v20.75H56.92c-10.47,0-19,6-19,16.14v3.45a3.52,3.52,0,0,0,3.56,3.46h87.76a3.52,3.52,0,0,0,3.55-3.46v-3.45c0-10.17-8.51-16.14-19-16.14H99.61V103.73s10.88-6.19,20.18-21.2a70.47,70.47,0,0,0,32.61-12c11.65-8.15,18.35-18.73,18.35-29V25.36A7,7,0,0,0,163.64,18.44ZM29.44,55.55C22.2,50.48,19,44.83,19,41.49V36.88H38a100.68,100.68,0,0,0,3.8,24.84A48,48,0,0,1,29.44,55.55Zm45-30.49h2.89V41.65H73.82v-9.6l0-1.58.06-1.72c-.58.58-1,1-1.21,1.15l-1.91,1.53L69.1,29.32ZM62.22,40.67V43H60.67V40.72a12.52,12.52,0,0,1-4.86-1v-3a13.51,13.51,0,0,0,2.38.86,12.16,12.16,0,0,0,2.48.44V34.54l-.76-.3a8.58,8.58,0,0,1-3.19-1.92,3.71,3.71,0,0,1-.93-2.57A3.36,3.36,0,0,1,57.08,27a6.55,6.55,0,0,1,3.59-1.29V24h1.55v1.69a13,13,0,0,1,4.7,1l-1.07,2.66a12.22,12.22,0,0,0-3.63-.89v3.35a17.85,17.85,0,0,1,3.15,1.47,4.37,4.37,0,0,1,1.37,1.38,3.41,3.41,0,0,1,.44,1.74,3.59,3.59,0,0,1-1.31,2.9A6.43,6.43,0,0,1,62.22,40.67ZM73.3,63a5.15,5.15,0,0,1-3.4,1H68.82V68.2H66.31V56.35H70.1a5,5,0,0,1,3.27.93,3.38,3.38,0,0,1,1.13,2.77A3.62,3.62,0,0,1,73.3,63Zm8.94-1.62a3,3,0,0,0-.73-.08,2.59,2.59,0,0,0-1.84.61,2.19,2.19,0,0,0-.66,1.7V68.2H76.54V59.14h1.87l.36,1.53h.13A3.43,3.43,0,0,1,80,59.44,2.83,2.83,0,0,1,81.59,59a3.85,3.85,0,0,1,.84.08Zm4.35,6.84H84.12V59.14h2.47Zm-.22-10.5a1.42,1.42,0,0,1-1,.32C84.47,58,84,57.61,84,56.8s.45-1.21,1.34-1.21,1.35.41,1.35,1.21A1.18,1.18,0,0,1,86.37,57.7Zm-3.55-18a11.42,11.42,0,0,1-1.46-6.36c0-2.93.48-5.09,1.42-6.48a5.52,5.52,0,0,1,8.71.1A11.42,11.42,0,0,1,93,33.36c0,2.89-.48,5-1.43,6.43a5.53,5.53,0,0,1-8.71-.07ZM95.56,68.2H88.4V66.74L92.6,61H88.65V59.14h6.76v1.61l-4.08,5.56h4.23Zm9.63-3.91H99.35a2.37,2.37,0,0,0,.63,1.64,2.16,2.16,0,0,0,1.63.59,6.46,6.46,0,0,0,1.55-.17,7.13,7.13,0,0,0,1.52-.54v1.91a5.8,5.8,0,0,1-1.38.49,9.17,9.17,0,0,1-1.8.15,4.69,4.69,0,0,1-3.42-1.2,4.59,4.59,0,0,1-1.23-3.42A5,5,0,0,1,98,60.22,4.06,4.06,0,0,1,101.14,59a4,4,0,0,1,3,1.1,4.13,4.13,0,0,1,1.06,3Zm8.7-22.64h-3.28V33.8c0-.37,0-.8,0-1.28s.07-1.77.16-3.86h-.11l-4.27,13h-3.22l-4-13h-.1c.14,2.64.22,4.41.22,5.29v7.72H96.15V25.06h4.79l3.93,12.69h.06l4.17-12.69h4.79Zm37.89-.16c0,4.64-5.25,10.4-10.46,14.06a48.5,48.5,0,0,1-12.39,6.17,101.17,101.17,0,0,0,3.79-24.84h19.06Z"/><path class="cls-2" d="M101.15,60.73a1.58,1.58,0,0,0-1.23.5,2.25,2.25,0,0,0-.51,1.41h3.47a2,2,0,0,0-.48-1.41A1.63,1.63,0,0,0,101.15,60.73Z"/><path class="cls-2" d="M87.15,27.64A1.84,1.84,0,0,0,85.38,29a12.8,12.8,0,0,0-.53,4.39,13,13,0,0,0,.52,4.37,1.85,1.85,0,0,0,3.55,0,12.6,12.6,0,0,0,.54-4.35A12.45,12.45,0,0,0,88.91,29,1.83,1.83,0,0,0,87.15,27.64Z"/><path class="cls-3" d="M66.74,34.72a4.37,4.37,0,0,0-1.37-1.38,17.85,17.85,0,0,0-3.15-1.47V28.52a12.22,12.22,0,0,1,3.63.89l1.07-2.66a13,13,0,0,0-4.7-1V24H60.67v1.73A6.55,6.55,0,0,0,57.08,27a3.36,3.36,0,0,0-1.29,2.71,3.71,3.71,0,0,0,.93,2.57,8.58,8.58,0,0,0,3.19,1.92l.76.3v3.51a12.16,12.16,0,0,1-2.48-.44,13.51,13.51,0,0,1-2.38-.86v3a12.52,12.52,0,0,0,4.86,1V43h1.55V40.67a6.43,6.43,0,0,0,3.65-1.31,3.59,3.59,0,0,0,1.31-2.9A3.41,3.41,0,0,0,66.74,34.72Zm-6.07-3.49a3.78,3.78,0,0,1-1.12-.66,1.07,1.07,0,0,1-.35-.82c0-.65.49-1,1.47-1.18ZM62.22,38V35.15a4.85,4.85,0,0,1,1.16.68,1,1,0,0,1,.38.8C63.76,37.35,63.25,37.8,62.22,38Z"/><path class="cls-3" d="M72.7,29.9c.22-.19.63-.57,1.21-1.15l-.06,1.72,0,1.58v9.6h3.51V25.06H74.44L69.1,29.32l1.69,2.11Z"/><path class="cls-3" d="M91.53,39.79c1-1.39,1.43-3.54,1.43-6.43A11.42,11.42,0,0,0,91.49,27a5.52,5.52,0,0,0-8.71-.1c-.94,1.39-1.42,3.55-1.42,6.48a11.42,11.42,0,0,0,1.46,6.36,5.53,5.53,0,0,0,8.71.07Zm-2.61-2.08a1.85,1.85,0,0,1-3.55,0,13,13,0,0,1-.52-4.37A12.8,12.8,0,0,1,85.38,29a1.84,1.84,0,0,1,3.53,0,12.45,12.45,0,0,1,.55,4.39A12.6,12.6,0,0,1,88.92,37.71Z"/><path class="cls-3" d="M104.93,37.75h-.06l-3.93-12.69H96.15V41.65H99.3V33.93c0-.88-.08-2.65-.22-5.29h.1l4,13h3.22l4.27-13h.11c-.09,2.09-.15,3.37-.16,3.86s0,.91,0,1.28v7.85h3.28V25.06H109.1Z"/><path class="cls-3" d="M70.1,56.35H66.31V68.2h2.51V64H69.9a5.15,5.15,0,0,0,3.4-1,3.62,3.62,0,0,0,1.2-2.93,3.38,3.38,0,0,0-1.13-2.77A5,5,0,0,0,70.1,56.35Zm1.28,5.12a2.71,2.71,0,0,1-1.73.46h-.83V58.41H70a2.27,2.27,0,0,1,1.51.42A1.66,1.66,0,0,1,72,60.14,1.58,1.58,0,0,1,71.38,61.47Z"/><path class="cls-3" d="M80,59.44a3.43,3.43,0,0,0-1.13,1.23h-.13l-.36-1.53H76.54V68.2H79V63.59a2.19,2.19,0,0,1,.66-1.7,2.59,2.59,0,0,1,1.84-.61,3,3,0,0,1,.73.08l.19-2.31a3.85,3.85,0,0,0-.84-.08A2.83,2.83,0,0,0,80,59.44Z"/><rect class="cls-3" x="84.12" y="59.14" width="2.47" height="9.06"/><path class="cls-3" d="M85.36,55.59c-.89,0-1.34.41-1.34,1.21S84.47,58,85.36,58a1.42,1.42,0,0,0,1-.32,1.18,1.18,0,0,0,.34-.9C86.71,56,86.26,55.59,85.36,55.59Z"/><polygon class="cls-3" points="95.41 60.75 95.41 59.14 88.65 59.14 88.65 61.03 92.6 61.03 88.4 66.74 88.4 68.2 95.56 68.2 95.56 66.31 91.33 66.31 95.41 60.75"/><path class="cls-3" d="M101.14,59A4.06,4.06,0,0,0,98,60.22a5,5,0,0,0-1.14,3.52,4.59,4.59,0,0,0,1.23,3.42,4.69,4.69,0,0,0,3.42,1.2,9.17,9.17,0,0,0,1.8-.15,5.8,5.8,0,0,0,1.38-.49V65.81a7.13,7.13,0,0,1-1.52.54,6.46,6.46,0,0,1-1.55.17,2.16,2.16,0,0,1-1.63-.59,2.37,2.37,0,0,1-.63-1.64h5.84v-1.2a4.13,4.13,0,0,0-1.06-3A4,4,0,0,0,101.14,59Zm-1.73,3.67a2.25,2.25,0,0,1,.51-1.41,1.58,1.58,0,0,1,1.23-.5,1.63,1.63,0,0,1,1.25.5,2,2,0,0,1,.48,1.41Z"/></g></g></svg>