<svg xmlns="http://www.w3.org/2000/svg" viewBox="0 0 207.92 179.65"><defs><style>.cls-1{fill:none;}.cls-2{fill:#d83374;}.cls-3{fill:#fff;}</style></defs><title>21_4_fr</title><g id="Layer_2" data-name="Layer 2"><g id="Layer_1-2" data-name="Layer 1"><path class="cls-1" d="M157,75.16a59.13,59.13,0,0,0,15.09-7.51c6.35-4.46,12.74-11.47,12.74-17.12V44.91H161.61A122.58,122.58,0,0,1,157,75.16Z"/><path class="cls-1" d="M23.1,44.91v5.62c0,4.07,3.94,10.94,12.75,17.12a58.88,58.88,0,0,0,15,7.51,122.58,122.58,0,0,1-4.62-30.25Z"/><path class="cls-2" d="M130.6,39.57a2,2,0,0,0-.48-1.39,1.75,1.75,0,0,0-1.32-.48,1.67,1.67,0,0,0-1.29.54,2.84,2.84,0,0,0-.64,1.54h3.73Z"/><path class="cls-2" d="M80.73,34.51H78.19v4.23h2.48a2.43,2.43,0,0,0,1.68-.52,1.86,1.86,0,0,0,.58-1.48,2.26,2.26,0,0,0-.58-1.6A2.18,2.18,0,0,0,80.73,34.51Z"/><path class="cls-2" d="M87.78,58.67a2.3,2.3,0,0,0-2.11,1.1A7,7,0,0,0,85,63.21v5a7.91,7.91,0,0,0,.68,3.72A2.57,2.57,0,0,0,90,72a7.71,7.71,0,0,0,.68-3.57V63.52a7.55,7.55,0,0,0-.69-3.7A2.35,2.35,0,0,0,87.78,58.67Z"/><path class="cls-2" d="M199.26,22.46H161.72v-14A8.52,8.52,0,0,0,153.05,0H54.87A8.53,8.53,0,0,0,46.2,8.42v14H8.66A8.52,8.52,0,0,0,0,30.88V50.53c0,12.52,8.12,25.4,22.34,35.33a86.06,86.06,0,0,0,39.71,14.63c11.34,18.28,24.58,25.82,24.58,25.82v25.27H69.31c-12.74,0-23.11,7.26-23.11,19.65v4.21a4.29,4.29,0,0,0,4.33,4.21H157.39a4.29,4.29,0,0,0,4.33-4.21v-4.21c0-12.39-10.36-19.65-23.11-19.65H121.29V126.31s13.25-7.54,24.58-25.82a85.77,85.77,0,0,0,39.71-14.63c14.19-9.93,22.34-22.81,22.34-35.33V30.88A8.52,8.52,0,0,0,199.26,22.46ZM35.85,67.65C27,61.47,23.1,54.6,23.1,50.53V44.91H46.28A122.58,122.58,0,0,0,50.9,75.16,58.88,58.88,0,0,1,35.85,67.65Zm78.58-30.72a3.42,3.42,0,0,1,2.88-1.39,3.07,3.07,0,0,1,2.42,1.09V31.52h2.69V45.75H120l-.13-1.07a3.15,3.15,0,0,1-2.58,1.25,3.41,3.41,0,0,1-2.84-1.39,6.26,6.26,0,0,1-1.07-3.88A6,6,0,0,1,114.43,36.93Zm-27-1.21H90l.07,1.2a2.48,2.48,0,0,1,2.24-1.38,2.82,2.82,0,0,1,.83.12l0,2.57a7,7,0,0,0-1-.07,1.94,1.94,0,0,0-2,1v6.56H87.47ZM77.54,73.09a6,6,0,0,1-2.39,2.43,7.55,7.55,0,0,1-3.68.86A7.9,7.9,0,0,1,68,75.63a6.05,6.05,0,0,1-2.51-2.11,5.72,5.72,0,0,1-1-3.1h4a3,3,0,0,0,.89,2,2.78,2.78,0,0,0,2,.71,2.51,2.51,0,0,0,2.12-1,4.61,4.61,0,0,0,.74-2.79,3.81,3.81,0,0,0-.86-2.67A3.12,3.12,0,0,0,71,65.74a3.5,3.5,0,0,0-2.34.75l-.4.37-3.22-.8,1.17-10.38H77.7v3.38H69.58l-.51,4.39a6.4,6.4,0,0,1,3.08-.77,5.89,5.89,0,0,1,4.57,1.81,7.22,7.22,0,0,1,1.65,5.06A7.46,7.46,0,0,1,77.54,73.09ZM78.19,41v4.76H75.41V32.26h5.26a6.1,6.1,0,0,1,2.67.55,4.07,4.07,0,0,1,1.77,1.58,4.38,4.38,0,0,1,.63,2.33,3.89,3.89,0,0,1-1.36,3.13A5.69,5.69,0,0,1,80.62,41ZM94.7,67.66a10.35,10.35,0,0,1-1.76,6.48,7,7,0,0,1-10.23,0,10,10,0,0,1-1.81-6.31V64.11q0-4.28,1.77-6.5a7,7,0,0,1,10.22,0A10,10,0,0,1,94.7,63.9Zm2.52-21.91H94.53v-10h2.69ZM97,34.13a1.52,1.52,0,0,1-1.09.39,1.53,1.53,0,0,1-1.09-.39,1.33,1.33,0,0,1-.41-1,1.35,1.35,0,0,1,.4-1,1.52,1.52,0,0,1,1.1-.39,1.54,1.54,0,0,1,1.1.39,1.31,1.31,0,0,1,.4,1A1.29,1.29,0,0,1,97,34.13Zm4.51,11.62H98.59l3-5.12-2.84-4.91h2.87l1.65,3,1.68-3h2.87l-2.86,4.91,3,5.12H105l-1.79-3.15Zm25,30.35h-4.23V70.52l.42-9.64L117.19,76.1H114.3l-5.49-15.2.42,9.62V76.1H105V55.68h5.5l5.24,14.81L121,55.68h5.53Zm-1-31.52a4.78,4.78,0,0,1-1.39-3.6v-.26a6,6,0,0,1,.58-2.7,4.31,4.31,0,0,1,1.66-1.84,4.63,4.63,0,0,1,2.44-.64,4.18,4.18,0,0,1,3.24,1.29,5.27,5.27,0,0,1,1.18,3.68v1.1h-6.38a2.42,2.42,0,0,0,.78,1.57,2.32,2.32,0,0,0,1.65.59,2.89,2.89,0,0,0,2.42-1.12L133,44.13a4.2,4.2,0,0,1-1.63,1.33,5.5,5.5,0,0,1-2.28.47A4.92,4.92,0,0,1,125.52,44.58Zm9.57,18.24a6.86,6.86,0,0,0,2.29,1.32,23.33,23.33,0,0,1,2.76,1.27A7.6,7.6,0,0,1,142,66.75a5.13,5.13,0,0,1,1.14,1.71,5.94,5.94,0,0,1,.39,2.24A5.24,5.24,0,0,1,142,74.57a6.46,6.46,0,0,1-4.09,1.75v2.8h-2.23V76.34a6.77,6.77,0,0,1-4.45-2,6.55,6.55,0,0,1-1.58-4.61h4a3.72,3.72,0,0,0,.79,2.56,2.91,2.91,0,0,0,2.28.89,2.82,2.82,0,0,0,1.95-.65,2.26,2.26,0,0,0,.72-1.76,2.58,2.58,0,0,0-.64-1.83,5.83,5.83,0,0,0-2.17-1.26A24.74,24.74,0,0,1,134,66.5a8.7,8.7,0,0,1-1.9-1.3,5.5,5.5,0,0,1-1.23-1.74,5.86,5.86,0,0,1-.44-2.37,5.24,5.24,0,0,1,1.51-3.88,6.4,6.4,0,0,1,4-1.77v-3h2.24v3a5.92,5.92,0,0,1,3.89,2.07,6.85,6.85,0,0,1,1.4,4.45h-4.05a3.8,3.8,0,0,0-.7-2.51,2.28,2.28,0,0,0-1.86-.84,2.39,2.39,0,0,0-1.78.65,2.51,2.51,0,0,0-.63,1.81A2.38,2.38,0,0,0,135.09,62.82Zm49.73-12.29c0,5.65-6.39,12.66-12.74,17.12A59.13,59.13,0,0,1,157,75.16a122.58,122.58,0,0,0,4.62-30.25h23.21Z"/><path class="cls-2" d="M118,43.77a1.79,1.79,0,0,0,1.75-1.05v-4a1.76,1.76,0,0,0-1.73-1c-1.29,0-1.94,1-1.94,3.15a3.93,3.93,0,0,0,.49,2.16A1.6,1.6,0,0,0,118,43.77Z"/><path class="cls-3" d="M85.74,36.72a4.38,4.38,0,0,0-.63-2.33,4.07,4.07,0,0,0-1.77-1.58,6.1,6.1,0,0,0-2.67-.55H75.41V45.75h2.78V41h2.43a5.69,5.69,0,0,0,3.76-1.14A3.89,3.89,0,0,0,85.74,36.72Zm-3.39,1.5a2.43,2.43,0,0,1-1.68.52H78.19V34.51h2.54a2.18,2.18,0,0,1,1.62.63,2.26,2.26,0,0,1,.58,1.6A1.86,1.86,0,0,1,82.35,38.22Z"/><path class="cls-3" d="M90.15,39.19a1.94,1.94,0,0,1,2-1,7,7,0,0,1,1,.07l0-2.57a2.82,2.82,0,0,0-.83-.12,2.48,2.48,0,0,0-2.24,1.38L90,35.72H87.47v10h2.68Z"/><rect class="cls-3" x="94.53" y="35.72" width="2.69" height="10.02"/><path class="cls-3" d="M95.87,31.75a1.52,1.52,0,0,0-1.1.39,1.35,1.35,0,0,0-.4,1,1.33,1.33,0,0,0,.41,1,1.53,1.53,0,0,0,1.09.39A1.52,1.52,0,0,0,97,34.13a1.29,1.29,0,0,0,.41-1,1.31,1.31,0,0,0-.4-1A1.54,1.54,0,0,0,95.87,31.75Z"/><polygon class="cls-3" points="107.91 45.75 104.93 40.63 107.79 35.72 104.92 35.72 103.24 38.72 101.59 35.72 98.72 35.72 101.56 40.63 98.59 45.75 101.47 45.75 103.25 42.6 105.04 45.75 107.91 45.75"/><path class="cls-3" d="M117.29,45.93a3.15,3.15,0,0,0,2.58-1.25l.13,1.07h2.42V31.52h-2.69v5.11a3.07,3.07,0,0,0-2.42-1.09,3.42,3.42,0,0,0-2.88,1.39,6,6,0,0,0-1.05,3.73,6.26,6.26,0,0,0,1.07,3.88A3.41,3.41,0,0,0,117.29,45.93Zm.71-8.22a1.76,1.76,0,0,1,1.73,1v4A1.79,1.79,0,0,1,118,43.77a1.6,1.6,0,0,1-1.43-.75,3.93,3.93,0,0,1-.49-2.16C116.06,38.76,116.71,37.71,118,37.71Z"/><path class="cls-3" d="M133,44.13l-1.32-1.48a2.89,2.89,0,0,1-2.42,1.12,2.32,2.32,0,0,1-1.65-.59,2.42,2.42,0,0,1-.78-1.57h6.38v-1.1a5.27,5.27,0,0,0-1.18-3.68,4.18,4.18,0,0,0-3.24-1.29,4.63,4.63,0,0,0-2.44.64A4.31,4.31,0,0,0,124.71,38a6,6,0,0,0-.58,2.7V41a4.78,4.78,0,0,0,1.39,3.6,4.92,4.92,0,0,0,3.59,1.35,5.5,5.5,0,0,0,2.28-.47A4.2,4.2,0,0,0,133,44.13Zm-5.51-5.89a1.67,1.67,0,0,1,1.29-.54,1.75,1.75,0,0,1,1.32.48,2,2,0,0,1,.48,1.39v.21h-3.73A2.84,2.84,0,0,1,127.51,38.24Z"/><path class="cls-3" d="M72.15,62.68a6.4,6.4,0,0,0-3.08.77l.51-4.39H77.7V55.68H66.25L65.08,66.06l3.22.8.4-.37A3.5,3.5,0,0,1,71,65.74a3.12,3.12,0,0,1,2.42.92,3.81,3.81,0,0,1,.86,2.67,4.61,4.61,0,0,1-.74,2.79,2.51,2.51,0,0,1-2.12,1,2.78,2.78,0,0,1-2-.71,3,3,0,0,1-.89-2h-4a5.72,5.72,0,0,0,1,3.1A6.05,6.05,0,0,0,68,75.63a7.9,7.9,0,0,0,3.43.75,7.55,7.55,0,0,0,3.68-.86,6,6,0,0,0,2.39-2.43,7.46,7.46,0,0,0,.83-3.54,7.22,7.22,0,0,0-1.65-5.06A5.89,5.89,0,0,0,72.15,62.68Z"/><path class="cls-3" d="M87.78,55.4a6.18,6.18,0,0,0-5.11,2.21q-1.77,2.22-1.77,6.5v3.76a10,10,0,0,0,1.81,6.31,7,7,0,0,0,10.23,0,10.35,10.35,0,0,0,1.76-6.48V63.9a10,10,0,0,0-1.81-6.31A6.18,6.18,0,0,0,87.78,55.4Zm2.86,13A7.71,7.71,0,0,1,90,72a2.57,2.57,0,0,1-4.33,0A7.91,7.91,0,0,1,85,68.18v-5a7,7,0,0,1,.72-3.44,2.3,2.3,0,0,1,2.11-1.1A2.35,2.35,0,0,1,90,59.82a7.55,7.55,0,0,1,.69,3.7Z"/><polygon class="cls-3" points="115.76 70.49 110.52 55.68 105.02 55.68 105.02 76.1 109.23 76.1 109.23 70.52 108.81 60.9 114.3 76.1 117.19 76.1 122.7 60.88 122.28 70.52 122.28 76.1 126.51 76.1 126.51 55.68 120.98 55.68 115.76 70.49"/><path class="cls-3" d="M136.88,58.65a2.28,2.28,0,0,1,1.86.84,3.8,3.8,0,0,1,.7,2.51h4.05a6.85,6.85,0,0,0-1.4-4.45,5.92,5.92,0,0,0-3.89-2.07v-3H136v3a6.4,6.4,0,0,0-4,1.77,5.24,5.24,0,0,0-1.51,3.88,5.86,5.86,0,0,0,.44,2.37,5.5,5.5,0,0,0,1.23,1.74,8.7,8.7,0,0,0,1.9,1.3,24.74,24.74,0,0,0,2.64,1.14,5.83,5.83,0,0,1,2.17,1.26,2.58,2.58,0,0,1,.64,1.83,2.26,2.26,0,0,1-.72,1.76,2.82,2.82,0,0,1-1.95.65,2.91,2.91,0,0,1-2.28-.89,3.72,3.72,0,0,1-.79-2.56h-4a6.55,6.55,0,0,0,1.58,4.61,6.77,6.77,0,0,0,4.45,2v2.78h2.23v-2.8A6.46,6.46,0,0,0,142,74.57a5.24,5.24,0,0,0,1.49-3.87,5.94,5.94,0,0,0-.39-2.24A5.13,5.13,0,0,0,142,66.75a7.6,7.6,0,0,0-1.82-1.34,23.33,23.33,0,0,0-2.76-1.27,6.86,6.86,0,0,1-2.29-1.32,2.38,2.38,0,0,1-.62-1.71,2.51,2.51,0,0,1,.63-1.81A2.39,2.39,0,0,1,136.88,58.65Z"/></g></g></svg>