<svg xmlns="http://www.w3.org/2000/svg" viewBox="0 0 207.92 179.65"><defs><style>.cls-1{fill:none;}.cls-2{fill:#d83374;}.cls-3{fill:#fff;}</style></defs><title>21_4</title><g id="Layer_2" data-name="Layer 2"><g id="Layer_1-2" data-name="Layer 1"><path class="cls-1" d="M23.1,44.91v5.62c0,4.07,3.94,10.94,12.75,17.12a58.88,58.88,0,0,0,15,7.51,122.58,122.58,0,0,1-4.62-30.25Z"/><path class="cls-1" d="M157,75.16a59.13,59.13,0,0,0,15.09-7.51c6.35-4.46,12.74-11.47,12.74-17.12V44.91H161.61A122.58,122.58,0,0,1,157,75.16Z"/><path class="cls-2" d="M76.71,45v3.23q1.77-.3,1.77-1.53a1.18,1.18,0,0,0-.44-.92A6,6,0,0,0,76.71,45Z"/><path class="cls-2" d="M73.27,38.83a1.24,1.24,0,0,0,.39.94,4.55,4.55,0,0,0,1.28.76V37.48C73.82,37.65,73.27,38.1,73.27,38.83Z"/><path class="cls-2" d="M88.55,69.2H87.41v3.51h.82A2.81,2.81,0,0,0,90,72.26a1.93,1.93,0,0,0,.09-2.64A2.25,2.25,0,0,0,88.55,69.2Z"/><path class="cls-2" d="M199.26,22.46H161.72v-14A8.52,8.52,0,0,0,153.05,0H54.87A8.53,8.53,0,0,0,46.2,8.42v14H8.66A8.52,8.52,0,0,0,0,30.88V50.53c0,12.52,8.12,25.4,22.34,35.33a86.06,86.06,0,0,0,39.71,14.63c11.34,18.28,24.58,25.82,24.58,25.82v25.27H69.31c-12.74,0-23.11,7.26-23.11,19.65v4.21a4.29,4.29,0,0,0,4.33,4.21H157.39a4.29,4.29,0,0,0,4.33-4.21v-4.21c0-12.39-10.36-19.65-23.11-19.65H121.29V126.31s13.25-7.54,24.58-25.82a85.77,85.77,0,0,0,39.71-14.63c14.19-9.93,22.34-22.81,22.34-35.33V30.88A8.52,8.52,0,0,0,199.26,22.46ZM35.85,67.65C27,61.47,23.1,54.6,23.1,50.53V44.91H46.28A122.58,122.58,0,0,0,50.9,75.16,58.88,58.88,0,0,1,35.85,67.65ZM84.94,48.21a10.74,10.74,0,0,0,2.39.88,10.44,10.44,0,0,0,2.58.35c2.44,0,3.67-1,3.67-3s-1.27-2.87-3.8-2.87a9.54,9.54,0,0,0-1.52.14,12.15,12.15,0,0,0-1.35.29l-1.59-.85L86,33.48H96.31v3.39H89.54l-.35,3.72.46-.09a9,9,0,0,1,2-.18A6.08,6.08,0,0,1,96,41.87a5.5,5.5,0,0,1,1.63,4.22,6.13,6.13,0,0,1-2,4.89,8.26,8.26,0,0,1-5.6,1.71,11,11,0,0,1-5.11-1Zm-4,1.61a7.51,7.51,0,0,1-4.18,1.5V54H74.94v-2.6a14.36,14.36,0,0,1-5.55-1.12V46.83a15.38,15.38,0,0,0,2.72,1,14.6,14.6,0,0,0,2.83.5v-4L74.07,44a9.87,9.87,0,0,1-3.64-2.2,4.24,4.24,0,0,1-1.07-2.94,3.84,3.84,0,0,1,1.47-3.09,7.48,7.48,0,0,1,4.11-1.47v-2h1.77v1.94a14.58,14.58,0,0,1,5.37,1.19l-1.22,3a14,14,0,0,0-4.15-1v3.83a19.59,19.59,0,0,1,3.6,1.68,4.88,4.88,0,0,1,1.57,1.57,3.93,3.93,0,0,1,.5,2A4.13,4.13,0,0,1,80.89,49.82Zm11,23.94a5.12,5.12,0,0,1-3.39,1H87.41V79H84.9V67.14h3.78a5,5,0,0,1,3.28.93,3.36,3.36,0,0,1,1.12,2.76A3.62,3.62,0,0,1,91.88,73.76Zm9-1.61a2.63,2.63,0,0,0-.73-.08,2.66,2.66,0,0,0-1.85.6,2.21,2.21,0,0,0-.66,1.7V79H95.12V69.93H97l.37,1.52h.12a3.37,3.37,0,0,1,1.14-1.23,2.82,2.82,0,0,1,1.56-.46,3.89,3.89,0,0,1,.83.07ZM105.18,79h-2.47V69.93h2.47ZM105,68.48a1.44,1.44,0,0,1-1,.32c-.9,0-1.35-.41-1.35-1.22s.45-1.2,1.35-1.2,1.34.4,1.34,1.2A1.19,1.19,0,0,1,105,68.48ZM101.8,50.23q-1.67-2.46-1.67-7.28c0-3.34.54-5.81,1.62-7.39a6.3,6.3,0,0,1,10,.11q1.68,2.49,1.68,7.28,0,5-1.62,7.36a5.66,5.66,0,0,1-5,2.38A5.58,5.58,0,0,1,101.8,50.23ZM114.14,79H107V77.53l4.2-5.72h-4V69.93H114v1.6l-4.09,5.57h4.23Zm9.64-3.92h-5.84a2.37,2.37,0,0,0,.62,1.65,2.22,2.22,0,0,0,1.64.59,7.08,7.08,0,0,0,1.55-.17,8.28,8.28,0,0,0,1.52-.55v1.92a6.16,6.16,0,0,1-1.39.48,8.4,8.4,0,0,1-1.8.16,4.68,4.68,0,0,1-3.42-1.21,4.58,4.58,0,0,1-1.23-3.42A5,5,0,0,1,116.57,71a4.05,4.05,0,0,1,3.15-1.24,4,4,0,0,1,3,1.09,4.16,4.16,0,0,1,1.07,3ZM137.3,52.43h-3.75v-9c0-.42,0-.91,0-1.47s.07-2,.18-4.4h-.12l-4.89,14.84h-3.68L120.5,37.56h-.12c.16,3,.25,5,.25,6.06v8.81H117v-19h5.48L127,48h.08l4.76-14.49h5.47Zm47.52-1.9c0,5.65-6.39,12.66-12.74,17.12A59.13,59.13,0,0,1,157,75.16a122.58,122.58,0,0,0,4.62-30.25h23.21Z"/><path class="cls-2" d="M106.74,36.42a2.1,2.1,0,0,0-2,1.52,14.65,14.65,0,0,0-.61,5,14.47,14.47,0,0,0,.61,5,2.07,2.07,0,0,0,2,1.51,2.12,2.12,0,0,0,2-1.53,14.48,14.48,0,0,0,.62-5,14.3,14.3,0,0,0-.63-5A2.12,2.12,0,0,0,106.74,36.42Z"/><path class="cls-2" d="M119.74,71.51a1.59,1.59,0,0,0-1.24.5,2.41,2.41,0,0,0-.51,1.42h3.47A2.06,2.06,0,0,0,121,72,1.6,1.6,0,0,0,119.74,71.51Z"/><path class="cls-3" d="M80.31,42.94a19.59,19.59,0,0,0-3.6-1.68V37.43a14,14,0,0,1,4.15,1l1.22-3a14.58,14.58,0,0,0-5.37-1.19V32.28H74.94v2a7.48,7.48,0,0,0-4.11,1.47,3.84,3.84,0,0,0-1.47,3.09,4.24,4.24,0,0,0,1.07,2.94A9.87,9.87,0,0,0,74.07,44l.87.33v4a14.6,14.6,0,0,1-2.83-.5,15.38,15.38,0,0,1-2.72-1v3.42a14.36,14.36,0,0,0,5.55,1.12V54h1.77V51.32a7.51,7.51,0,0,0,4.18-1.5,4.13,4.13,0,0,0,1.49-3.31,3.93,3.93,0,0,0-.5-2A4.88,4.88,0,0,0,80.31,42.94Zm-5.37-2.41a4.55,4.55,0,0,1-1.28-.76,1.24,1.24,0,0,1-.39-.94c0-.73.55-1.18,1.67-1.35Zm1.77,7.7V45a6,6,0,0,1,1.33.78,1.18,1.18,0,0,1,.44.92Q78.48,47.93,76.71,48.23Z"/><path class="cls-3" d="M95.65,51a6.13,6.13,0,0,0,2-4.89A5.5,5.5,0,0,0,96,41.87a6.08,6.08,0,0,0-4.37-1.55,9,9,0,0,0-2,.18l-.46.09.35-3.72h6.77V33.48H86l-.71,9.66,1.59.85a12.15,12.15,0,0,1,1.35-.29,9.54,9.54,0,0,1,1.52-.14q3.8,0,3.8,2.87c0,2-1.23,3-3.67,3a10.44,10.44,0,0,1-2.58-.35,10.74,10.74,0,0,1-2.39-.88v3.46a11,11,0,0,0,5.11,1A8.26,8.26,0,0,0,95.65,51Z"/><path class="cls-3" d="M111.76,50.31q1.62-2.39,1.62-7.36,0-4.79-1.68-7.28a6.3,6.3,0,0,0-10-.11c-1.08,1.58-1.62,4-1.62,7.39s.56,5.64,1.67,7.28a5.58,5.58,0,0,0,4.94,2.46A5.66,5.66,0,0,0,111.76,50.31Zm-3-2.38a2.12,2.12,0,0,1-2,1.53,2.07,2.07,0,0,1-2-1.51,14.47,14.47,0,0,1-.61-5,14.65,14.65,0,0,1,.61-5,2.1,2.1,0,0,1,4,0,14.3,14.3,0,0,1,.63,5A14.48,14.48,0,0,1,108.77,47.93Z"/><path class="cls-3" d="M127.07,48H127l-4.48-14.49H117v19h3.6V43.62c0-1-.09-3-.25-6.06h.12l4.56,14.87h3.68l4.89-14.84h.12c-.11,2.38-.17,3.85-.18,4.4s0,1,0,1.47v9h3.75v-19h-5.47Z"/><path class="cls-3" d="M88.68,67.14H84.9V79h2.51V74.77h1.08a5.12,5.12,0,0,0,3.39-1,3.62,3.62,0,0,0,1.2-2.93A3.36,3.36,0,0,0,92,68.07,5,5,0,0,0,88.68,67.14ZM90,72.26a2.81,2.81,0,0,1-1.74.45h-.82V69.2h1.14a2.25,2.25,0,0,1,1.51.42A1.93,1.93,0,0,1,90,72.26Z"/><path class="cls-3" d="M98.62,70.22a3.37,3.37,0,0,0-1.14,1.23h-.12L97,69.93H95.12V79h2.47V74.37a2.21,2.21,0,0,1,.66-1.7,2.66,2.66,0,0,1,1.85-.6,2.63,2.63,0,0,1,.73.08l.18-2.32a3.89,3.89,0,0,0-.83-.07A2.82,2.82,0,0,0,98.62,70.22Z"/><rect class="cls-3" x="102.71" y="69.93" width="2.47" height="9.06"/><path class="cls-3" d="M104,66.38q-1.35,0-1.35,1.2c0,.81.45,1.22,1.35,1.22a1.44,1.44,0,0,0,1-.32,1.19,1.19,0,0,0,.33-.9C105.29,66.78,104.84,66.38,104,66.38Z"/><polygon class="cls-3" points="114 71.53 114 69.93 107.24 69.93 107.24 71.81 111.19 71.81 106.99 77.53 106.99 78.98 114.14 78.98 114.14 77.1 109.91 77.1 114 71.53"/><path class="cls-3" d="M119.72,69.76A4.05,4.05,0,0,0,116.57,71a5,5,0,0,0-1.14,3.52,4.58,4.58,0,0,0,1.23,3.42,4.68,4.68,0,0,0,3.42,1.21,8.4,8.4,0,0,0,1.8-.16,6.16,6.16,0,0,0,1.39-.48V76.59a8.28,8.28,0,0,1-1.52.55,7.08,7.08,0,0,1-1.55.17,2.22,2.22,0,0,1-1.64-.59,2.37,2.37,0,0,1-.62-1.65h5.84v-1.2a4.16,4.16,0,0,0-1.07-3A4,4,0,0,0,119.72,69.76ZM118,73.43A2.41,2.41,0,0,1,118.5,72,1.79,1.79,0,0,1,121,72a2.06,2.06,0,0,1,.48,1.42Z"/></g></g></svg>