<svg xmlns="http://www.w3.org/2000/svg" xmlns:xlink="http://www.w3.org/1999/xlink" viewBox="0 0 93.93 93.94"><defs><style>.cls-1{fill:none;}.cls-2{clip-path:url(#clip-path);}.cls-3{fill:#3ab3c0;}</style><clipPath id="clip-path" transform="translate(0 0)"><rect class="cls-1" width="93.93" height="93.94"/></clipPath></defs><title>21_5</title><g id="Layer_2" data-name="Layer 2"><g id="Layer_1-2" data-name="Layer 1"><g class="cls-2"><path class="cls-3" d="M76.32,64.58H17.61a11.7,11.7,0,0,1-3.4-22.91l3.34-1L16,37.54a11.64,11.64,0,0,1,10.44-17c2.63,0,3.66.54,9.39,3.11-.54-5.81-.42-4.66-.59-6.05a11.72,11.72,0,1,1,23.44.45l-.53,5.6c5.18-2.33,6.47-3.11,9.39-3.11A11.64,11.64,0,0,1,78,37.54l-1.57,3.11,3.33,1a11.7,11.7,0,0,1-3.4,22.91M41.1,88.06,44,82.19V70.45H49.9V82.19l2.94,5.87ZM84.38,37.24a16.79,16.79,0,0,0,.75-5A17.63,17.63,0,0,0,67.52,14.68a17.38,17.38,0,0,0-3.14.28,17.62,17.62,0,0,0-34.83,0,17.27,17.27,0,0,0-3.13-.28A17.63,17.63,0,0,0,8.81,32.29a17.11,17.11,0,0,0,.74,5A17.44,17.44,0,0,0,0,52.84,17.63,17.63,0,0,0,17.61,70.45H38.16V80.81l-4.44,8.88a2.94,2.94,0,0,0,2.63,4.25H57.59a2.93,2.93,0,0,0,2.62-4.25l-4.44-8.88V70.45H76.32A17.63,17.63,0,0,0,93.93,52.84a17.44,17.44,0,0,0-9.55-15.6" transform="translate(0 0)"/></g></g></g></svg>