<svg xmlns="http://www.w3.org/2000/svg" viewBox="0 0 67.65 84.17"><defs><style>.cls-1{fill:#ffca05;}</style></defs><title>21_6</title><g id="Layer_2" data-name="Layer 2"><g id="Layer_1-2" data-name="Layer 1"><path class="cls-1" d="M12.68,21V3.94A4.1,4.1,0,0,1,16.91,0a4.09,4.09,0,0,1,4.23,3.94V21Zm33.83,0V3.94a4.24,4.24,0,0,1,8.45,0V21ZM59.19,36.82H53.55v7.89c0,10.18-8.82,18.42-19.73,18.42S14.09,54.89,14.09,44.71V36.82H8.46V31.56H59.19Zm4.23-13.15H4.23A4.1,4.1,0,0,0,0,27.62V40.77a4.09,4.09,0,0,0,4.23,3.94H5.64c0,13.19,10.39,24.11,24,26V84.17h8.45V70.72c13.56-1.9,24-12.82,24-26h1.41a4.09,4.09,0,0,0,4.23-3.94V27.62a4.1,4.1,0,0,0-4.23-3.95"/></g></g></svg>