<svg xmlns="http://www.w3.org/2000/svg" viewBox="0 0 75.03 84.2"><defs><style>.cls-1{fill:#8dc53e;}</style></defs><title>21_7</title><g id="Layer_2" data-name="Layer 2"><g id="Layer_1-2" data-name="Layer 1"><path class="cls-1" d="M53.59,68.41H21.44c-8.12,0-16.08-5.21-16.08-10.52V42.1H69.67V57.89c0,5.31-8,10.52-16.08,10.52M21.44,5.26H53.59c9.76,0,16.08,6.23,16.08,10.53H5.36c0-5.31,8-10.53,16.08-10.53M5.36,21.05H69.67V36.84H5.36ZM53.59,0H21.44C10.72,0,0,7.07,0,15.79v42.1C0,65.65,8.48,72.1,17.9,73.43L8.64,82.52a1,1,0,0,0,.72,1.68h4.32a2,2,0,0,0,1.42-.58l10.13-9.94H49.8l10.13,9.94a2,2,0,0,0,1.43.58h4.32a1,1,0,0,0,.71-1.68l-9.26-9.09C66.55,72.1,75,65.65,75,57.89V15.79C75,7.07,64.48,0,53.59,0M37.52,47.36a7.9,7.9,0,1,0,8,7.9,8,8,0,0,0-8-7.9m0,5.27a2.63,2.63,0,1,1-2.69,2.63,2.66,2.66,0,0,1,2.69-2.63"/></g></g></svg>