<svg xmlns="http://www.w3.org/2000/svg" viewBox="0 0 100.25 82.58"><defs><style>.cls-1{fill:#f05a21;}</style></defs><title>21_8</title><g id="Layer_2" data-name="Layer 2"><g id="Layer_1-2" data-name="Layer 1"><path class="cls-1" d="M96.49,31H80.2V3.87A3.81,3.81,0,0,0,76.44,0H48.87a3.82,3.82,0,0,0-3.76,3.87V15.48h-10V1.29A1.27,1.27,0,0,0,33.83,0h-2.5a1.27,1.27,0,0,0-1.25,1.29V15.48h-10V1.29A1.27,1.27,0,0,0,18.8,0H16.29A1.27,1.27,0,0,0,15,1.29V15.48H3.76A3.82,3.82,0,0,0,0,19.35V81.29a1.27,1.27,0,0,0,1.25,1.29H3.76A1.27,1.27,0,0,0,5,81.29V20.65H50.12V5.16H75.19v31h20V81.29a1.27,1.27,0,0,0,1.25,1.29H99a1.27,1.27,0,0,0,1.25-1.29V34.84A3.82,3.82,0,0,0,96.49,31M85.84,43.87H79.57a1.92,1.92,0,0,0-1.88,1.94v6.45a1.91,1.91,0,0,0,1.88,1.93h6.27a1.91,1.91,0,0,0,1.88-1.93V45.81a1.92,1.92,0,0,0-1.88-1.94m0,15.49H79.57a1.91,1.91,0,0,0-1.88,1.93v6.45a1.92,1.92,0,0,0,1.88,1.94h6.27a1.92,1.92,0,0,0,1.88-1.94V61.29a1.91,1.91,0,0,0-1.88-1.93m-20-46.46H59.52a1.92,1.92,0,0,0-1.88,1.94v6.45a1.92,1.92,0,0,0,1.88,1.94h6.27a1.91,1.91,0,0,0,1.88-1.94V14.84a1.91,1.91,0,0,0-1.88-1.94m0,15.49H59.52a1.91,1.91,0,0,0-1.88,1.93v6.45a1.92,1.92,0,0,0,1.88,1.94h6.27a1.91,1.91,0,0,0,1.88-1.94V30.32a1.9,1.9,0,0,0-1.88-1.93m0,15.48H59.52a1.92,1.92,0,0,0-1.88,1.94v6.45a1.91,1.91,0,0,0,1.88,1.93h6.27a1.9,1.9,0,0,0,1.88-1.93V45.81a1.91,1.91,0,0,0-1.88-1.94M35.71,28.39H29.45a1.9,1.9,0,0,0-1.88,1.93v6.45a1.91,1.91,0,0,0,1.88,1.94h6.26a1.91,1.91,0,0,0,1.88-1.94V30.32a1.9,1.9,0,0,0-1.88-1.93m0,15.48H29.45a1.91,1.91,0,0,0-1.88,1.94v6.45a1.9,1.9,0,0,0,1.88,1.93h6.26a1.9,1.9,0,0,0,1.88-1.93V45.81a1.91,1.91,0,0,0-1.88-1.94m0,15.49H29.45a1.9,1.9,0,0,0-1.88,1.93v6.45a1.91,1.91,0,0,0,1.88,1.94h6.26a1.91,1.91,0,0,0,1.88-1.94V61.29a1.9,1.9,0,0,0-1.88-1.93m-15-31H14.41a1.9,1.9,0,0,0-1.88,1.93v6.45a1.91,1.91,0,0,0,1.88,1.94h6.27a1.92,1.92,0,0,0,1.88-1.94V30.32a1.91,1.91,0,0,0-1.88-1.93m0,15.48H14.41a1.91,1.91,0,0,0-1.88,1.94v6.45a1.9,1.9,0,0,0,1.88,1.93h6.27a1.91,1.91,0,0,0,1.88-1.93V45.81a1.92,1.92,0,0,0-1.88-1.94m0,15.49H14.41a1.9,1.9,0,0,0-1.88,1.93v6.45a1.91,1.91,0,0,0,1.88,1.94h6.27a1.92,1.92,0,0,0,1.88-1.94V61.29a1.91,1.91,0,0,0-1.88-1.93"/></g></g></svg>