<svg xmlns="http://www.w3.org/2000/svg" viewBox="0 0 493.66 792.32"><defs><style>.cls-1{fill:#4c9dd6;}.cls-2{fill:none;stroke:#fff;stroke-miterlimit:10;stroke-width:20px;}.cls-3{fill:#fff;}</style></defs><title>challenge-women-cleantech</title><g id="Layer_2" data-name="Layer 2"><g id="elements"><path class="cls-1" d="M233.35,414.35h0M221,476.4a161.37,161.37,0,0,0,35.11,52.54l53.6,53.59a117.75,117.75,0,0,1,34.47,83.23v88.75H97.81V665.76a117.75,117.75,0,0,1,34.47-83.23l53.6-53.59A161.3,161.3,0,0,0,221,476.4m25.46-62L221,418.87l-25.46-4.52h0a124.23,124.23,0,0,1-36.38,87.85l-53.6,53.6A155.47,155.47,0,0,0,60,665.76V792.32H382V665.76a155.5,155.5,0,0,0-45.54-110l-53.6-53.6a124.23,124.23,0,0,1-36.39-87.84Z"/><path class="cls-1" d="M345.9,78.29,493.66,414.35H255.36s76.15-22.46,76.15-122.85S345.9,78.29,345.9,78.29Z"/><path class="cls-1" d="M97.66,78.29,8.09,282c-27.43,62.36,18.25,132.35,86.38,132.35H188.2S112,391.89,112,291.5,97.66,78.29,97.66,78.29Z"/><path class="cls-2" d="M109.54,155.31H334a0,0,0,0,1,0,0V306.63A112.24,112.24,0,0,1,221.78,418.88h0A112.24,112.24,0,0,1,109.54,306.63V155.31a0,0,0,0,1,0,0Z"/><path class="cls-1" d="M359.26,160.48l-275,99.24V137.48A137.48,137.48,0,0,1,221.78,0h0A137.48,137.48,0,0,1,359.26,137.48Z"/><path class="cls-3" d="M198,286.51a54.37,54.37,0,0,1,2.92,9.63c0,.22.09.36.13.49l.1.41c.1.27.18.53.3.78a7.72,7.72,0,0,0,.81,1.37,6.59,6.59,0,0,0,2.27,1.89,5.69,5.69,0,0,0,2.63.63c.22,0,.44,0,.66,0l1.13-.06,2.41-.13,4.81-.16,4.81,0,4.82,0,4.81.15,2.41.13,1.13.06a4.85,4.85,0,0,0,.66,0,5.65,5.65,0,0,0,2.62-.63,6.68,6.68,0,0,0,2.27-1.89,7.64,7.64,0,0,0,.81-1.36c.11-.25.2-.51.3-.78l.1-.41c0-.13.07-.27.12-.49a54.46,54.46,0,0,1,2.94-9.63,54.42,54.42,0,0,1,2.93,9.63,3.15,3.15,0,0,1,.09.7l0,.79c0,.53,0,1.07-.08,1.6a12,12,0,0,1-.79,3.16,13.09,13.09,0,0,1-3.9,5.38,13.77,13.77,0,0,1-6.23,2.9,14.26,14.26,0,0,1-1.74.21L233,311l-2.41.13-4.81.15-4.82.06-4.81-.06-4.81-.16-2.41-.13-1.27-.08a11.18,11.18,0,0,1-1.74-.21,13.62,13.62,0,0,1-6.22-2.89,13.12,13.12,0,0,1-3.9-5.37,12.11,12.11,0,0,1-.79-3.16c-.06-.53-.07-1.07-.08-1.6l0-.79a3.15,3.15,0,0,1,.09-.7A55.22,55.22,0,0,1,198,286.51Z"/></g></g></svg>