<svg xmlns="http://www.w3.org/2000/svg" xmlns:xlink="http://www.w3.org/1999/xlink" viewBox="0 0 796 563.72"><defs><style>.cls-1{fill:url(#linear-gradient);}.cls-2{fill:url(#linear-gradient-2);}.cls-3{fill:url(#linear-gradient-3);}.cls-4{fill:none;stroke:#fff;stroke-miterlimit:10;stroke-width:40px;}</style><linearGradient id="linear-gradient" y1="448.78" x2="281.39" y2="448.78" gradientUnits="userSpaceOnUse"><stop offset="0" stop-color="#72cddf"/><stop offset="1" stop-color="#4c9dd6"/></linearGradient><linearGradient id="linear-gradient-2" x1="140.69" y1="333.84" x2="425.55" y2="333.84" xlink:href="#linear-gradient"/><linearGradient id="linear-gradient-3" x1="283.12" y1="448.78" x2="697.24" y2="448.78" xlink:href="#linear-gradient"/></defs><title>challenge-crush-it</title><g id="Layer_2" data-name="Layer 2"><g id="elements"><path class="cls-1" d="M281.39,563.72H0L65.87,380.31a70.22,70.22,0,0,1,66.07-46.47H281.39Z"/><path class="cls-2" d="M221.44,218.91H347a78.55,78.55,0,0,1,78.55,78.55V448.78a0,0,0,0,1,0,0H140.69a0,0,0,0,1,0,0V299.65A80.74,80.74,0,0,1,221.44,218.91Z"/><path class="cls-3" d="M470.27,333.84H283.12V563.72H697.24L615.86,419A167,167,0,0,0,470.27,333.84Z"/><rect class="cls-4" x="502.59" y="32.75" width="104.56" height="221.94" transform="translate(264.14 -350.26) rotate(45)"/><line class="cls-4" x1="591.84" y1="180.69" x2="781.85" y2="370.7"/></g></g></svg>