<svg xmlns="http://www.w3.org/2000/svg" viewBox="0 0 937.43 590.14"><defs><style>.cls-1{fill:#fff;}.cls-2{fill:#e25456;}.cls-3{fill:#233368;}.cls-4{fill:#e06966;}</style></defs><title>challenge_opioids</title><g id="Layer_2" data-name="Layer 2"><g id="elements"><path class="cls-1" d="M268.65,144.5V561.17a29,29,0,0,1-29,29H69.92a29,29,0,0,1-29-29V93.75Z"/><rect class="cls-2" x="40.93" y="203.71" width="70.22" height="18.75"/><rect class="cls-2" x="40.93" y="276.19" width="70.22" height="18.75"/><rect class="cls-2" x="40.93" y="348.67" width="70.22" height="18.75"/><rect class="cls-2" x="40.93" y="421.16" width="70.22" height="18.75"/><rect class="cls-2" x="40.93" y="493.64" width="70.22" height="18.75"/><rect class="cls-3" x="40.93" y="91.41" width="227.72" height="1.17"/><rect class="cls-1" width="309.58" height="92.58" rx="10.03"/><path class="cls-4" d="M546.78,268.35V529.87a55,55,0,0,1-109.94,0V268.35a55,55,0,1,1,109.94,0Z"/><path class="cls-1" d="M546.78,399.11V529.87a55,55,0,0,1-109.94,0V399.11Z"/><path class="cls-1" d="M705.91,364.09,893.07,551.21A132.55,132.55,0,0,1,705.91,364.09Z"/><path class="cls-1" d="M903.81,540.46,716.66,353.35A132.54,132.54,0,0,1,903.81,540.46Z"/></g></g></svg>