<svg xmlns="http://www.w3.org/2000/svg" xmlns:xlink="http://www.w3.org/1999/xlink" viewBox="0 0 1143.36 595.79"><defs><style>.cls-1{fill:url(#linear-gradient);}.cls-2,.cls-3{fill:none;stroke-miterlimit:10;stroke-width:40px;}.cls-2{stroke:#fff;}.cls-3{stroke:#233368;}</style><linearGradient id="linear-gradient" y1="335.09" x2="1015.19" y2="335.09" gradientUnits="userSpaceOnUse"><stop offset="0" stop-color="#72cddf"/><stop offset="1" stop-color="#4c9dd6"/></linearGradient></defs><title>challenge-whales</title><g id="Layer_2" data-name="Layer 2"><g id="elements"><path class="cls-1" d="M1015.19,213.65,716.25,394.82a426.18,426.18,0,0,1-220.89,61.71H317.46A376.9,376.9,0,0,1,9.8,297.35c-24.86-35.13.47-83.7,43.5-83.7Z"/><path class="cls-2" d="M1123.36,20h0a0,0,0,0,1,0,0v85.48a108.18,108.18,0,0,1-108.18,108.18h0a0,0,0,0,1,0,0V128.18A108.18,108.18,0,0,1,1123.36,20Z"/><path class="cls-2" d="M1015.19,213.65h0a108.18,108.18,0,0,1,108.18,108.18v85.48a0,0,0,0,1,0,0h0a108.18,108.18,0,0,1-108.18-108.18V213.65a0,0,0,0,1,0,0Z"/><path class="cls-3" d="M165.83,288.16a44.64,44.64,0,1,0,89.27,0"/><path class="cls-2" d="M348.29,387.61H501.93a0,0,0,0,1,0,0V575.79a0,0,0,0,1,0,0h0A153.64,153.64,0,0,1,348.29,422.15V387.61A0,0,0,0,1,348.29,387.61Z"/></g></g></svg>