<svg xmlns="http://www.w3.org/2000/svg" xmlns:xlink="http://www.w3.org/1999/xlink" viewBox="0 0 251.43 206.99"><defs><style>.cls-1{fill:none;}.cls-2{clip-path:url(#clip-path);}.cls-3{fill:url(#linear-gradient);}.cls-4{clip-path:url(#clip-path-2);}.cls-5{fill:#fff;}.cls-6{clip-path:url(#clip-path-3);}.cls-7{fill:url(#linear-gradient-2);}</style><clipPath id="clip-path"><polygon class="cls-1" points="175.34 206.99 198.59 206.99 186.97 103.13 175.34 206.99"/></clipPath><linearGradient id="linear-gradient" x1="-1423.38" y1="-2900.17" x2="-1418.91" y2="-2900.17" gradientTransform="matrix(5.2, 0, 0, -5.2, 7572.92, -14917.68)" gradientUnits="userSpaceOnUse"><stop offset="0" stop-color="#71cde0"/><stop offset="1" stop-color="#4b9cd6"/></linearGradient><clipPath id="clip-path-2"><rect class="cls-1" width="251.43" height="207.08"/></clipPath><clipPath id="clip-path-3"><polygon class="cls-1" points="57.72 206.99 86.23 206.99 71.97 79.65 57.72 206.99"/></clipPath><linearGradient id="linear-gradient-2" x1="-1506.17" y1="-2807.63" x2="-1501.7" y2="-2807.63" gradientTransform="matrix(6.37, 0, 0, -6.37, 9653.33, -17743.7)" xlink:href="#linear-gradient"/></defs><title>26_2-off-diesel</title><g id="Layer_2" data-name="Layer 2"><g id="Layer_1-2" data-name="Layer 1"><g class="cls-2"><rect class="cls-3" x="175.34" y="103.13" width="23.26" height="103.86"/></g><g class="cls-4"><path class="cls-5" d="M186.49,103.87a50,50,0,0,1-5.82-6c-1.76-2.12-3.39-4.31-4.92-6.56a54.67,54.67,0,0,1-4-7.05c-1.16-2.46-2.27-4.95-3.51-7.37l-3.68-7.26-3.58-7.32c-2.36-4.9-4.72-9.8-7-14.76l.58-.33c3.17,4.43,6.23,8.93,9.29,13.42l4.54,6.76,4.46,6.82c1.48,2.28,3.08,4.48,4.62,6.73a52.87,52.87,0,0,1,4.09,7c1.19,2.45,2.27,5,3.22,7.53a51,51,0,0,1,2.31,8.06Z"/><path class="cls-5" d="M187.06,103.89a49.62,49.62,0,0,1-2.78,7.91,79.39,79.39,0,0,1-3.65,7.33,52.71,52.71,0,0,1-4.49,6.78c-1.67,2.15-3.4,4.26-5,6.45l-4.84,6.54-4.93,6.49c-3.33,4.31-6.64,8.61-10.06,12.85l-.56-.36c2.54-4.82,5.19-9.57,7.82-14.33l4-7.09,4.09-7.05c1.38-2.33,2.63-4.76,3.94-7.14a53.37,53.37,0,0,1,4.44-6.81q2.47-3.24,5.29-6.26a50.7,50.7,0,0,1,6.16-5.68Z"/><path class="cls-5" d="M186.82,103.37a52.1,52.1,0,0,1,8.31-1.07q4.13-.21,8.19,0a53.54,53.54,0,0,1,8.08,1c2.66.53,5.32,1.13,8,1.58l8,1.39,8,1.49c5.33,1,10.67,2.06,16,3.22l-.07.66c-5.45-.1-10.88-.33-16.31-.56l-8.14-.39-8.13-.5c-2.71-.18-5.44-.21-8.15-.31a53.58,53.58,0,0,1-8.09-.92,80.71,80.71,0,0,1-8-1.91,51.26,51.26,0,0,1-7.84-3Z"/></g><g class="cls-6"><rect class="cls-7" x="57.72" y="79.65" width="28.51" height="127.34"/></g><g class="cls-4"><path class="cls-5" d="M71,79.75a61.85,61.85,0,0,1-2.49-10c-.57-3.32-1-6.65-1.2-10a66.36,66.36,0,0,1,0-10c.26-3.32.62-6.64.78-10l.55-10,.68-10C69.9,13.29,70.39,6.64,71,0h.82C72.51,6.64,73,13.29,73.5,19.93l.67,10,.56,10c.16,3.33.51,6.65.78,10a66.36,66.36,0,0,1,0,10,99.68,99.68,0,0,1-1.21,10,60.78,60.78,0,0,1-2.48,10Z"/><path class="cls-5" d="M71.63,80.11a61,61,0,0,1-7.79,6.7c-2.71,2-5.51,3.84-8.37,5.54a64.56,64.56,0,0,1-8.93,4.44c-3.08,1.26-6.21,2.44-9.25,3.78l-9.16,4-9.21,3.87C12.76,111,6.6,113.5.37,115.9L0,115.17c5.65-3.56,11.37-7,17.08-10.41l8.6-5.08,8.66-5c2.9-1.64,5.71-3.44,8.56-5.17A65.66,65.66,0,0,1,51.79,85q4.62-1.92,9.45-3.4a61.22,61.22,0,0,1,10-2.25Z"/><path class="cls-5" d="M71.69,79.42a60.59,60.59,0,0,1,9.48,4c3,1.52,5.91,3.19,8.72,5a65.32,65.32,0,0,1,8,6c2.51,2.19,5,4.46,7.53,6.58l7.67,6.39,7.59,6.5c5,4.37,10.07,8.73,15,13.22l-.49.65c-5.72-3.44-11.34-7-17-10.58l-8.4-5.41-8.33-5.52c-2.76-1.85-5.63-3.55-8.45-5.32a64.64,64.64,0,0,1-8-5.92Q81.21,91.67,77.72,88a61.75,61.75,0,0,1-6.51-7.94Z"/></g></g></g></svg>