<svg xmlns="http://www.w3.org/2000/svg" xmlns:xlink="http://www.w3.org/1999/xlink" viewBox="0 0 901.16 486.62"><defs><style>.cls-1{fill:url(#linear-gradient);}.cls-2{fill:url(#linear-gradient-2);}.cls-3{fill:#fff;}</style><linearGradient id="linear-gradient" x1="218.73" y1="83.24" x2="901.16" y2="83.24" gradientUnits="userSpaceOnUse"><stop offset="0" stop-color="#d94291"/><stop offset="0.83" stop-color="#e25456"/></linearGradient><linearGradient id="linear-gradient-2" x1="0" y1="345.76" x2="437.47" y2="345.76" xlink:href="#linear-gradient"/></defs><title>challenge-indigenous-housing</title><g id="Layer_2" data-name="Layer 2"><g id="elements"><path class="cls-1" d="M687.29,37.81l109.26,90.85H448.13L330,37.81H687.29M701,0H218.73L435.28,166.48H901.16L701,0Z"/><path class="cls-2" d="M399.66,242.7V448.81H37.81V242.7H399.66m37.81-37.81H0V486.62H437.47V204.89Z"/><path class="cls-3" d="M218.61,50.36l99,76.12h-199l100-76.12M218.73,0,0,166.48H435.28L218.73,0Z"/><path class="cls-3" d="M861.16,244.89v201H477.47V244.89H861.16m40-40H437.47v281H901.16V204.89Z"/></g></g></svg>