<svg xmlns="http://www.w3.org/2000/svg" viewBox="0 0 988.01 441.11"><defs><style>.cls-1{fill:#e25456;}.cls-2,.cls-3,.cls-4{fill:none;stroke:#fff;stroke-miterlimit:10;}.cls-2{stroke-width:40px;}.cls-3,.cls-4{stroke-linecap:round;stroke-width:20px;}.cls-4{stroke-dasharray:0 63.52;}</style></defs><title>challenge-skys-the-limit</title><g id="Layer_2" data-name="Layer 2"><g id="elements"><path class="cls-1" d="M988,371.34H397.61A340.72,340.72,0,0,1,117.76,225l-36.6-52.7H788.94C898.89,172.27,988,261.4,988,371.34Z"/><path class="cls-1" d="M81.16,172.27,0,0H104.22s83.33,139.09,238.3,172.27Z"/><path class="cls-2" d="M511.47,321.57H649.59a0,0,0,0,1,0,0v99.54a0,0,0,0,1,0,0H511.47a49.77,49.77,0,0,1-49.77-49.77v0A49.77,49.77,0,0,1,511.47,321.57Z"/><line class="cls-2" x1="202.6" y1="194.91" x2="25.64" y2="194.91"/><line class="cls-3" x1="312.29" y1="247.23" x2="312.29" y2="247.23"/><line class="cls-4" x1="375.81" y1="247.23" x2="788.67" y2="247.23"/><line class="cls-3" x1="820.42" y1="247.23" x2="820.42" y2="247.23"/></g></g></svg>