<svg xmlns="http://www.w3.org/2000/svg" xmlns:xlink="http://www.w3.org/1999/xlink" viewBox="0 0 53.32 48"><defs><style>.cls-1,.cls-3{fill:none;}.cls-2{clip-path:url(#clip-path);}.cls-3{stroke:#4c9dd6;stroke-miterlimit:10;stroke-width:3px;}</style><clipPath id="clip-path"><rect class="cls-1" width="53.33" height="48"/></clipPath></defs><title>27_1_quotation-1</title><g id="Layer_2" data-name="Layer 2"><g id="Layer_1-2" data-name="Layer 1"><g class="cls-2"><path class="cls-3" d="M34.53,46.5H47.11a4.77,4.77,0,0,0,4.71-4.82V28.82A4.77,4.77,0,0,0,47.11,24H39.24V17.57a6.37,6.37,0,0,1,6.29-6.43h.79a2.38,2.38,0,0,0,2.36-2.41V3.91A2.38,2.38,0,0,0,46.32,1.5h-.79A15.89,15.89,0,0,0,29.81,17.57V41.68A4.77,4.77,0,0,0,34.53,46.5Zm-28.31,0H18.8a4.78,4.78,0,0,0,4.72-4.82V28.82A4.78,4.78,0,0,0,18.8,24H10.94V17.57a6.37,6.37,0,0,1,6.29-6.43H18a2.38,2.38,0,0,0,2.36-2.41V3.91A2.38,2.38,0,0,0,18,1.5h-.78A15.9,15.9,0,0,0,1.5,17.57V41.68A4.77,4.77,0,0,0,6.22,46.5Z"/></g></g></g></svg>