<svg xmlns="http://www.w3.org/2000/svg" xmlns:xlink="http://www.w3.org/1999/xlink" viewBox="0 0 53.32 48"><defs><style>.cls-1,.cls-3{fill:none;}.cls-2{clip-path:url(#clip-path);}.cls-3{stroke:#4c9dd6;stroke-miterlimit:10;stroke-width:3px;}</style><clipPath id="clip-path"><rect class="cls-1" width="53.33" height="48"/></clipPath></defs><title>27_2_quotation-2</title><g id="Layer_2" data-name="Layer 2"><g id="Layer_1-2" data-name="Layer 1"><g class="cls-2"><path class="cls-3" d="M18.8,1.5H6.22A4.77,4.77,0,0,0,1.5,6.32V19.18A4.77,4.77,0,0,0,6.22,24h7.86v6.43a6.37,6.37,0,0,1-6.29,6.43H7a2.37,2.37,0,0,0-2.35,2.41v4.82A2.38,2.38,0,0,0,7,46.5h.79A15.9,15.9,0,0,0,23.52,30.43V6.32A4.78,4.78,0,0,0,18.8,1.5Zm28.31,0H34.53a4.77,4.77,0,0,0-4.72,4.82V19.18A4.77,4.77,0,0,0,34.53,24h7.86v6.43a6.37,6.37,0,0,1-6.29,6.43h-.79A2.38,2.38,0,0,0,33,39.27v4.82a2.38,2.38,0,0,0,2.36,2.41h.79A15.89,15.89,0,0,0,51.82,30.43V6.32A4.77,4.77,0,0,0,47.11,1.5Z"/></g></g></g></svg>