<svg xmlns="http://www.w3.org/2000/svg" viewBox="0 0 165.23 161"><defs><style>.cls-1{fill:#4c9dd6;}</style></defs><title>37_1</title><g id="Layer_2" data-name="Layer 2"><g id="Layer_1-2" data-name="Layer 1"><path class="cls-1" d="M137.69,150.94H105.56V95.6a4.82,4.82,0,0,0-4.59-5H64.25a4.82,4.82,0,0,0-4.58,5v55.34H27.54V60L81.38,12.43a1.77,1.77,0,0,1,2.41,0l53.9,47.63Zm-41.31,0H68.85V100.63H96.38Zm68.13-81.78L146.87,53.59V22.65a2.42,2.42,0,0,0-2.29-2.52H140a2.42,2.42,0,0,0-2.29,2.52V45.47L89.1,2.52a9.6,9.6,0,0,0-13,0L.72,69.16a2.25,2.25,0,0,0-.3,3l0,0,4.07,5.51A1.84,1.84,0,0,0,7.26,78h0l11.09-9.81V156a4.82,4.82,0,0,0,4.58,5H142.28a4.83,4.83,0,0,0,4.59-5V68.19L158,78a1.85,1.85,0,0,0,2.76-.31l4.07-5.5a2.4,2.4,0,0,0-.32-3"/></g></g></svg>