<svg xmlns="http://www.w3.org/2000/svg" viewBox="0 0 169.41 169.41"><defs><style>.cls-1{fill:#d84290;}</style></defs><title>37_2</title><g id="Layer_2" data-name="Layer 2"><g id="Layer_1-2" data-name="Layer 1"><path class="cls-1" d="M153.57,47.65A42.41,42.41,0,0,0,111.22,90a41.55,41.55,0,0,0,3,15.34,52.66,52.66,0,0,1-7.53.54H79.56A16,16,0,0,1,63.55,90V63.05c0-15,5.41-27,17.54-39.1a45.6,45.6,0,0,1,32.42-13.37l1.49,0a45.7,45.7,0,0,1,33,15.48A42,42,0,0,1,158.3,48a35.57,35.57,0,0,0-4.73-.32M61.62,123.33c-4.33,4.33-5.5,10.87-3,17.12,7.77,19.42-24.61,26.1-25.61,6l-.48-9.56-9.57-.49C6.18,135.61,6.72,109.88,24,109.88a13.19,13.19,0,0,1,5,1c5.86,2.36,12.57,1.56,17.14-3l8.6-8.61a26.53,26.53,0,0,0,15.56,15.51ZM156,19.05A56.19,56.19,0,0,0,115.33,0a56.84,56.84,0,0,0-41.7,16.43C64.75,25.26,53,39.68,53,63.05V86L38.6,100.33c-1,1-3,1.76-5.7.68A24,24,0,0,0,0,123.31c0,7.12,5.15,22.85,22.4,23.71a23.55,23.55,0,0,0,23.72,22.39,24,24,0,0,0,22.3-32.89c-.33-.84-1.28-3.73.68-5.69l14.36-14.36h23.21a62.62,62.62,0,0,0,16.67-2.26,5.3,5.3,0,0,0,3.73-6.49,5.14,5.14,0,0,0-.59-1.36A31.21,31.21,0,0,1,121.8,90a31.8,31.8,0,0,1,31.77-31.76,30.88,30.88,0,0,1,9,1.48,5.29,5.29,0,0,0,6.82-5.08A52.77,52.77,0,0,0,156,19.05"/></g></g></svg>