<svg xmlns="http://www.w3.org/2000/svg" xmlns:xlink="http://www.w3.org/1999/xlink" viewBox="0 0 206.39 194.71"><defs><style>.cls-1,.cls-3{fill:none;}.cls-2{clip-path:url(#clip-path);}.cls-3{stroke:#e35556;stroke-miterlimit:10;stroke-width:7.76px;}</style><clipPath id="clip-path" transform="translate(-0.77 -0.77)"><rect class="cls-1" width="207.55" height="195.86"/></clipPath></defs><title>37_3</title><g id="Layer_2" data-name="Layer 2"><g id="Layer_1-2" data-name="Layer 1"><g class="cls-2"><path class="cls-3" d="M98.71,57.34,117,62.56a3.08,3.08,0,0,1-.84,6h-12a9.44,9.44,0,0,1-3.76-.81,4.54,4.54,0,0,0-5.15.73L88.85,74.9a4.39,4.39,0,0,0,.55,6.72A26.67,26.67,0,0,0,101,85.82v6.46a5.87,5.87,0,0,0,5.84,5.85h5.84a5.87,5.87,0,0,0,5.85-5.85V85.86a20.55,20.55,0,0,0,18-23c-1.06-8.4-7.56-15.08-15.67-17.41l-18.25-5.22a3.07,3.07,0,0,1,.84-6h12a9.34,9.34,0,0,1,3.75.8,4.52,4.52,0,0,0,5.15-.73l6.4-6.38a4.38,4.38,0,0,0-.56-6.72,26.63,26.63,0,0,0-11.6-4.2V10.5a5.87,5.87,0,0,0-5.85-5.85h-5.84a5.86,5.86,0,0,0-5.84,5.85v6.42a20.54,20.54,0,0,0-18,23C84.11,48.32,90.6,55,98.71,57.34Z" transform="translate(-0.77 -0.77)"/><path class="cls-3" d="M199.6,124.45c-4.1-3.9-10.41-3.65-14.72,0l-31.84,27a21.25,21.25,0,0,1-13.8,5.11H98.46a5.85,5.85,0,0,1,0-11.69h27a11.58,11.58,0,0,0,11.46-9.71c1.14-7.3-4.19-13.66-10.87-13.66H70.85a39,39,0,0,0-25.52,9.61l-16,13.76H10.17a5.71,5.71,0,0,0-5.52,5.84v35.06a5.71,5.71,0,0,0,5.52,5.84h123a21.34,21.34,0,0,0,13.8-5.12l52.14-44.18A12.13,12.13,0,0,0,199.6,124.45Z" transform="translate(-0.77 -0.77)"/></g></g></g></svg>