<svg xmlns="http://www.w3.org/2000/svg" viewBox="0 0 169.41 171.56"><defs><style>.cls-1{fill:#233369;}</style></defs><title>37_4</title><g id="Layer_2" data-name="Layer 2"><g id="Layer_1-2" data-name="Layer 1"><path class="cls-1" d="M69.66,16.91C73.39,12.83,74.44,6.18,74,.08,69.77-.2,62.23,0,57.48,4.53,52,10.09,52.93,20.07,53.11,21.36c6.11.41,12.5-.62,16.55-4.45m73.28,133.21a5.36,5.36,0,1,0-5.29-5.36,5.33,5.33,0,0,0,5.29,5.36m0-42.89a5.36,5.36,0,1,0-5.29-5.36,5.33,5.33,0,0,0,5.29,5.36M26.47,150.12a5.36,5.36,0,1,0-5.29-5.36,5.33,5.33,0,0,0,5.29,5.36m0-42.89a5.36,5.36,0,1,0-5.29-5.36,5.33,5.33,0,0,0,5.29,5.36M158.82,118H10.58V85.78H158.82Zm0,42.89H10.58V128.67H158.82ZM25.39,41.36c.22-.32,4.26-9.33,22.38.94l5.17,2.93,5.17-2.93C76.22,32,80.32,41.06,80.53,41.37c4,5.84,4.8,16.25,3.52,23.25a43.77,43.77,0,0,1-3.2,10.44H25A43.62,43.62,0,0,1,21.8,64.45c-1.26-6.91-.27-17.43,3.59-23.09m85.81.94,5.16,2.93,5.17-2.93C139.65,32,143.74,41.06,144,41.37c4,5.84,4.8,16.25,3.52,23.25a43,43,0,0,1-3.2,10.44h-52a56.35,56.35,0,0,0,2.23-8.65c1.41-7.68.83-18.92-3.31-27.52,4.9-3.56,16.82,1.6,20,3.41m52.91,32.76h-8.43a54.14,54.14,0,0,0,2.23-8.65c4.51-24.58-8.33-52.29-41.54-33.47-21.73-12.32-31.29-2.56-31.68-2.26-.4-.3-10-10-31.74,2.26-33.28-18.85-46,9.21-41.56,33.47a56.35,56.35,0,0,0,2.23,8.65H5.29A5.33,5.33,0,0,0,0,80.42v85.79a5.32,5.32,0,0,0,5.29,5.35H164.11a5.32,5.32,0,0,0,5.3-5.35V80.42a5.33,5.33,0,0,0-5.3-5.36m-31-58.15c3.73-4.08,4.77-10.73,4.37-16.83-4.26-.28-11.8,0-16.55,4.45-5.47,5.56-4.55,15.54-4.37,16.83,6.11.41,12.49-.62,16.55-4.45"/></g></g></svg>