<svg xmlns="http://www.w3.org/2000/svg" xmlns:xlink="http://www.w3.org/1999/xlink" viewBox="0 0 454.28 454.28"><defs><style>.cls-1{fill:none;}.cls-2{clip-path:url(#clip-path);}.cls-3{fill:#f15f61;}.cls-4{fill:#fff;}</style><clipPath id="clip-path"><rect class="cls-1" width="454.28" height="454.28"/></clipPath></defs><title>6_1</title><g id="Layer_2" data-name="Layer 2"><g id="Layer_1-2" data-name="Layer 1"><g class="cls-2"><path class="cls-3" d="M227.14,454.28c125.45,0,227.14-101.69,227.14-227.14S352.59,0,227.14,0,0,101.7,0,227.14,101.7,454.28,227.14,454.28"/><path class="cls-4" d="M253.52,237.22H235.31c3.31-53.06,39.85-95,84.24-95h18.22c-3.32,53.06-39.84,95-84.25,95M200.76,268.9c-44.4,0-80.93-42-84.25-95h18.22c44.4,0,80.88,42,84.24,95ZM319.55,126.35c-47.46,0-87.31,39.3-97.61,91.92C204.62,182.33,172.1,158,134.73,158h-34.3V166c0,65.48,45,118.79,100.33,118.79h18.46v59.4a4,4,0,0,0,4,4h7.92a4,4,0,0,0,4-4V253.06h18.46c55.34,0,100.34-53.3,100.34-118.79v-7.92Z"/></g></g></g></svg>