<svg xmlns="http://www.w3.org/2000/svg" xmlns:xlink="http://www.w3.org/1999/xlink" viewBox="0 0 454.28 454.28"><defs><style>.cls-1{fill:none;}.cls-2{clip-path:url(#clip-path);}.cls-3{fill:#4e9dd6;}.cls-4{fill:#fff;}</style><clipPath id="clip-path"><rect class="cls-1" width="454.28" height="454.28"/></clipPath></defs><title>6_2</title><g id="Layer_2" data-name="Layer 2"><g id="Layer_1-2" data-name="Layer 1"><g class="cls-2"><path class="cls-3" d="M227.14,454.28c125.45,0,227.14-101.69,227.14-227.14S352.59,0,227.14,0,0,101.7,0,227.14,101.7,454.28,227.14,454.28"/><path class="cls-4" d="M373.3,198.05,236.09,242.24a29.11,29.11,0,0,1-17.9,0l-90.95-29.3L228.67,194a8.24,8.24,0,0,0,6.61-9.63,8.33,8.33,0,0,0-9.66-6.59L120.11,197.48A41.1,41.1,0,0,0,103,205.12L81,198a4.06,4.06,0,0,1,0-7.82L218.19,146a29.06,29.06,0,0,1,17.89,0L373.3,190.22a4.07,4.07,0,0,1,0,7.83m-63.58,94c-5.57,5.85-33.89,17.61-82.58,17.61s-77-11.76-82.58-17.61l6.78-54,61.74,19.88a45.53,45.53,0,0,0,28.13,0L302.94,238Zm68.7-117.52L241.21,130.34a45.67,45.67,0,0,0-28.13,0L75.87,174.53a20.54,20.54,0,0,0,0,39.21l15.39,4.95a41.06,41.06,0,0,0-3.8,10.21,16.25,16.25,0,0,0,.06,29.53l-9.34,57.69c-.84,5.15,2,10,5.86,10h21.11c3.84,0,6.71-4.89,5.87-10l-9.34-57.69a16.41,16.41,0,0,0,9.49-14.78,16.2,16.2,0,0,0-7-13.09,24.41,24.41,0,0,1,3.39-6.6l27.69,8.91-7.56,60.28c0,18.24,44.5,33,99.41,33s99.42-14.77,99.42-33L319,232.87l59.43-19.14a20.53,20.53,0,0,0,0-39.2"/></g></g></g></svg>