<svg xmlns="http://www.w3.org/2000/svg" xmlns:xlink="http://www.w3.org/1999/xlink" viewBox="0 0 449.28 449.28"><defs><style>.cls-1{fill:none;}.cls-2{clip-path:url(#clip-path);}.cls-3{fill:#d23d8b;}.cls-4{fill:#fff;}</style><clipPath id="clip-path"><rect class="cls-1" width="449.28" height="449.28"/></clipPath></defs><title>6_3</title><g id="Layer_2" data-name="Layer 2"><g id="Layer_1-2" data-name="Layer 1"><g class="cls-2"><path class="cls-3" d="M224.64,449.28c124.06,0,224.64-100.58,224.64-224.64S348.7,0,224.64,0,0,100.58,0,224.64,100.58,449.28,224.64,449.28"/><path class="cls-4" d="M350.53,260.76c-9.17-8.25-23-8.2-32.56-.56l-28.69,23a4.94,4.94,0,0,1-3.11,1.08H266.79A25.9,25.9,0,0,0,269,269.19c-1.86-13-13.79-22.22-26.92-22.22H174.93a44.5,44.5,0,0,0-26.82,8.95l-17.89,13.41h-36a3.74,3.74,0,0,0-3.73,3.73v7.45a3.74,3.74,0,0,0,3.73,3.73h41l21.84-16.4a29.88,29.88,0,0,1,17.88-6h68.33a11.18,11.18,0,1,1,0,22.36h-41a7.45,7.45,0,1,0,0,14.9h83.93a20.11,20.11,0,0,0,12.44-4.33l28.69-22.92c3.59-2.84,9.31-3.54,13.23,0a9.91,9.91,0,0,1-.42,15.19l-47,37.59A19.81,19.81,0,0,1,280.76,329H94.22a3.73,3.73,0,0,0-3.73,3.72v7.46a3.73,3.73,0,0,0,3.73,3.72H280.76a34.58,34.58,0,0,0,21.7-7.64l47-37.58a24.88,24.88,0,0,0,1.07-37.92M210.05,168.58l26.28,7.5a9.55,9.55,0,0,1-2.62,18.73H216.53A17.92,17.92,0,0,1,206,191.4a3.51,3.51,0,0,0-4.57.57l-5.3,5.31a3.79,3.79,0,0,0,.46,5.68,32.74,32.74,0,0,0,20,6.75h.66v11.18a3.73,3.73,0,0,0,3.72,3.72h7.46a3.73,3.73,0,0,0,3.72-3.72V209.71h.65c10.63,0,20.64-6.33,24.08-16.39a24.55,24.55,0,0,0-16.35-31.58L213,153.86a9.54,9.54,0,0,1,2.61-18.72h17.18a18,18,0,0,1,10.53,3.4,3.52,3.52,0,0,0,4.57-.56l5.31-5.31a3.79,3.79,0,0,0-.47-5.68,33,33,0,0,0-20-6.71h-.66V109.1a3.73,3.73,0,0,0-3.72-3.72h-7.45a3.73,3.73,0,0,0-3.73,3.72v11.18h-1.63a24.45,24.45,0,0,0-24.31,26.78c.93,10.3,8.85,18.68,18.81,21.52"/></g></g></g></svg>