<svg xmlns="http://www.w3.org/2000/svg" xmlns:xlink="http://www.w3.org/1999/xlink" viewBox="0 0 451.07 451.07"><defs><style>.cls-1{fill:none;}.cls-2{clip-path:url(#clip-path);}.cls-3{fill:#b4e1e8;}.cls-4{fill:#fd6966;}</style><clipPath id="clip-path"><rect class="cls-1" width="451.07" height="451.07"/></clipPath></defs><title>6_4</title><g id="Layer_2" data-name="Layer 2"><g id="Layer_1-2" data-name="Layer 1"><g class="cls-2"><path class="cls-3" d="M225.53,451.07c124.56,0,225.54-101,225.54-225.54S350.09,0,225.53,0,0,101,0,225.53,101,451.07,225.53,451.07"/><path class="cls-1" d="M261.66,283a6.33,6.33,0,0,0-6.32-6.32H240.09v12.64h15.25A6.33,6.33,0,0,0,261.66,283Z"/><path class="cls-1" d="M158.74,192.14h45.92a4.19,4.19,0,0,1,4.18,4.17v8.35a4.19,4.19,0,0,1-4.18,4.18H158.74v33.39h45.92a4.19,4.19,0,0,1,4.18,4.18v8.35a4.19,4.19,0,0,1-4.18,4.17H158.74v33.4h45.92a4.19,4.19,0,0,1,4.18,4.17v8.35a4.19,4.19,0,0,1-4.18,4.18H158.74v33.4H292.33V158.74H158.74Zm71.66,78.54a3.73,3.73,0,0,1,3.73-3.72h21.21a16,16,0,0,1,4.38,31.4l9,9,12.53-12.53a3.74,3.74,0,0,1,5.27,0l1.58,1.58a3.73,3.73,0,0,1,0,5.27l-12.53,12.53,12.53,12.53a3.72,3.72,0,0,1,0,5.26l-1.58,1.58a3.73,3.73,0,0,1-5.27,0l-12.53-12.53L256.2,333.59a3.74,3.74,0,0,1-5.27,0L249.35,332a3.72,3.72,0,0,1,0-5.26l12.53-12.53L246.63,299h-6.54v9.66a3.73,3.73,0,0,1-3.73,3.73h-2.23a3.74,3.74,0,0,1-3.73-3.73Z"/><rect class="cls-1" x="142.04" y="108.64" width="166.99" height="33.4"/><path class="cls-4" d="M313.2,91.94H137.86a12.57,12.57,0,0,0-12.52,12.53v41.74a12.57,12.57,0,0,0,12.52,12.53H142V342.43a16.75,16.75,0,0,0,16.7,16.7H292.33a16.76,16.76,0,0,0,16.7-16.7V158.74h4.17a12.57,12.57,0,0,0,12.53-12.53V104.47A12.57,12.57,0,0,0,313.2,91.94ZM292.33,342.43H158.74V309h45.92a4.19,4.19,0,0,0,4.18-4.18V296.5a4.19,4.19,0,0,0-4.18-4.17H158.74v-33.4h45.92a4.19,4.19,0,0,0,4.18-4.17v-8.35a4.19,4.19,0,0,0-4.18-4.18H158.74V208.84h45.92a4.19,4.19,0,0,0,4.18-4.18v-8.35a4.19,4.19,0,0,0-4.18-4.17H158.74v-33.4H292.33ZM309,142H142v-33.4H309Z"/></g></g></g></svg>