<svg xmlns="http://www.w3.org/2000/svg" xmlns:xlink="http://www.w3.org/1999/xlink" viewBox="0 0 446.76 446.76"><defs><style>.cls-1{fill:none;}.cls-2{clip-path:url(#clip-path);}.cls-3{fill:#d9e9f6;}.cls-4{fill:#243269;}</style><clipPath id="clip-path"><rect class="cls-1" width="446.76" height="446.76"/></clipPath></defs><title>6_5</title><g id="Layer_2" data-name="Layer 2"><g id="Layer_1-2" data-name="Layer 1"><g class="cls-2"><path class="cls-3" d="M223.38,446.76c123.36,0,223.38-100,223.38-223.38S346.74,0,223.38,0,0,100,0,223.38,100,446.76,223.38,446.76"/><path class="cls-4" d="M281.75,231.25c-7.53,8.56-19.57,25.79-27.24,43.59H192.25c-7.68-17.81-19.7-35-27.24-43.59a76.63,76.63,0,0,1-19.16-50.76c-.1-41.29,32.52-77.22,77.53-77.22,42.76,0,77.56,34.64,77.56,77.22a76.8,76.8,0,0,1-19.19,50.76m-32.53,77.92H197.53l0-17.16h51.75Zm0,20.53L240,343.48H206.76l-9.21-13.78v-3.37H249.2ZM223.38,86.12c-55.45,0-94.87,44.79-94.8,94.5A93.6,93.6,0,0,0,152,242.56c13.82,15.69,27.09,41.23,28.25,49.45l0,40.31a8.6,8.6,0,0,0,1.44,4.74L195,356.81a8.62,8.62,0,0,0,7.17,3.83h42.47a8.65,8.65,0,0,0,7.18-3.83L265,337.06a8.69,8.69,0,0,0,1.44-4.74l0-40.31c1.21-8.43,14.53-33.89,28.24-49.45a93.59,93.59,0,0,0,23.46-62.07c0-52.12-42.44-94.37-94.79-94.37M238,184.46l-24.24-7.24A7,7,0,0,1,209,170.4c0-3.9,2.85-7.07,6.36-7.07H230.5a13,13,0,0,1,6.91,2,4.45,4.45,0,0,0,5.46-.39l6.32-6a4.28,4.28,0,0,0-.3-6.51,30.87,30.87,0,0,0-16.9-6.09v-8.73a4.3,4.3,0,0,0-4.31-4.29h-8.62a4.3,4.3,0,0,0-4.31,4.29v8.64c-12.72.34-23,11-23,24.17a24.26,24.26,0,0,0,17,23.26L233,200.9a7,7,0,0,1,4.72,6.82c0,3.9-2.85,7.08-6.35,7.08H216.24a12.89,12.89,0,0,1-6.9-2,4.42,4.42,0,0,0-5.45.4l-6.33,6a4.29,4.29,0,0,0,.31,6.52,30.91,30.91,0,0,0,16.89,6.08v8.73a4.31,4.31,0,0,0,4.31,4.3h8.62a4.3,4.3,0,0,0,4.3-4.3v-8.64c12.73-.34,23-11,23-24.17a24.27,24.27,0,0,0-17-23.26"/></g></g></g></svg>