<svg xmlns="http://www.w3.org/2000/svg" xmlns:xlink="http://www.w3.org/1999/xlink" viewBox="0 0 446.76 446.76"><defs><style>.cls-1{fill:none;}.cls-2{clip-path:url(#clip-path);}.cls-3{fill:#f15f61;}.cls-4{fill:#b4e1e8;}</style><clipPath id="clip-path"><rect class="cls-1" width="446.76" height="446.76"/></clipPath></defs><title>6_6</title><g id="Layer_2" data-name="Layer 2"><g id="Layer_1-2" data-name="Layer 1"><g class="cls-2"><path class="cls-3" d="M223.38,446.76c123.36,0,223.38-100,223.38-223.38S346.74,0,223.38,0,0,100,0,223.38,100,446.76,223.38,446.76"/><path class="cls-4" d="M260.39,308.19H248.27V259.72h12.12Zm6.06-60.58H242.21a6.05,6.05,0,0,0-6.05,6.06v60.57a6.05,6.05,0,0,0,6.05,6.06h24.24a6.05,6.05,0,0,0,6.05-6.06V253.67a6.05,6.05,0,0,0-6.05-6.06m-66.64,60.58H187.69V211.26h12.12Zm6.06-109H181.64a6.05,6.05,0,0,0-6.06,6v109a6.06,6.06,0,0,0,6.06,6.06h24.23a6.06,6.06,0,0,0,6.06-6.06v-109a6.06,6.06,0,0,0-6.06-6m48.46,0a6.06,6.06,0,1,1,6.06-6.06,6.07,6.07,0,0,1-6.06,6.06m-60.58-48.46a6.06,6.06,0,1,1,6.06-6.06,6.07,6.07,0,0,1-6.06,6.06m-60.57,60.57a6.06,6.06,0,1,1,6-6.06,6.07,6.07,0,0,1-6,6.06m181.73-72.69a6.06,6.06,0,1,1-6.06,6.06,6.06,6.06,0,0,1,6.06-6.06M305.36,160a18.15,18.15,0,1,0,9.55-33.58,18,18,0,0,0-17.11,24.1l-33.92,27.14a17.79,17.79,0,0,0-19.1,0l-33.92-27.14a18.14,18.14,0,1,0-35.28-5.92,17.88,17.88,0,0,0,1.82,7.79L141,188.85a17.88,17.88,0,0,0-7.79-1.82,18.18,18.18,0,1,0,18.17,18.17,17.88,17.88,0,0,0-1.82-7.79L186,161a17.7,17.7,0,0,0,17.34-1l33.92,27.14a18.17,18.17,0,1,0,34.22,0ZM321,308.19H308.85V211.26H321Zm6.06-109H302.79a6.05,6.05,0,0,0-6.06,6v109a6.06,6.06,0,0,0,6.06,6.06H327a6.06,6.06,0,0,0,6.06-6.06v-109a6.05,6.05,0,0,0-6.06-6m-187.79,109H127.12V271.84h12.11Zm6.06-48.47H121.06a6.06,6.06,0,0,0-6.06,6.06v48.46a6.06,6.06,0,0,0,6.06,6.06h24.23a6.06,6.06,0,0,0,6.06-6.06V265.78a6.06,6.06,0,0,0-6.06-6.06"/></g></g></g></svg>