<svg xmlns="http://www.w3.org/2000/svg" xmlns:xlink="http://www.w3.org/1999/xlink" viewBox="0 0 528.36 526.89"><defs><style>.cls-1{fill:none;}.cls-2{clip-path:url(#clip-path);}.cls-3{fill:#47a6e3;}</style><clipPath id="clip-path" transform="translate(0 0)"><rect class="cls-1" width="528.36" height="526.89"/></clipPath></defs><title>9_1</title><g id="Layer_2" data-name="Layer 2"><g id="Layer_1-2" data-name="Layer 1"><g class="cls-2"><path class="cls-3" d="M323.64,197.58c21.89,0,39.63-17,39.63-37.86s-17.74-37.88-39.63-37.88H321A39.3,39.3,0,0,0,284,95.5c-7.32,0-13.81,2.52-19.69,6-7-11.25-18.9-19.15-33.15-19.15S205,90.23,198,101.48c-5.89-3.46-12.39-6-19.7-6A39.58,39.58,0,0,0,138.71,135a39.57,39.57,0,0,0-39.63,39.51c0,17.33,11.35,31.64,27,37-.07.88-.53,1.65-.53,2.55a39.57,39.57,0,0,0,39.63,39.51,39.1,39.1,0,0,0,13.21-2.65v45.46h52.83V250.91a39.11,39.11,0,0,0,13.22,2.65A39.57,39.57,0,0,0,284,214.05a38.74,38.74,0,0,0-3.85-16.47ZM525.51,283c-21.61-48.5-50-156.14-75.42-192.19A214.78,214.78,0,0,0,274.61,0h-68.2C98.54,0,4.26,82.41.15,189.92A196.6,196.6,0,0,0,66.06,344.56V510.43a16.48,16.48,0,0,0,16.51,16.46H99.08a16.49,16.49,0,0,0,16.52-16.46V322.5L99.08,307.78C50.69,264.47,34,192.81,65.91,130.26,92.06,79,147.7,49.4,205.38,49.4h69.25a165.3,165.3,0,0,1,135,69.84c11.55,16.37,29,67.58,41.66,105,6.77,19.88,13.28,39,19.61,55.7H412.8V395.16a16.49,16.49,0,0,1-16.51,16.47H313.73v98.8a16.49,16.49,0,0,0,16.51,16.46h16.51a16.49,16.49,0,0,0,16.52-16.46V461h33a66,66,0,0,0,66-65.87V329.3h33A32.9,32.9,0,0,0,525.51,283" transform="translate(0 0)"/></g></g></g></svg>