<svg xmlns="http://www.w3.org/2000/svg" xmlns:xlink="http://www.w3.org/1999/xlink" viewBox="0 0 554.97 493.36"><defs><style>.cls-1{fill:none;}.cls-2{clip-path:url(#clip-path);}.cls-3{fill:#4fe0f0;}</style><clipPath id="clip-path"><rect class="cls-1" width="554.97" height="493.36"/></clipPath></defs><title>9_2</title><g id="Layer_2" data-name="Layer 2"><g id="Layer_1-2" data-name="Layer 1"><g class="cls-2"><path class="cls-3" d="M248.22,139l48.28,13.78a8.11,8.11,0,0,1-2.22,15.9H262.67a24.64,24.64,0,0,1-9.92-2.12c-4.62-2.11-10-1.63-13.58,1.93L222.3,185.39c-5.1,5.11-4.53,13.78,1.45,17.74a70.87,70.87,0,0,0,30.64,11.08v17a15.46,15.46,0,0,0,15.42,15.42h15.42a15.46,15.46,0,0,0,15.41-15.42V214.31c29.2-3.48,51.46-29.88,47.5-60.71-2.79-22.17-19.94-39.8-41.33-46L258.53,93.85A8.1,8.1,0,0,1,260.75,78h31.6a24.77,24.77,0,0,1,9.93,2.11c4.63,2.12,10,1.64,13.59-1.92l16.86-16.87c5.11-5.1,4.53-13.78-1.45-17.73a70.82,70.82,0,0,0-30.64-11.08v-17A15.46,15.46,0,0,0,285.23,0H269.81a15.46,15.46,0,0,0-15.42,15.42V32.37c-29.19,3.48-51.46,29.88-47.51,60.71,2.8,22.17,19.86,39.8,41.34,46m283.59,161.6c-30-25.44-66.78-15.51-85.18-1.74l-58.21,43.85h-3.18c-.19-36.62-29.39-65.33-66.68-65.33H179.81a125.56,125.56,0,0,0-75.64,25.34l-27.28,21H15.42A15.46,15.46,0,0,0,0,339.18V354.6A15.47,15.47,0,0,0,15.42,370H92.5l39.81-30.35a78.28,78.28,0,0,1,47.6-15.9H318.66c26.89,0,28,38.73-1.06,38.73H260a13.33,13.33,0,0,0-13.3,13.3v.09A13.33,13.33,0,0,0,260,389.2H389.59a43.2,43.2,0,0,0,25.91-8.68l59.07-44.42c8-6,19.75-6.46,27.37,0a18.58,18.58,0,0,1-.87,29.58l-96.94,72.75a43.42,43.42,0,0,1-25.92,8.67H15.42A15.47,15.47,0,0,0,0,462.52V478a15.46,15.46,0,0,0,15.42,15.41H378.5a88.32,88.32,0,0,0,53.19-17.83l97.13-73.14a64.89,64.89,0,0,0,3-101.75"/></g></g></g></svg>