<svg xmlns="http://www.w3.org/2000/svg" xmlns:xlink="http://www.w3.org/1999/xlink" viewBox="0 0 528.36 421.15"><defs><style>.cls-1{fill:none;}.cls-2{clip-path:url(#clip-path);}.cls-3{fill:#e35457;}</style><clipPath id="clip-path" transform="translate(0 0)"><rect class="cls-1" width="528.36" height="421.15"/></clipPath></defs><title>9_3</title><g id="Layer_2" data-name="Layer 2"><g id="Layer_1-2" data-name="Layer 1"><g class="cls-2"><path class="cls-3" d="M478.83,35.09H357c-22.07,0-33.12,28.36-17.52,44.94l33.43,35.53L297.2,196l-75.71-80.47a31.65,31.65,0,0,0-46.7,0l-70.88,75.34a18.34,18.34,0,0,0,0,24.82l23.34,24.81a15.85,15.85,0,0,0,23.36,0L198.14,190l75.71,80.47a31.65,31.65,0,0,0,46.7,0l99.06-105.29,33.44,35.54c15.6,16.58,42.28,4.83,42.28-18.61V52.64c0-9.69-7.38-17.55-16.5-17.55m33,315.87H66.05V17.55C66.05,7.86,58.66,0,49.54,0h-33C7.39,0,0,7.86,0,17.55v368.5c0,19.38,14.79,35.1,33,35.1H511.85c9.12,0,16.51-7.86,16.51-17.55V368.5c0-9.69-7.39-17.54-16.51-17.54" transform="translate(0 0)"/></g></g></g></svg>