<svg xmlns="http://www.w3.org/2000/svg" xmlns:xlink="http://www.w3.org/1999/xlink" viewBox="0 0 557.56 637.21"><defs><style>.cls-1{fill:none;}.cls-2{clip-path:url(#clip-path);}.cls-3{fill:#d94587;}</style><clipPath id="clip-path" transform="translate(0)"><rect class="cls-1" width="557.56" height="637.21"/></clipPath></defs><title>9_4</title><g id="Layer_2" data-name="Layer 2"><g id="Layer_1-2" data-name="Layer 1"><g class="cls-2"><path class="cls-3" d="M278.78,298.7A59.74,59.74,0,1,0,219,239a59.81,59.81,0,0,0,59.74,59.75M159.31,239A119.48,119.48,0,1,1,278.78,358.43,119.47,119.47,0,0,1,159.31,239M117.25,510.46l25-.87,49,46.6,35.93-79.28a54.08,54.08,0,0,1-7.24,1,55.56,55.56,0,0,1-39.36-16.31c-20.43-20.42-22.16-18.91-53.59-27.34a53.91,53.91,0,0,1-10-4.16l-37,81.63ZM336.93,417.1c27.4-27.47,42-30.86,75.81-39.94,14.11-52.64,21.21-57.1,49-84.92-14.32-53.43-9.81-61.46,0-98.06-38.53-38.53-38.84-46.91-49-84.93-36.21-9.68-46.13-10.23-84.94-49-53,14.21-61.22,9.88-98.06,0-26.5,26.5-31.92,34.82-84.93,49-14.11,52.65-21.2,57.1-49,84.94,14.11,52.65,10.2,60.06,0,98.09,26.5,26.49,34.82,31.93,49,84.93,32.7,8.77,47.64,11.75,75.84,39.94a115.53,115.53,0,0,1,116.29,0m29.31,139.09,49-46.6,62.21,2.14-37-81.63a54.42,54.42,0,0,1-10,4.16c-31.29,8.39-33.34,7.09-53.59,27.34a55.57,55.57,0,0,1-39.37,16.31c-2.42,0-4.81-.68-7.22-1Zm-364.17-17L79.67,367.9c-5.53-14.22-10.36-17.63-27.81-35.08a55.63,55.63,0,0,1-14.39-53.74c10.31-38.51,10.32-33.16,0-71.71a55.63,55.63,0,0,1,14.39-53.74c28.23-28.25,25.54-23.57,35.87-62.12a55.63,55.63,0,0,1,39.34-39.35c38.53-10.31,33.88-7.62,62.1-35.85A55.65,55.65,0,0,1,242.93,1.9c38.41,10.29,33.21,10.32,71.7,0a55.65,55.65,0,0,1,53.76,14.41c28.2,28.2,23.55,25.52,62.1,35.85a55.61,55.61,0,0,1,39.34,39.35c10.32,38.52,7.63,33.87,35.85,62.09a55.63,55.63,0,0,1,14.41,53.75c-10.33,38.51-10.33,33.16,0,71.7a55.68,55.68,0,0,1-14.41,53.75c-18.78,18.8-22.42,21.23-27.8,35.08l77.61,171.27c7.42,16.37-6,34.15-25.45,34.15l-1.1,0-90.67-3.13-62.39,59.31a28.88,28.88,0,0,1-19.94,7.75c-10.62,0-21.06-5.46-25.57-15.44L278.78,507.94,227.19,621.77c-4.51,10-15,15.44-25.57,15.44a28.75,28.75,0,0,1-19.92-7.75l-62.39-59.31-90.68,3.13-1.1,0c-19.41,0-32.87-17.78-25.46-34.15" transform="translate(0)"/></g></g></g></svg>