<svg xmlns="http://www.w3.org/2000/svg" xmlns:xlink="http://www.w3.org/1999/xlink" viewBox="0 0 528.35 528.35"><defs><style>.cls-1{fill:none;}.cls-2{clip-path:url(#clip-path);}.cls-3{fill:#1f306b;}</style><clipPath id="clip-path" transform="translate(0)"><rect class="cls-1" width="528.36" height="528.35"/></clipPath></defs><title>9_5</title><g id="Layer_2" data-name="Layer 2"><g id="Layer_1-2" data-name="Layer 1"><g class="cls-2"><path class="cls-3" d="M298,.05c-.36,0-.72,0-1.07,0C288,0,280.68,7.68,280.68,16.75V247.67H511.6c9.43,0,17.36-7.94,16.72-17.34C519.8,107.06,421.29,8.55,298,.05M247.66,478.82c-2.21,0-4.46-.05-6.7-.12C138.82,475.35,53,389.52,49.64,287.38a197.68,197.68,0,0,1,132-193.33V346.73h252.6c-27.48,77.46-101.87,132.09-186.56,132.09M476,297.2H231.15V52.33c0-9.1-7.4-16.72-16.24-16.72a16.08,16.08,0,0,0-2.18.15C89.86,53.12-4.09,160.4.14,289c4.2,128,111.22,235,239.2,239.2,2.78.1,5.56.14,8.32.14,124.91,0,228-92.52,244.93-212.74,1.37-9.76-6.72-18.41-16.57-18.41" transform="translate(0)"/></g></g></g></svg>