<svg xmlns="http://www.w3.org/2000/svg" xmlns:xlink="http://www.w3.org/1999/xlink" viewBox="0 0 1995.13 447.56"><defs><style>.cls-1{fill:#e25456;}.cls-2{fill:#fff;}.cls-3{fill:url(#linear-gradient);}.cls-4{fill:url(#linear-gradient-2);}.cls-5{fill:url(#linear-gradient-3);}</style><linearGradient id="linear-gradient" x1="204.34" y1="179.23" x2="332.38" y2="179.23" gradientUnits="userSpaceOnUse"><stop offset="0" stop-color="#e25456"/><stop offset="1" stop-color="#d84190"/></linearGradient><linearGradient id="linear-gradient-2" x1="204.34" y1="121.61" x2="447.62" y2="121.61" xlink:href="#linear-gradient"/><linearGradient id="linear-gradient-3" x1="126.14" y1="211.21" x2="346.69" y2="211.21" gradientUnits="userSpaceOnUse"><stop offset="0" stop-color="#51e7f2"/><stop offset="1" stop-color="#469ee1"/></linearGradient></defs><title>0_logo-impact-canada</title><g id="Layer_2" data-name="Layer 2"><g id="Layer_1-2" data-name="Layer 1"><path class="cls-1" d="M1537.2,270.68a16.77,16.77,0,0,0,5.54-.87,12.91,12.91,0,0,0,4.32-2.47,11.14,11.14,0,0,0,2.85-3.83,12.73,12.73,0,0,0,1.1-5.05h20.57a28.09,28.09,0,0,1-2.73,12,29.63,29.63,0,0,1-7.21,9.49,32.88,32.88,0,0,1-10.74,6.18,39.35,39.35,0,0,1-13.32,2.2,40.23,40.23,0,0,1-16.7-3.22,33.19,33.19,0,0,1-11.84-8.8,37.32,37.32,0,0,1-7-13.13,54.43,54.43,0,0,1-2.36-16.28V244.8a54.8,54.8,0,0,1,2.36-16.32,37.56,37.56,0,0,1,7-13.2,32.91,32.91,0,0,1,11.81-8.84,39.68,39.68,0,0,1,16.58-3.23,40.93,40.93,0,0,1,13.85,2.24,30.76,30.76,0,0,1,10.74,6.41,29.18,29.18,0,0,1,7,10.13,35.06,35.06,0,0,1,2.58,13.33H1551a17.59,17.59,0,0,0-1-5.58,13.66,13.66,0,0,0-2.69-4.56,12.75,12.75,0,0,0-4.33-3.07,14.54,14.54,0,0,0-5.92-1.14,14.06,14.06,0,0,0-7.82,2,13.64,13.64,0,0,0-4.74,5.27,23.7,23.7,0,0,0-2.32,7.63,65,65,0,0,0-.6,9v2.13a65.73,65.73,0,0,0,.6,9,23.39,23.39,0,0,0,2.32,7.59,13.51,13.51,0,0,0,4.74,5.2A14.63,14.63,0,0,0,1537.2,270.68Z"/><path class="cls-1" d="M1631.68,286.85a24.62,24.62,0,0,1-2.2-7.37,28.56,28.56,0,0,1-8.38,6.3,26.89,26.89,0,0,1-12.33,2.58,32.64,32.64,0,0,1-11-1.82,27.32,27.32,0,0,1-8.87-5.08,23.42,23.42,0,0,1-5.89-7.78,23.06,23.06,0,0,1-2.12-9.91,26.31,26.31,0,0,1,2.39-11.45,22.26,22.26,0,0,1,7.17-8.5,34.51,34.51,0,0,1,11.88-5.32,67,67,0,0,1,16.5-1.82h9.79V232q0-5.7-2.92-9.11t-9.22-3.42q-5.54,0-8.69,2.66a9,9,0,0,0-3.15,7.29h-21.93a21.69,21.69,0,0,1,2.47-10.1,25.19,25.19,0,0,1,7-8.35,35.11,35.11,0,0,1,11-5.65,46.75,46.75,0,0,1,14.42-2.09,46,46,0,0,1,13.21,1.82,30.11,30.11,0,0,1,10.47,5.43,24.74,24.74,0,0,1,6.87,9,30.36,30.36,0,0,1,2.46,12.64v34.75q0,3.5.23,6.27c.16,1.84.36,3.52.61,5a25.15,25.15,0,0,0,1,4,24.31,24.31,0,0,0,1.43,3.38v1.29Zm-18.13-15.26a18.74,18.74,0,0,0,5.2-.68,19.38,19.38,0,0,0,4.29-1.78,15.74,15.74,0,0,0,3.3-2.55,13.77,13.77,0,0,0,2.23-3V249.51h-9a26.2,26.2,0,0,0-7.52,1,14.5,14.5,0,0,0-5.24,2.65,10.61,10.61,0,0,0-3,4,12.74,12.74,0,0,0-1,5.05,8.74,8.74,0,0,0,2.89,6.75C1607.58,270.71,1610.21,271.59,1613.55,271.59Z"/><path class="cls-1" d="M1687.62,204.73l.69,9.49a28.78,28.78,0,0,1,10.24-8.16,30.7,30.7,0,0,1,13.36-2.85,32.92,32.92,0,0,1,10.62,1.63,19.48,19.48,0,0,1,8.2,5.35,25.1,25.1,0,0,1,5.27,9.72,49.91,49.91,0,0,1,1.86,14.72v52.22h-21.93V234.48a20.45,20.45,0,0,0-.88-6.53,9.49,9.49,0,0,0-2.53-4.1,9.79,9.79,0,0,0-4.1-2.16,22.06,22.06,0,0,0-5.62-.64,15.6,15.6,0,0,0-8.31,2.12,16.34,16.34,0,0,0-5.58,5.77v57.91H1667V204.73Z"/><path class="cls-1" d="M1802.07,286.85a24.32,24.32,0,0,1-2.21-7.37,28.56,28.56,0,0,1-8.38,6.3,26.83,26.83,0,0,1-12.33,2.58,32.64,32.64,0,0,1-11.05-1.82,27.32,27.32,0,0,1-8.87-5.08,23.42,23.42,0,0,1-5.89-7.78,23.06,23.06,0,0,1-2.12-9.91,26.31,26.31,0,0,1,2.39-11.45,22.26,22.26,0,0,1,7.17-8.5,34.59,34.59,0,0,1,11.88-5.32,67,67,0,0,1,16.51-1.82H1799V232q0-5.7-2.93-9.11t-9.22-3.42c-3.69,0-6.59.89-8.68,2.66a9,9,0,0,0-3.16,7.29H1753a21.69,21.69,0,0,1,2.47-10.1,25.19,25.19,0,0,1,7-8.35,35.22,35.22,0,0,1,11-5.65,46.75,46.75,0,0,1,14.42-2.09,46,46,0,0,1,13.21,1.82,30,30,0,0,1,10.47,5.43,24.74,24.74,0,0,1,6.87,9,30.36,30.36,0,0,1,2.46,12.64v34.75q0,3.5.24,6.27c.15,1.84.35,3.52.6,5a26.27,26.27,0,0,0,1,4,23.2,23.2,0,0,0,1.44,3.38v1.29Zm-18.14-15.26a18.69,18.69,0,0,0,5.2-.68,19.38,19.38,0,0,0,4.29-1.78,15.74,15.74,0,0,0,3.3-2.55,14.17,14.17,0,0,0,2.24-3V249.51h-9a26.25,26.25,0,0,0-7.52,1,14.5,14.5,0,0,0-5.24,2.65,10.71,10.71,0,0,0-3,4,12.74,12.74,0,0,0-1,5.05,8.74,8.74,0,0,0,2.89,6.75C1778,270.71,1780.59,271.59,1783.93,271.59Z"/><path class="cls-1" d="M1834.4,245.18a63,63,0,0,1,2.16-17.07,40.48,40.48,0,0,1,6.26-13.29,28.36,28.36,0,0,1,10.09-8.57,29.92,29.92,0,0,1,13.67-3,25.65,25.65,0,0,1,11.19,2.35,26.77,26.77,0,0,1,8.61,6.61V170.28h22V286.85h-19.81l-1.06-8.73a28.06,28.06,0,0,1-9,7.55,25.7,25.7,0,0,1-12.07,2.69,28.5,28.5,0,0,1-13.54-3.15,29.49,29.49,0,0,1-10.06-8.68,40.61,40.61,0,0,1-6.26-13.17,60.32,60.32,0,0,1-2.16-16.59Zm21.93,1.59a48.28,48.28,0,0,0,.84,9.34,24.05,24.05,0,0,0,2.69,7.55,14.23,14.23,0,0,0,4.86,5.09,13.61,13.61,0,0,0,7.32,1.86,16,16,0,0,0,8.84-2.28,15.29,15.29,0,0,0,5.5-6.3V229.62a14.89,14.89,0,0,0-5.5-6.33,15.84,15.84,0,0,0-8.69-2.24,13.82,13.82,0,0,0-7.36,1.86,14.1,14.1,0,0,0-4.9,5.12,25.52,25.52,0,0,0-2.73,7.66,49,49,0,0,0-.87,9.49Z"/><path class="cls-1" d="M1973,286.85a24.62,24.62,0,0,1-2.2-7.37,28.56,28.56,0,0,1-8.38,6.3,26.89,26.89,0,0,1-12.33,2.58,32.64,32.64,0,0,1-11-1.82,27.32,27.32,0,0,1-8.87-5.08,23.42,23.42,0,0,1-5.89-7.78,22.92,22.92,0,0,1-2.12-9.91,26.31,26.31,0,0,1,2.39-11.45,22.26,22.26,0,0,1,7.17-8.5,34.51,34.51,0,0,1,11.88-5.32,66.91,66.91,0,0,1,16.5-1.82h9.79V232q0-5.7-2.92-9.11t-9.22-3.42q-5.54,0-8.69,2.66a9,9,0,0,0-3.15,7.29H1924a21.8,21.8,0,0,1,2.46-10.1,25.34,25.34,0,0,1,7-8.35,35.11,35.11,0,0,1,11-5.65,46.75,46.75,0,0,1,14.42-2.09,45.88,45.88,0,0,1,13.2,1.82,30.07,30.07,0,0,1,10.48,5.43,24.74,24.74,0,0,1,6.87,9,30.36,30.36,0,0,1,2.46,12.64v34.75q0,3.5.23,6.27c.15,1.84.36,3.52.61,5a26.31,26.31,0,0,0,1,4,25.62,25.62,0,0,0,1.44,3.38v1.29Zm-18.13-15.26a18.74,18.74,0,0,0,5.2-.68,19.1,19.1,0,0,0,4.28-1.78,15.24,15.24,0,0,0,3.3-2.55,13.51,13.51,0,0,0,2.24-3V249.51h-9a26.2,26.2,0,0,0-7.52,1,14.5,14.5,0,0,0-5.24,2.65,10.51,10.51,0,0,0-3,4,12.74,12.74,0,0,0-1,5.05,8.74,8.74,0,0,0,2.89,6.75C1948.87,270.71,1951.5,271.59,1954.84,271.59Z"/><path class="cls-2" d="M577.8,122.77a20.81,20.81,0,0,1,6.34-15.61Q590.5,101,601.43,101a28.26,28.26,0,0,1,9.78,1.6,21.3,21.3,0,0,1,7.43,4.52,20.26,20.26,0,0,1,4.75,6.93,22.27,22.27,0,0,1,1.68,8.68,22.63,22.63,0,0,1-1.68,8.83,20.26,20.26,0,0,1-4.75,6.93,21.15,21.15,0,0,1-7.43,4.52,30.48,30.48,0,0,1-19.55,0,21.11,21.11,0,0,1-7.44-4.52,20.09,20.09,0,0,1-4.74-6.93A22.63,22.63,0,0,1,577.8,122.77Zm44.78,198.69h-42.3V163.62h42.3Z"/><path class="cls-2" d="M696.84,163.62l1.31,17.65a56,56,0,0,1,19.18-15.1q11.29-5.46,26.19-5.47a53.23,53.23,0,0,1,25,5.69q10.86,5.69,16.84,18.38a56,56,0,0,1,19.48-17.65q11.75-6.42,27.94-6.42a64.56,64.56,0,0,1,20.93,3.21,38.53,38.53,0,0,1,16,10.36q6.65,7.14,10.21,18.6T883.56,221V321.46h-42.3V221a42.21,42.21,0,0,0-1.68-13,18.33,18.33,0,0,0-4.75-7.95,16.57,16.57,0,0,0-7.43-3.94,41,41,0,0,0-9.93-1.1q-9.76,0-16.33,4.89a30,30,0,0,0-9.92,13.2c0,.49,0,1,.07,1.61s.07,1.12.07,1.6V321.46H749.21V221.24a44,44,0,0,0-1.61-13,18.48,18.48,0,0,0-4.67-8,16.82,16.82,0,0,0-7.51-4.09,39.84,39.84,0,0,0-10-1.17q-9.33,0-15.75,3.94a28.47,28.47,0,0,0-10.21,11V321.46H657.3V163.62Z"/><path class="cls-2" d="M1058,244a121.44,121.44,0,0,1-4,31.95,78.42,78.42,0,0,1-11.74,25.45,55.93,55.93,0,0,1-19.18,16.85q-11.46,6.13-26.34,6.13a52.54,52.54,0,0,1-22.1-4.38,49.54,49.54,0,0,1-16.56-12.25v74.4H916V163.62H955l1.46,15.46a52.21,52.21,0,0,1,17-13.56q9.69-4.82,23-4.82,15,0,26.55,5.77a52.88,52.88,0,0,1,19.26,16.33A76.75,76.75,0,0,1,1054,208.19a125.3,125.3,0,0,1,4,32.75Zm-42.16-3.06a93.41,93.41,0,0,0-1.67-18.17,46.62,46.62,0,0,0-5.33-14.58,27.29,27.29,0,0,0-9.41-9.7A26.56,26.56,0,0,0,985.39,195q-10.36,0-17,3.87a26,26,0,0,0-10.29,11.3v64.63a27.93,27.93,0,0,0,10.29,11.45q6.65,4.15,17.28,4.16a25.81,25.81,0,0,0,14.08-3.65,27.58,27.58,0,0,0,9.34-10,48.18,48.18,0,0,0,5.18-14.81,96.17,96.17,0,0,0,1.6-17.94Z"/><path class="cls-2" d="M1175.61,321.46a47.08,47.08,0,0,1-4.23-14.15,54.81,54.81,0,0,1-16.12,12.11q-9.71,4.95-23.71,5a63,63,0,0,1-21.22-3.5,52.56,52.56,0,0,1-17.07-9.78,44.87,44.87,0,0,1-11.3-15,44,44,0,0,1-4.09-19,50.49,50.49,0,0,1,4.6-22,43,43,0,0,1,13.78-16.33q9.2-6.7,22.84-10.21t31.72-3.51h18.82v-9q0-10.94-5.61-17.5t-17.73-6.57q-10.65,0-16.71,5.11t-6,14h-42.16a41.67,41.67,0,0,1,4.75-19.4,48.4,48.4,0,0,1,13.49-16,67.59,67.59,0,0,1,21.15-10.86,89.59,89.59,0,0,1,27.72-4,88.12,88.12,0,0,1,25.38,3.5A57.63,57.63,0,0,1,1194,174.63,47.6,47.6,0,0,1,1207.2,192q4.74,10.44,4.74,24.29v66.81q0,6.72.43,12c.3,3.55.68,6.76,1.17,9.63a50.25,50.25,0,0,0,1.9,7.73,44.44,44.44,0,0,0,2.77,6.49v2.48Zm-34.86-29.32A36.08,36.08,0,0,0,1159,287.4a29.33,29.33,0,0,0,6.35-4.89,26.22,26.22,0,0,0,4.3-5.69V249.69h-17.36a51.09,51.09,0,0,0-14.44,1.82,27.92,27.92,0,0,0-10.06,5.11,20.3,20.3,0,0,0-5.84,7.73,24.57,24.57,0,0,0-1.9,9.7,16.89,16.89,0,0,0,5.55,13Q1131.12,292.14,1140.75,292.14Z"/><path class="cls-2" d="M1310,290.39a32.2,32.2,0,0,0,10.65-1.68,24.75,24.75,0,0,0,8.31-4.74,21.49,21.49,0,0,0,5.47-7.37,24.61,24.61,0,0,0,2.12-9.7h39.53A53.84,53.84,0,0,1,1370.8,290a56.75,56.75,0,0,1-13.86,18.24,63.19,63.19,0,0,1-20.64,11.89,75.86,75.86,0,0,1-25.61,4.23q-18.37,0-32.09-6.2a63.31,63.31,0,0,1-22.75-16.92A71.49,71.49,0,0,1,1242.28,276a104.54,104.54,0,0,1-4.53-31.29v-4.09a105.24,105.24,0,0,1,4.53-31.36,72.22,72.22,0,0,1,13.57-25.38,63.21,63.21,0,0,1,22.68-17q13.65-6.19,31.88-6.2A78.81,78.81,0,0,1,1337,165a59.16,59.16,0,0,1,20.64,12.33,55.76,55.76,0,0,1,13.42,19.48,67.12,67.12,0,0,1,5,25.6h-39.53a34,34,0,0,0-2-10.72,26.4,26.4,0,0,0-5.18-8.75,24.05,24.05,0,0,0-8.32-5.91,27.89,27.89,0,0,0-11.37-2.19q-9.2,0-15,3.79a26.27,26.27,0,0,0-9.12,10.14,45.48,45.48,0,0,0-4.45,14.66,125.06,125.06,0,0,0-1.16,17.21v4.09a126.09,126.09,0,0,0,1.16,17.36,44.68,44.68,0,0,0,4.45,14.59,25.84,25.84,0,0,0,9.12,10Q1300.48,290.39,1310,290.39Z"/><path class="cls-2" d="M1450.6,124.82v38.8h27v30.93h-27v78.77a27.13,27.13,0,0,0,1,8.17,10.94,10.94,0,0,0,3.06,5,10.8,10.8,0,0,0,5,2.48,33.24,33.24,0,0,0,7.08.66c2.53,0,4.83-.1,6.92-.29s3.92-.44,5.48-.73v31.95a97,97,0,0,1-11.45,2.7,82.63,82.63,0,0,1-14.08,1.09,63.53,63.53,0,0,1-18.67-2.55,35.72,35.72,0,0,1-14.23-8.1,36.4,36.4,0,0,1-9.12-14.44q-3.21-8.9-3.2-21.45V194.55h-23V163.62h23v-38.8Z"/><path class="cls-3" d="M332.38,243.22h-128v-128A221.09,221.09,0,0,1,332.38,243.22Z"/><path class="cls-4" d="M447.62,243.22h-93A242.45,242.45,0,0,0,204.34,92.94V0A243.19,243.19,0,0,1,447.62,243.22Z"/><path class="cls-5" d="M346.69,321.49H126.14V100.94A220.4,220.4,0,0,1,346.69,321.49Z"/><path class="cls-2" d="M126.07,447.56a126.12,126.12,0,0,1-24-249.93,113.13,113.13,0,0,1,12.11-1.72c4.14-.38,8-.56,11.86-.56,69.59.07,126.14,56.65,126.14,126.14,0,3.85-.19,7.86-.57,11.94a111.7,111.7,0,0,1-1.73,12.11C238.52,404.62,186.42,447.56,126.07,447.56Zm.05-220.67c-2.91,0-5.88.14-9.12.43a79.18,79.18,0,0,0-8.83,1.26A94.58,94.58,0,1,0,219,339.49a80.39,80.39,0,0,0,1.26-8.88c.3-3.24.44-6.2.44-9.12A94.74,94.74,0,0,0,126.12,226.89Z"/></g></g></svg>